<svg class="main-svg" xmlns="http://www.w3.org/2000/svg" xmlns:xlink="http://www.w3.org/1999/xlink" width="700" height="500" style="" viewBox="0 0 700 500"><rect x="0" y="0" width="700" height="500" style="fill: rgb(255, 255, 255); fill-opacity: 1;"/><defs id="defs-1221fb"><g class="clips"><clipPath id="clip1221fbxyplot" class="plotclip"><rect width="540" height="320"/></clipPath><clipPath class="axesclip" id="clip1221fbx"><rect x="80" y="0" width="540" height="500"/></clipPath><clipPath class="axesclip" id="clip1221fby"><rect x="0" y="100" width="700" height="320"/></clipPath><clipPath class="axesclip" id="clip1221fbxy"><rect x="80" y="100" width="540" height="320"/></clipPath></g><g class="gradients"/><g class="patterns"/></defs><g class="bglayer"><rect class="bg" x="80" y="100" width="540" height="320" style="fill: rgb(229, 236, 246); fill-opacity: 1; stroke-width: 0;"/></g><g class="layer-below"><g class="imagelayer"/><g class="shapelayer"/></g><g class="cartesianlayer"><g class="subplot xy"><g class="layer-subplot"><g class="shapelayer"/><g class="imagelayer"/></g><g class="minor-gridlayer"><g class="x"/><g class="y"/></g><g class="gridlayer"><g class="x"><path class="xgrid crisp" transform="translate(168.16,0)" d="M0,100v320" style="stroke: rgb(255, 255, 255); stroke-opacity: 1; stroke-width: 1px;"/><path class="xgrid crisp" transform="translate(256.33000000000004,0)" d="M0,100v320" style="stroke: rgb(255, 255, 255); stroke-opacity: 1; stroke-width: 1px;"/><path class="xgrid crisp" transform="translate(344.49,0)" d="M0,100v320" style="stroke: rgb(255, 255, 255); stroke-opacity: 1; stroke-width: 1px;"/><path class="xgrid crisp" transform="translate(432.65,0)" d="M0,100v320" style="stroke: rgb(255, 255, 255); stroke-opacity: 1; stroke-width: 1px;"/><path class="xgrid crisp" transform="translate(520.8199999999999,0)" d="M0,100v320" style="stroke: rgb(255, 255, 255); stroke-opacity: 1; stroke-width: 1px;"/><path class="xgrid crisp" transform="translate(608.98,0)" d="M0,100v320" style="stroke: rgb(255, 255, 255); stroke-opacity: 1; stroke-width: 1px;"/></g><g class="y"><path class="ygrid crisp" transform="translate(0,397.57)" d="M80,0h540" style="stroke: rgb(255, 255, 255); stroke-opacity: 1; stroke-width: 1px;"/><path class="ygrid crisp" transform="translate(0,357.49)" d="M80,0h540" style="stroke: rgb(255, 255, 255); stroke-opacity: 1; stroke-width: 1px;"/><path class="ygrid crisp" transform="translate(0,317.41999999999996)" d="M80,0h540" style="stroke: rgb(255, 255, 255); stroke-opacity: 1; stroke-width: 1px;"/><path class="ygrid crisp" transform="translate(0,277.34000000000003)" d="M80,0h540" style="stroke: rgb(255, 255, 255); stroke-opacity: 1; stroke-width: 1px;"/><path class="ygrid crisp" transform="translate(0,237.27)" d="M80,0h540" style="stroke: rgb(255, 255, 255); stroke-opacity: 1; stroke-width: 1px;"/><path class="ygrid crisp" transform="translate(0,197.2)" d="M80,0h540" style="stroke: rgb(255, 255, 255); stroke-opacity: 1; stroke-width: 1px;"/><path class="ygrid crisp" transform="translate(0,157.12)" d="M80,0h540" style="stroke: rgb(255, 255, 255); stroke-opacity: 1; stroke-width: 1px;"/><path class="ygrid crisp" transform="translate(0,117.05)" d="M80,0h540" style="stroke: rgb(255, 255, 255); stroke-opacity: 1; stroke-width: 1px;"/></g></g><g class="zerolinelayer"><path class="xzl zl crisp" transform="translate(80,0)" d="M0,100v320" style="stroke: rgb(255, 255, 255); stroke-opacity: 1; stroke-width: 2px;"/></g><path class="xlines-below"/><path class="ylines-below"/><g class="overlines-below"/><g class="xaxislayer-below"/><g class="yaxislayer-below"/><g class="overaxes-below"/><g class="plot" transform="translate(80,100)" clip-path="url(#clip1221fbxyplot)"><g class="scatterlayer mlayer"><g class="trace scatter trace156b73" style="stroke-miterlimit: 2;"><g class="fills"><g><path class="js-fill" d="M11.02,25.14L22.04,29.06L33.06,24.82L44.08,26.74L55.1,26.06L66.12,24.24L77.14,21.62L88.16,28.34L99.18,28.25L110.2,26.84L121.22,30.57L132.24,27.3L143.27,26.88L165.31,25.53L176.33,29.09L187.35,28.74L198.37,26.71L209.39,17.62L220.41,16.84L231.43,25.35L242.45,27.03L253.47,26.35L264.49,20.41L275.51,24.47L286.53,26.51L308.57,25.28L319.59,27.45L330.61,24.17L341.63,23.63L352.65,25.28L363.67,28.81L374.69,25.59L385.71,24.4L396.73,24.45L407.76,19.07L418.78,21.9L429.8,25.86L440.82,26.95L451.84,27.01L462.86,24.28L473.88,24.38L484.9,24.65L495.92,23.56L506.94,26.57L517.96,20.64L528.98,16L528.98,154.49L517.96,160.85L506.94,154.01L495.92,191.75L484.9,283.51L473.88,283.51L462.86,269.2L451.84,138.53L440.82,82.09L429.8,76.86L407.76,118.71L396.73,131.86L385.71,131.86L374.69,88.94L363.67,88.94L352.65,139.65L341.63,304L330.61,276.8L319.59,229.52L308.57,159.31L297.55,104.9L286.53,118.05L275.51,118.61L264.49,118.61L253.47,114.32L242.45,126.56L231.43,234.2L220.41,234.2L209.39,206.83L198.37,176.32L187.35,231.65L176.33,244.59L165.31,244.59L154.29,113.25L143.27,97.27L132.24,93.35L121.22,93.6L110.2,137.93L99.18,137.93L88.16,103.99L77.14,100.86L66.12,141.68L55.1,191.08L44.08,242.3L33.06,194.29L22.04,130L11.02,130Z" style="fill: rgb(68, 68, 68); fill-opacity: 0.3; stroke-width: 0;"/></g></g><g class="errorbars"/><g class="lines"><path class="js-line" d="M11.02,130L22.04,130L33.06,194.29L44.08,242.3L55.1,191.08L66.12,141.68L77.14,100.86L88.16,103.99L99.18,137.93L110.2,137.93L121.22,93.6L132.24,93.35L143.27,97.27L154.29,113.25L165.31,244.59L176.33,244.59L187.35,231.65L198.37,176.32L209.39,206.83L220.41,234.2L231.43,234.2L242.45,126.56L253.47,114.32L264.49,118.61L275.51,118.61L286.53,118.05L297.55,104.9L308.57,159.31L319.59,229.52L330.61,276.8L341.63,304L352.65,139.65L363.67,88.94L374.69,88.94L385.71,131.86L396.73,131.86L407.76,118.71L429.8,76.86L440.82,82.09L451.84,138.53L462.86,269.2L473.88,283.51L484.9,283.51L495.92,191.75L506.94,154.01L517.96,160.85L528.98,154.49" style="vector-effect: non-scaling-stroke; fill: none; stroke: rgb(68, 68, 68); stroke-opacity: 1; stroke-width: 0px; opacity: 1;"/></g><g class="points"/><g class="text"/></g><g class="trace scatter trace4da9b9" style="stroke-miterlimit: 2;"><g class="fills"/><g class="errorbars"/><g class="lines"><path class="js-line" d="M11.02,25.14L22.04,29.06L33.06,24.82L44.08,26.74L55.1,26.06L66.12,24.24L77.14,21.62L88.16,28.34L99.18,28.25L110.2,26.84L121.22,30.57L132.24,27.3L143.27,26.88L165.31,25.53L176.33,29.09L187.35,28.74L198.37,26.71L209.39,17.62L220.41,16.84L231.43,25.35L242.45,27.03L253.47,26.35L264.49,20.41L275.51,24.47L286.53,26.51L308.57,25.28L319.59,27.45L330.61,24.17L341.63,23.63L352.65,25.28L363.67,28.81L374.69,25.59L385.71,24.4L396.73,24.45L407.76,19.07L418.78,21.9L429.8,25.86L440.82,26.95L451.84,27.01L462.86,24.28L473.88,24.38L484.9,24.65L495.92,23.56L506.94,26.57L517.96,20.64L528.98,16" style="vector-effect: non-scaling-stroke; fill: none; stroke: rgb(68, 68, 68); stroke-opacity: 1; stroke-width: 0px; opacity: 1;"/></g><g class="points"/><g class="text"/></g><g class="trace scatter trace2a542c" style="stroke-miterlimit: 2; opacity: 1;"><g class="fills"/><g class="errorbars"/><g class="lines"><path class="js-line" d="M11.02,55.93L22.04,57.06L33.06,55.75L44.08,60.65L55.1,62.85L66.12,57.05L77.14,53.01L110.2,57.14L121.22,53.41L132.24,51.2L143.27,52.06L154.29,53.96L165.31,78.69L176.33,94.89L187.35,86.06L198.37,73.32L209.39,66.89L231.43,67.99L242.45,60.14L264.49,52.45L275.51,54.19L286.53,51.58L297.55,48.02L308.57,52.71L319.59,56.47L330.61,57.03L341.63,59.54L352.65,53.15L363.67,48.52L374.69,45.97L385.71,48.78L396.73,57.83L407.76,51.36L418.78,47.25L429.8,45.93L440.82,45.28L451.84,51.98L462.86,58.93L473.88,69.5L484.9,60.19L495.92,56.51L517.96,53.53L528.98,43.87" style="vector-effect: non-scaling-stroke; fill: none; stroke: rgb(31, 119, 180); stroke-opacity: 1; stroke-width: 2px; opacity: 1;"/></g><g class="points"/><g class="text"/></g><g class="trace scatter traceb91d33" style="stroke-miterlimit: 2;"><g class="fills"><g><path class="js-fill" d="M11.02,49.58L22.04,52.95L33.06,52.02L44.08,55.16L55.1,56.99L77.14,50.25L88.16,51.14L99.18,50.19L110.2,50.98L132.24,47.91L143.27,48.71L154.29,50.07L165.31,68.68L176.33,84.6L187.35,77.3L198.37,66.2L209.39,60.41L231.43,60.33L242.45,55.49L264.49,49.42L275.51,51.16L297.55,45.17L308.57,48.77L319.59,50.99L330.61,49.75L341.63,50.66L352.65,49.69L374.69,43.32L385.71,44.03L396.73,51.11L407.76,46.87L418.78,44.51L429.8,43.58L440.82,43.23L451.84,47.98L462.86,51.94L473.88,59.73L484.9,53.25L495.92,51L517.96,48.19L528.98,37.59L528.98,50.15L517.96,58.87L506.94,59.62L495.92,62.03L484.9,67.13L473.88,79.27L462.86,65.93L451.84,55.97L440.82,47.32L418.78,49.99L407.76,55.85L396.73,64.55L385.71,53.53L374.69,48.62L363.67,50.88L352.65,56.61L341.63,68.41L330.61,64.3L319.59,61.95L297.55,50.88L286.53,55.1L275.51,57.23L264.49,55.48L242.45,64.79L231.43,75.64L220.41,74.19L209.39,73.37L198.37,80.44L187.35,94.82L176.33,105.17L165.31,88.7L154.29,57.84L143.27,55.41L132.24,54.5L121.22,57.39L110.2,63.3L99.18,60.97L88.16,57.23L77.14,55.77L66.12,60.63L55.1,68.71L44.08,66.15L33.06,59.49L11.02,62.28Z" style="fill: rgb(68, 68, 68); fill-opacity: 0.7; stroke-width: 0;"/></g></g><g class="errorbars"/><g class="lines"><path class="js-line" d="M11.02,62.28L33.06,59.49L44.08,66.15L55.1,68.71L66.12,60.63L77.14,55.77L88.16,57.23L99.18,60.97L110.2,63.3L121.22,57.39L132.24,54.5L143.27,55.41L154.29,57.84L165.31,88.7L176.33,105.17L187.35,94.82L198.37,80.44L209.39,73.37L220.41,74.19L231.43,75.64L242.45,64.79L264.49,55.48L275.51,57.23L286.53,55.1L297.55,50.88L319.59,61.95L330.61,64.3L341.63,68.41L352.65,56.61L363.67,50.88L374.69,48.62L385.71,53.53L396.73,64.55L407.76,55.85L418.78,49.99L440.82,47.32L451.84,55.97L462.86,65.93L473.88,79.27L484.9,67.13L495.92,62.03L506.94,59.62L517.96,58.87L528.98,50.15" style="vector-effect: non-scaling-stroke; fill: none; stroke: rgb(68, 68, 68); stroke-opacity: 1; stroke-width: 0px; opacity: 1;"/></g><g class="points"/><g class="text"/></g><g class="trace scatter trace4e578c" style="stroke-miterlimit: 2;"><g class="fills"/><g class="errorbars"/><g class="lines"><path class="js-line" d="M11.02,49.58L22.04,52.95L33.06,52.02L44.08,55.16L55.1,56.99L77.14,50.25L88.16,51.14L99.18,50.19L110.2,50.98L132.24,47.91L143.27,48.71L154.29,50.07L165.31,68.68L176.33,84.6L187.35,77.3L198.37,66.2L209.39,60.41L231.43,60.33L242.45,55.49L264.49,49.42L275.51,51.16L297.55,45.17L308.57,48.77L319.59,50.99L330.61,49.75L341.63,50.66L352.65,49.69L374.69,43.32L385.71,44.03L396.73,51.11L407.76,46.87L418.78,44.51L429.8,43.58L440.82,43.23L451.84,47.98L462.86,51.94L473.88,59.73L484.9,53.25L495.92,51L517.96,48.19L528.98,37.59" style="vector-effect: non-scaling-stroke; fill: none; stroke: rgb(68, 68, 68); stroke-opacity: 1; stroke-width: 0px; opacity: 1;"/></g><g class="points"/><g class="text"/></g></g></g><g class="overplot"/><path class="xlines-above crisp" d="M0,0" style="fill: none;"/><path class="ylines-above crisp" d="M0,0" style="fill: none;"/><g class="overlines-above"/><g class="xaxislayer-above"><g class="xtick"><text text-anchor="middle" x="0" y="433" transform="translate(80,0)" style="font-family: 'Open Sans', verdana, arial, sans-serif; font-size: 12px; fill: rgb(42, 63, 95); fill-opacity: 1; white-space: pre; opacity: 1;">0</text></g><g class="xtick"><text text-anchor="middle" x="0" y="433" style="font-family: 'Open Sans', verdana, arial, sans-serif; font-size: 12px; fill: rgb(42, 63, 95); fill-opacity: 1; white-space: pre; opacity: 1;" transform="translate(168.16,0)">0.2</text></g><g class="xtick"><text text-anchor="middle" x="0" y="433" style="font-family: 'Open Sans', verdana, arial, sans-serif; font-size: 12px; fill: rgb(42, 63, 95); fill-opacity: 1; white-space: pre; opacity: 1;" transform="translate(256.33000000000004,0)">0.4</text></g><g class="xtick"><text text-anchor="middle" x="0" y="433" style="font-family: 'Open Sans', verdana, arial, sans-serif; font-size: 12px; fill: rgb(42, 63, 95); fill-opacity: 1; white-space: pre; opacity: 1;" transform="translate(344.49,0)">0.6</text></g><g class="xtick"><text text-anchor="middle" x="0" y="433" style="font-family: 'Open Sans', verdana, arial, sans-serif; font-size: 12px; fill: rgb(42, 63, 95); fill-opacity: 1; white-space: pre; opacity: 1;" transform="translate(432.65,0)">0.8</text></g><g class="xtick"><text text-anchor="middle" x="0" y="433" style="font-family: 'Open Sans', verdana, arial, sans-serif; font-size: 12px; fill: rgb(42, 63, 95); fill-opacity: 1; white-space: pre; opacity: 1;" transform="translate(520.8199999999999,0)">1</text></g><g class="xtick"><text text-anchor="middle" x="0" y="433" style="font-family: 'Open Sans', verdana, arial, sans-serif; font-size: 12px; fill: rgb(42, 63, 95); fill-opacity: 1; white-space: pre; opacity: 1;" transform="translate(608.98,0)">1.2</text></g></g><g class="yaxislayer-above"><g class="ytick"><text text-anchor="end" x="79" y="4.199999999999999" transform="translate(0,397.57)" style="font-family: 'Open Sans', verdana, arial, sans-serif; font-size: 12px; fill: rgb(42, 63, 95); fill-opacity: 1; white-space: pre; opacity: 1;">458.4B</text></g><g class="ytick"><text text-anchor="end" x="79" y="4.199999999999999" style="font-family: 'Open Sans', verdana, arial, sans-serif; font-size: 12px; fill: rgb(42, 63, 95); fill-opacity: 1; white-space: pre; opacity: 1;" transform="translate(0,357.49)">458.6B</text></g><g class="ytick"><text text-anchor="end" x="79" y="4.199999999999999" style="font-family: 'Open Sans', verdana, arial, sans-serif; font-size: 12px; fill: rgb(42, 63, 95); fill-opacity: 1; white-space: pre; opacity: 1;" transform="translate(0,317.41999999999996)">458.8B</text></g><g class="ytick"><text text-anchor="end" x="79" y="4.199999999999999" style="font-family: 'Open Sans', verdana, arial, sans-serif; font-size: 12px; fill: rgb(42, 63, 95); fill-opacity: 1; white-space: pre; opacity: 1;" transform="translate(0,277.34000000000003)">459B</text></g><g class="ytick"><text text-anchor="end" x="79" y="4.199999999999999" style="font-family: 'Open Sans', verdana, arial, sans-serif; font-size: 12px; fill: rgb(42, 63, 95); fill-opacity: 1; white-space: pre; opacity: 1;" transform="translate(0,237.27)">459.2B</text></g><g class="ytick"><text text-anchor="end" x="79" y="4.199999999999999" style="font-family: 'Open Sans', verdana, arial, sans-serif; font-size: 12px; fill: rgb(42, 63, 95); fill-opacity: 1; white-space: pre; opacity: 1;" transform="translate(0,197.2)">459.4B</text></g><g class="ytick"><text text-anchor="end" x="79" y="4.199999999999999" style="font-family: 'Open Sans', verdana, arial, sans-serif; font-size: 12px; fill: rgb(42, 63, 95); fill-opacity: 1; white-space: pre; opacity: 1;" transform="translate(0,157.12)">459.6B</text></g><g class="ytick"><text text-anchor="end" x="79" y="4.199999999999999" style="font-family: 'Open Sans', verdana, arial, sans-serif; font-size: 12px; fill: rgb(42, 63, 95); fill-opacity: 1; white-space: pre; opacity: 1;" transform="translate(0,117.05)">459.8B</text></g></g><g class="overaxes-above"/></g></g><g class="polarlayer"/><g class="smithlayer"/><g class="ternarylayer"/><g class="geolayer"/><g class="funnelarealayer"/><g class="pielayer"/><g class="iciclelayer"/><g class="treemaplayer"/><g class="sunburstlayer"/><g class="glimages"/><defs id="topdefs-1221fb"><g class="clips"/></defs><g class="layer-above"><g class="imagelayer"/><g class="shapelayer"/></g><g class="infolayer"><g class="g-gtitle"><text class="gtitle" x="35" y="50" text-anchor="start" dy="0em" style="font-family: 'Open Sans', verdana, arial, sans-serif; font-size: 17px; fill: rgb(42, 63, 95); opacity: 1; font-weight: normal; white-space: pre;">Exchange current density (Am-3)</text></g><g class="g-xtitle"><text class="xtitle" x="350" y="460.8" text-anchor="middle" style="font-family: 'Open Sans', verdana, arial, sans-serif; font-size: 14px; fill: rgb(42, 63, 95); opacity: 1; font-weight: normal; white-space: pre;">Distance from anode (µm)</text></g><g class="g-ytitle" transform="translate(2.9091796875,0)"><text class="ytitle" transform="rotate(-90,11.090625000000003,260)" x="11.090625000000003" y="260" text-anchor="middle" style="font-family: 'Open Sans', verdana, arial, sans-serif; font-size: 14px; fill: rgb(42, 63, 95); opacity: 1; font-weight: normal; white-space: pre;">Exchange current density (A/m3)</text></g></g></svg>