<svg class="main-svg" xmlns="http://www.w3.org/2000/svg" xmlns:xlink="http://www.w3.org/1999/xlink" width="700" height="500" style="" viewBox="0 0 700 500"><rect x="0" y="0" width="700" height="500" style="fill: rgb(255, 255, 255); fill-opacity: 1;"/><defs id="defs-eeaeca"><g class="clips"><clipPath id="clipeeaecaxyplot" class="plotclip"><rect width="523" height="320"/></clipPath><clipPath class="axesclip" id="clipeeaecax"><rect x="97" y="0" width="523" height="500"/></clipPath><clipPath class="axesclip" id="clipeeaecay"><rect x="0" y="100" width="700" height="320"/></clipPath><clipPath class="axesclip" id="clipeeaecaxy"><rect x="97" y="100" width="523" height="320"/></clipPath></g><g class="gradients"/><g class="patterns"/></defs><g class="bglayer"><rect class="bg" x="97" y="100" width="523" height="320" style="fill: rgb(229, 236, 246); fill-opacity: 1; stroke-width: 0;"/></g><g class="layer-below"><g class="imagelayer"/><g class="shapelayer"/></g><g class="cartesianlayer"><g class="subplot xy"><g class="layer-subplot"><g class="shapelayer"/><g class="imagelayer"/></g><g class="minor-gridlayer"><g class="x"/><g class="y"/></g><g class="gridlayer"><g class="x"><path class="xgrid crisp" transform="translate(167.2,0)" d="M0,100v320" style="stroke: rgb(255, 255, 255); stroke-opacity: 1; stroke-width: 1px;"/><path class="xgrid crisp" transform="translate(237.4,0)" d="M0,100v320" style="stroke: rgb(255, 255, 255); stroke-opacity: 1; stroke-width: 1px;"/><path class="xgrid crisp" transform="translate(307.6,0)" d="M0,100v320" style="stroke: rgb(255, 255, 255); stroke-opacity: 1; stroke-width: 1px;"/><path class="xgrid crisp" transform="translate(377.81,0)" d="M0,100v320" style="stroke: rgb(255, 255, 255); stroke-opacity: 1; stroke-width: 1px;"/><path class="xgrid crisp" transform="translate(448.01,0)" d="M0,100v320" style="stroke: rgb(255, 255, 255); stroke-opacity: 1; stroke-width: 1px;"/><path class="xgrid crisp" transform="translate(518.21,0)" d="M0,100v320" style="stroke: rgb(255, 255, 255); stroke-opacity: 1; stroke-width: 1px;"/><path class="xgrid crisp" transform="translate(588.4100000000001,0)" d="M0,100v320" style="stroke: rgb(255, 255, 255); stroke-opacity: 1; stroke-width: 1px;"/></g><g class="y"><path class="ygrid crisp" transform="translate(0,345)" d="M97,0h523" style="stroke: rgb(255, 255, 255); stroke-opacity: 1; stroke-width: 1px;"/><path class="ygrid crisp" transform="translate(0,260.6)" d="M97,0h523" style="stroke: rgb(255, 255, 255); stroke-opacity: 1; stroke-width: 1px;"/><path class="ygrid crisp" transform="translate(0,176.20999999999998)" d="M97,0h523" style="stroke: rgb(255, 255, 255); stroke-opacity: 1; stroke-width: 1px;"/></g></g><g class="zerolinelayer"><path class="xzl zl crisp" transform="translate(97,0)" d="M0,100v320" style="stroke: rgb(255, 255, 255); stroke-opacity: 1; stroke-width: 2px;"/></g><path class="xlines-below"/><path class="ylines-below"/><g class="overlines-below"/><g class="xaxislayer-below"/><g class="yaxislayer-below"/><g class="overaxes-below"/><g class="plot" transform="translate(97,100)" clip-path="url(#clipeeaecaxyplot)"><g class="scatterlayer mlayer"><g class="trace scatter tracecae7af" style="stroke-miterlimit: 2;"><g class="fills"><g><path class="js-fill" d="M3.51,102.08L7.02,104.56L10.53,104.56L42.12,104.98L45.63,103.42L49.14,103.21L52.65,102.09L56.16,101.68L59.67,99.22L66.69,96.95L70.2,102.67L80.73,101.07L84.24,100.88L94.77,101.43L98.28,100.13L108.81,100.38L112.32,102.03L119.34,102.76L122.85,101.06L140.4,100.05L143.91,140.13L150.93,139.98L154.44,139.76L157.95,137.97L161.46,138.1L171.99,137.91L175.5,137.02L179.01,96.94L182.52,96.29L186.03,136.13L189.54,136.26L193.05,135.84L196.56,129.73L203.58,128.56L207.09,128.06L210.6,132.4L214.11,131.56L221.13,131.03L224.64,129.13L228.15,123.26L231.66,121.77L235.17,121.7L238.68,115.95L252.72,115.35L256.23,114.88L270.28,113.42L273.79,137.18L277.3,148.64L280.81,147.64L284.32,147.02L287.83,140.34L291.34,138.3L294.85,138.34L305.38,138.47L308.89,297.57L312.4,297.69L315.91,304L319.42,304L322.93,302.66L333.46,302.06L336.97,297.76L340.48,294.67L343.99,122.34L347.5,115.08L351.01,114.59L358.03,114.71L361.54,115.97L365.05,117.04L368.56,117.07L382.6,116.81L386.11,109.34L396.64,108.35L400.15,89.56L410.68,90.22L414.19,93.03L417.7,93.39L421.21,92.06L424.72,81.81L428.23,82.62L431.74,82.48L435.25,76.02L438.76,75.66L442.27,73.9L445.78,72.94L449.29,73.09L463.33,72.51L466.84,65.37L470.35,65.65L473.86,69.1L480.88,68.18L484.39,77.66L487.9,79.53L491.41,79.55L494.92,79.45L498.43,80.17L508.96,80.85L512.47,71.1L515.98,71.03L519.49,49.58L519.49,16L512.47,16.54L508.96,17.23L491.41,18.78L487.9,25.65L480.88,30.1L477.37,31.51L473.86,32.08L470.35,32.12L463.33,32.92L459.82,36.43L456.31,38.9L452.8,41.21L449.29,41.95L445.78,36.95L442.27,37.16L438.76,40.52L431.74,41.42L428.23,43.81L421.21,44.39L417.7,46.24L410.68,48.13L407.17,54.94L400.15,56.27L396.64,56.64L386.11,56.37L382.6,56.37L368.56,57.34L365.05,57.82L361.54,57.18L358.03,58.66L354.52,63.42L351.01,63.38L340.48,65.99L336.97,66.9L333.46,69.17L329.95,67.43L326.44,67.19L322.93,67.65L315.91,69.28L312.4,70.96L301.87,72.98L298.36,73.44L291.34,77.02L287.83,79.39L270.28,81.21L266.77,81.8L259.74,82.5L256.23,82.21L231.66,82.22L228.15,81.54L214.11,81.95L210.6,82.08L196.56,81.31L193.05,81.38L186.03,79.63L182.52,79.19L175.5,78.96L171.99,79.29L161.46,79.42L157.95,81.41L143.91,82.13L140.4,81.28L133.38,80.79L129.87,80.78L126.36,84.1L122.85,80.24L112.32,80.07L108.81,80.02L105.3,78.66L101.79,77.96L98.28,75.09L94.77,72.35L91.26,79.96L87.75,73.84L84.24,73.94L80.73,76.24L73.71,73.24L70.2,72.46L63.18,71.77L59.67,71.73L56.16,70.31L52.65,69.29L21.06,68.07L17.55,69.72L10.53,69.47L7.02,66.4L3.51,66.4Z" style="fill: rgb(68, 68, 68); fill-opacity: 0.3; stroke-width: 0;"/></g></g><g class="errorbars"/><g class="lines"><path class="js-line" d="M3.51,66.4L7.02,66.4L10.53,69.47L17.55,69.72L21.06,68.07L52.65,69.29L56.16,70.31L59.67,71.73L63.18,71.77L70.2,72.46L73.71,73.24L80.73,76.24L84.24,73.94L87.75,73.84L91.26,79.96L94.77,72.35L98.28,75.09L101.79,77.96L105.3,78.66L108.81,80.02L112.32,80.07L122.85,80.24L126.36,84.1L129.87,80.78L133.38,80.79L140.4,81.28L143.91,82.13L157.95,81.41L161.46,79.42L171.99,79.29L175.5,78.96L182.52,79.19L186.03,79.63L193.05,81.38L196.56,81.31L210.6,82.08L214.11,81.95L228.15,81.54L231.66,82.22L256.23,82.21L259.74,82.5L266.77,81.8L270.28,81.21L287.83,79.39L291.34,77.02L298.36,73.44L301.87,72.98L312.4,70.96L315.91,69.28L322.93,67.65L326.44,67.19L329.95,67.43L333.46,69.17L336.97,66.9L340.48,65.99L351.01,63.38L354.52,63.42L358.03,58.66L361.54,57.18L365.05,57.82L368.56,57.34L382.6,56.37L386.11,56.37L396.64,56.64L400.15,56.27L407.17,54.94L410.68,48.13L417.7,46.24L421.21,44.39L428.23,43.81L431.74,41.42L438.76,40.52L442.27,37.16L445.78,36.95L449.29,41.95L452.8,41.21L456.31,38.9L459.82,36.43L463.33,32.92L470.35,32.12L473.86,32.08L477.37,31.51L480.88,30.1L487.9,25.65L491.41,18.78L508.96,17.23L512.47,16.54L519.49,16" style="vector-effect: non-scaling-stroke; fill: none; stroke: rgb(68, 68, 68); stroke-opacity: 1; stroke-width: 0px; opacity: 1;"/></g><g class="points"/><g class="text"/></g><g class="trace scatter trace01c481" style="stroke-miterlimit: 2;"><g class="fills"/><g class="errorbars"/><g class="lines"><path class="js-line" d="M3.51,102.08L7.02,104.56L10.53,104.56L42.12,104.98L45.63,103.42L49.14,103.21L52.65,102.09L56.16,101.68L59.67,99.22L66.69,96.95L70.2,102.67L80.73,101.07L84.24,100.88L94.77,101.43L98.28,100.13L108.81,100.38L112.32,102.03L119.34,102.76L122.85,101.06L140.4,100.05L143.91,140.13L150.93,139.98L154.44,139.76L157.95,137.97L161.46,138.1L171.99,137.91L175.5,137.02L179.01,96.94L182.52,96.29L186.03,136.13L189.54,136.26L193.05,135.84L196.56,129.73L203.58,128.56L207.09,128.06L210.6,132.4L214.11,131.56L221.13,131.03L224.64,129.13L228.15,123.26L231.66,121.77L235.17,121.7L238.68,115.95L252.72,115.35L256.23,114.88L270.28,113.42L273.79,137.18L277.3,148.64L280.81,147.64L284.32,147.02L287.83,140.34L291.34,138.3L294.85,138.34L305.38,138.47L308.89,297.57L312.4,297.69L315.91,304L319.42,304L322.93,302.66L333.46,302.06L336.97,297.76L340.48,294.67L343.99,122.34L347.5,115.08L351.01,114.59L358.03,114.71L361.54,115.97L365.05,117.04L368.56,117.07L382.6,116.81L386.11,109.34L396.64,108.35L400.15,89.56L410.68,90.22L414.19,93.03L417.7,93.39L421.21,92.06L424.72,81.81L428.23,82.62L431.74,82.48L435.25,76.02L438.76,75.66L442.27,73.9L445.78,72.94L449.29,73.09L463.33,72.51L466.84,65.37L470.35,65.65L473.86,69.1L480.88,68.18L484.39,77.66L487.9,79.53L491.41,79.55L494.92,79.45L498.43,80.17L508.96,80.85L512.47,71.1L515.98,71.03L519.49,49.58" style="vector-effect: non-scaling-stroke; fill: none; stroke: rgb(68, 68, 68); stroke-opacity: 1; stroke-width: 0px; opacity: 1;"/></g><g class="points"/><g class="text"/></g><g class="trace scatter tracedd899a" style="stroke-miterlimit: 2; opacity: 1;"><g class="fills"/><g class="errorbars"/><g class="lines"><path class="js-line" d="M3.51,81.83L7.02,83.25L10.53,83.43L14.04,83.42L17.55,82.05L21.06,82.11L24.57,85.89L28.08,86.47L31.59,86.06L35.1,85.37L38.61,83.82L42.12,83.22L45.63,84.49L52.65,84.6L56.16,86.36L59.67,88.72L63.18,89.11L66.69,87.95L70.2,88.17L73.71,89.38L77.22,88.93L84.24,88.05L87.75,88.74L94.77,89.54L98.28,89.83L119.34,90.54L122.85,89.67L129.87,90.63L133.38,90.58L140.4,89.84L143.91,91.7L147.42,92.46L150.93,90.89L154.44,90.48L157.95,91.4L161.46,91.92L164.97,91.48L168.48,91.96L171.99,91.33L175.5,89.6L179.01,89.09L186.03,88.88L189.54,93.65L193.05,93.43L196.56,90.04L203.58,92.18L207.09,90.52L210.6,88.57L214.11,88.94L217.62,90.37L221.13,90.58L224.64,89.27L228.15,89.05L235.17,87.2L238.68,88.01L242.19,89.01L245.7,88.87L263.26,89.22L266.77,90.06L284.32,93.44L287.83,92.37L291.34,91.85L294.85,92.83L298.36,94.66L301.87,94.2L305.38,92.11L308.89,97.52L312.4,101.65L315.91,97.97L319.42,101.01L322.93,113.19L326.44,110.69L329.95,105.02L333.46,106.22L336.97,102.32L340.48,97.6L343.99,90.69L347.5,88.71L351.01,89.98L354.52,89.9L358.03,87.38L361.54,86.29L365.05,86.08L372.07,83.29L375.58,83.15L379.09,81.4L382.6,78L386.11,77.24L389.62,80.92L393.13,80.16L396.64,74.93L407.17,72.47L410.68,70.99L417.7,70.34L421.21,66.66L424.72,65.18L428.23,64.94L435.25,60.81L438.76,59.95L445.78,55.36L449.29,56.45L452.8,56.93L456.31,56.51L466.84,47.17L470.35,46.37L480.88,47.13L484.39,44.8L491.41,41.37L494.92,38.4L498.43,35.45L501.94,35.4L505.45,34.52L508.96,31.36L515.98,23.71L519.49,19.37" style="vector-effect: non-scaling-stroke; fill: none; stroke: rgb(31, 119, 180); stroke-opacity: 1; stroke-width: 2px; opacity: 1;"/></g><g class="points"/><g class="text"/></g><g class="trace scatter tracece1326" style="stroke-miterlimit: 2;"><g class="fills"><g><path class="js-fill" d="M3.51,80.31L7.02,81.91L10.53,81.95L17.55,80.47L21.06,80.43L24.57,84.29L28.08,85.19L35.1,84.26L38.61,82.98L42.12,82.48L45.63,83.81L52.65,83.89L56.16,85.56L59.67,88.01L63.18,88.43L66.69,87.23L70.2,87.39L73.71,88.53L77.22,88.21L84.24,87.42L87.75,88.13L94.77,88.9L98.28,89.32L108.81,90.14L112.32,89.51L119.34,89.83L122.85,89.1L129.87,90.01L133.38,89.95L140.4,89.39L143.91,90.57L147.42,91.19L150.93,89.98L154.44,89.77L157.95,90.56L168.48,90.64L171.99,89.99L175.5,88.75L179.01,88.46L186.03,87.72L189.54,91.47L193.05,91.24L196.56,88.59L203.58,90.75L207.09,89.34L210.6,87.73L214.11,87.98L217.62,89.2L221.13,89.36L224.64,88.25L228.15,88.22L235.17,86.59L238.68,87.08L242.19,87.95L245.7,87.85L263.26,88.26L266.77,89.16L284.32,91.99L287.83,90.95L291.34,90.52L294.85,91.39L298.36,92.96L301.87,92.28L305.38,90.35L308.89,93.25L312.4,95.79L315.91,93.04L319.42,95.12L322.93,104.72L326.44,103.96L329.95,100.37L333.46,100.16L336.97,96.14L340.48,93.29L343.99,89.3L347.5,87.33L351.01,88.4L354.52,88.23L358.03,85.84L361.54,84.69L365.05,84.39L372.07,81.77L375.58,81.66L379.09,79.93L382.6,76.67L386.11,75.97L389.62,79.24L393.13,78.44L396.64,73.82L403.66,73L407.17,71.7L410.68,70.04L414.19,69.72L417.7,68.95L421.21,65.53L424.72,63.95L428.23,63.69L435.25,59.43L438.76,58.58L445.78,53.93L449.29,55.15L452.8,55.69L456.31,55.46L466.84,45.94L470.35,45.28L480.88,45.96L484.39,43.54L491.41,39.66L494.92,36.57L498.43,33.77L501.94,33.62L505.45,32.52L508.96,29.81L512.47,26.74L515.98,22.45L519.49,18.67L519.49,20.08L515.98,24.98L508.96,32.92L505.45,36.53L501.94,37.19L498.43,37.13L491.41,43.08L487.9,44.26L480.88,48.3L477.37,48.06L470.35,47.45L466.84,48.39L456.31,57.56L452.8,58.18L449.29,57.76L445.78,56.78L438.76,61.32L435.25,62.18L428.23,66.2L424.72,66.41L421.21,67.79L417.7,71.73L414.19,72.12L410.68,71.93L396.64,76.04L393.13,81.89L389.62,82.6L386.11,78.52L382.6,79.34L379.09,82.87L375.58,84.64L372.07,84.8L365.05,87.78L361.54,87.88L358.03,88.93L354.52,91.58L351.01,91.57L347.5,90.09L343.99,92.07L340.48,101.92L336.97,108.5L333.46,112.28L329.95,109.67L326.44,117.43L322.93,121.66L319.42,106.89L315.91,102.91L312.4,107.5L308.89,101.79L305.38,93.87L301.87,96.11L298.36,96.36L294.85,94.27L291.34,93.18L287.83,93.78L284.32,94.88L280.81,93.44L277.3,92.89L266.77,90.97L263.26,90.17L245.7,89.9L242.19,90.06L235.17,87.8L231.66,89.23L228.15,89.89L224.64,90.28L221.13,91.81L217.62,91.55L214.11,89.9L210.6,89.41L207.09,91.69L203.58,93.61L200.07,92.13L196.56,91.5L193.05,95.62L189.54,95.84L186.03,90.04L182.52,89.2L179.01,89.72L175.5,90.45L171.99,92.68L168.48,93.27L164.97,92.6L161.46,93.06L157.95,92.24L154.44,91.18L150.93,91.79L147.42,93.73L143.91,92.82L140.4,90.28L133.38,91.2L129.87,91.25L122.85,90.23L119.34,91.24L98.28,90.34L94.77,90.17L87.75,89.34L84.24,88.68L77.22,89.66L73.71,90.23L70.2,88.96L66.69,88.67L63.18,89.8L59.67,89.43L56.16,87.17L52.65,85.32L49.14,85.2L45.63,85.16L42.12,83.96L38.61,84.66L35.1,86.49L31.59,87.33L24.57,87.5L21.06,83.8L17.55,83.63L14.04,85.69L10.53,84.91L7.02,84.58L3.51,83.36Z" style="fill: rgb(68, 68, 68); fill-opacity: 0.7; stroke-width: 0;"/></g></g><g class="errorbars"/><g class="lines"><path class="js-line" d="M3.51,83.36L7.02,84.58L10.53,84.91L14.04,85.69L17.55,83.63L21.06,83.8L24.57,87.5L31.59,87.33L35.1,86.49L38.61,84.66L42.12,83.96L45.63,85.16L49.14,85.2L52.65,85.32L56.16,87.17L59.67,89.43L63.18,89.8L66.69,88.67L70.2,88.96L73.71,90.23L77.22,89.66L84.24,88.68L87.75,89.34L94.77,90.17L98.28,90.34L119.34,91.24L122.85,90.23L129.87,91.25L133.38,91.2L140.4,90.28L143.91,92.82L147.42,93.73L150.93,91.79L154.44,91.18L157.95,92.24L161.46,93.06L164.97,92.6L168.48,93.27L171.99,92.68L175.5,90.45L179.01,89.72L182.52,89.2L186.03,90.04L189.54,95.84L193.05,95.62L196.56,91.5L200.07,92.13L203.58,93.61L207.09,91.69L210.6,89.41L214.11,89.9L217.62,91.55L221.13,91.81L224.64,90.28L228.15,89.89L231.66,89.23L235.17,87.8L242.19,90.06L245.7,89.9L263.26,90.17L266.77,90.97L277.3,92.89L280.81,93.44L284.32,94.88L287.83,93.78L291.34,93.18L294.85,94.27L298.36,96.36L301.87,96.11L305.38,93.87L308.89,101.79L312.4,107.5L315.91,102.91L319.42,106.89L322.93,121.66L326.44,117.43L329.95,109.67L333.46,112.28L336.97,108.5L340.48,101.92L343.99,92.07L347.5,90.09L351.01,91.57L354.52,91.58L358.03,88.93L361.54,87.88L365.05,87.78L372.07,84.8L375.58,84.64L379.09,82.87L382.6,79.34L386.11,78.52L389.62,82.6L393.13,81.89L396.64,76.04L410.68,71.93L414.19,72.12L417.7,71.73L421.21,67.79L424.72,66.41L428.23,66.2L435.25,62.18L438.76,61.32L445.78,56.78L449.29,57.76L452.8,58.18L456.31,57.56L466.84,48.39L470.35,47.45L477.37,48.06L480.88,48.3L487.9,44.26L491.41,43.08L498.43,37.13L501.94,37.19L505.45,36.53L508.96,32.92L515.98,24.98L519.49,20.08" style="vector-effect: non-scaling-stroke; fill: none; stroke: rgb(68, 68, 68); stroke-opacity: 1; stroke-width: 0px; opacity: 1;"/></g><g class="points"/><g class="text"/></g><g class="trace scatter trace97d499" style="stroke-miterlimit: 2;"><g class="fills"/><g class="errorbars"/><g class="lines"><path class="js-line" d="M3.51,80.31L7.02,81.91L10.53,81.95L17.55,80.47L21.06,80.43L24.57,84.29L28.08,85.19L35.1,84.26L38.61,82.98L42.12,82.48L45.63,83.81L52.65,83.89L56.16,85.56L59.67,88.01L63.18,88.43L66.69,87.23L70.2,87.39L73.71,88.53L77.22,88.21L84.24,87.42L87.75,88.13L94.77,88.9L98.28,89.32L108.81,90.14L112.32,89.51L119.34,89.83L122.85,89.1L129.87,90.01L133.38,89.95L140.4,89.39L143.91,90.57L147.42,91.19L150.93,89.98L154.44,89.77L157.95,90.56L168.48,90.64L171.99,89.99L175.5,88.75L179.01,88.46L186.03,87.72L189.54,91.47L193.05,91.24L196.56,88.59L203.58,90.75L207.09,89.34L210.6,87.73L214.11,87.98L217.62,89.2L221.13,89.36L224.64,88.25L228.15,88.22L235.17,86.59L238.68,87.08L242.19,87.95L245.7,87.85L263.26,88.26L266.77,89.16L284.32,91.99L287.83,90.95L291.34,90.52L294.85,91.39L298.36,92.96L301.87,92.28L305.38,90.35L308.89,93.25L312.4,95.79L315.91,93.04L319.42,95.12L322.93,104.72L326.44,103.96L329.95,100.37L333.46,100.16L336.97,96.14L340.48,93.29L343.99,89.3L347.5,87.33L351.01,88.4L354.52,88.23L358.03,85.84L361.54,84.69L365.05,84.39L372.07,81.77L375.58,81.66L379.09,79.93L382.6,76.67L386.11,75.97L389.62,79.24L393.13,78.44L396.64,73.82L403.66,73L407.17,71.7L410.68,70.04L414.19,69.72L417.7,68.95L421.21,65.53L424.72,63.95L428.23,63.69L435.25,59.43L438.76,58.58L445.78,53.93L449.29,55.15L452.8,55.69L456.31,55.46L466.84,45.94L470.35,45.28L480.88,45.96L484.39,43.54L491.41,39.66L494.92,36.57L498.43,33.77L501.94,33.62L505.45,32.52L508.96,29.81L512.47,26.74L515.98,22.45L519.49,18.67" style="vector-effect: non-scaling-stroke; fill: none; stroke: rgb(68, 68, 68); stroke-opacity: 1; stroke-width: 0px; opacity: 1;"/></g><g class="points"/><g class="text"/></g></g></g><g class="overplot"/><path class="xlines-above crisp" d="M0,0" style="fill: none;"/><path class="ylines-above crisp" d="M0,0" style="fill: none;"/><g class="overlines-above"/><g class="xaxislayer-above"><g class="xtick"><text text-anchor="middle" x="0" y="433" transform="translate(97,0)" style="font-family: 'Open Sans', verdana, arial, sans-serif; font-size: 12px; fill: rgb(42, 63, 95); fill-opacity: 1; white-space: pre; opacity: 1;">0</text></g><g class="xtick"><text text-anchor="middle" x="0" y="433" style="font-family: 'Open Sans', verdana, arial, sans-serif; font-size: 12px; fill: rgb(42, 63, 95); fill-opacity: 1; white-space: pre; opacity: 1;" transform="translate(167.2,0)">0.5</text></g><g class="xtick"><text text-anchor="middle" x="0" y="433" style="font-family: 'Open Sans', verdana, arial, sans-serif; font-size: 12px; fill: rgb(42, 63, 95); fill-opacity: 1; white-space: pre; opacity: 1;" transform="translate(237.4,0)">1</text></g><g class="xtick"><text text-anchor="middle" x="0" y="433" style="font-family: 'Open Sans', verdana, arial, sans-serif; font-size: 12px; fill: rgb(42, 63, 95); fill-opacity: 1; white-space: pre; opacity: 1;" transform="translate(307.6,0)">1.5</text></g><g class="xtick"><text text-anchor="middle" x="0" y="433" style="font-family: 'Open Sans', verdana, arial, sans-serif; font-size: 12px; fill: rgb(42, 63, 95); fill-opacity: 1; white-space: pre; opacity: 1;" transform="translate(377.81,0)">2</text></g><g class="xtick"><text text-anchor="middle" x="0" y="433" style="font-family: 'Open Sans', verdana, arial, sans-serif; font-size: 12px; fill: rgb(42, 63, 95); fill-opacity: 1; white-space: pre; opacity: 1;" transform="translate(448.01,0)">2.5</text></g><g class="xtick"><text text-anchor="middle" x="0" y="433" style="font-family: 'Open Sans', verdana, arial, sans-serif; font-size: 12px; fill: rgb(42, 63, 95); fill-opacity: 1; white-space: pre; opacity: 1;" transform="translate(518.21,0)">3</text></g><g class="xtick"><text text-anchor="middle" x="0" y="433" style="font-family: 'Open Sans', verdana, arial, sans-serif; font-size: 12px; fill: rgb(42, 63, 95); fill-opacity: 1; white-space: pre; opacity: 1;" transform="translate(588.4100000000001,0)">3.5</text></g></g><g class="yaxislayer-above"><g class="ytick"><text text-anchor="end" x="96" y="4.199999999999999" transform="translate(0,345)" style="font-family: 'Open Sans', verdana, arial, sans-serif; font-size: 12px; fill: rgb(42, 63, 95); fill-opacity: 1; white-space: pre; opacity: 1;">2.4e+10</text></g><g class="ytick"><text text-anchor="end" x="96" y="4.199999999999999" style="font-family: 'Open Sans', verdana, arial, sans-serif; font-size: 12px; fill: rgb(42, 63, 95); fill-opacity: 1; white-space: pre; opacity: 1;" transform="translate(0,260.6)">2.45e+10</text></g><g class="ytick"><text text-anchor="end" x="96" y="4.199999999999999" style="font-family: 'Open Sans', verdana, arial, sans-serif; font-size: 12px; fill: rgb(42, 63, 95); fill-opacity: 1; white-space: pre; opacity: 1;" transform="translate(0,176.20999999999998)">2.5e+10</text></g></g><g class="overaxes-above"/></g></g><g class="polarlayer"/><g class="smithlayer"/><g class="ternarylayer"/><g class="geolayer"/><g class="funnelarealayer"/><g class="pielayer"/><g class="iciclelayer"/><g class="treemaplayer"/><g class="sunburstlayer"/><g class="glimages"/><defs id="topdefs-eeaeca"><g class="clips"/></defs><g class="layer-above"><g class="imagelayer"/><g class="shapelayer"/></g><g class="infolayer"><g class="g-gtitle"><text class="gtitle" x="35" y="50" text-anchor="start" dy="0em" style="font-family: 'Open Sans', verdana, arial, sans-serif; font-size: 17px; fill: rgb(42, 63, 95); opacity: 1; font-weight: normal; white-space: pre;">Exchange current density</text></g><g class="g-xtitle"><text class="xtitle" x="358.5" y="460.8" text-anchor="middle" style="font-family: 'Open Sans', verdana, arial, sans-serif; font-size: 14px; fill: rgb(42, 63, 95); opacity: 1; font-weight: normal; white-space: pre;">Distance from anode (µm)</text></g><g class="g-ytitle" transform="translate(2.2841796875,0)"><text class="ytitle" transform="rotate(-90,11.715625000000003,260)" x="11.715625000000003" y="260" text-anchor="middle" style="font-family: 'Open Sans', verdana, arial, sans-serif; font-size: 14px; fill: rgb(42, 63, 95); opacity: 1; font-weight: normal; white-space: pre;">Exchange current density (A/m3)</text></g></g></svg>