<svg class="main-svg" xmlns="http://www.w3.org/2000/svg" xmlns:xlink="http://www.w3.org/1999/xlink" width="700" height="500" style="" viewBox="0 0 700 500"><rect x="0" y="0" width="700" height="500" style="fill: rgb(255, 255, 255); fill-opacity: 1;"/><defs id="defs-515fa9"><g class="clips"><clipPath id="clip515fa9xyplot" class="plotclip"><rect width="532" height="320"/></clipPath><clipPath class="axesclip" id="clip515fa9x"><rect x="88" y="0" width="532" height="500"/></clipPath><clipPath class="axesclip" id="clip515fa9y"><rect x="0" y="100" width="700" height="320"/></clipPath><clipPath class="axesclip" id="clip515fa9xy"><rect x="88" y="100" width="532" height="320"/></clipPath></g><g class="gradients"/><g class="patterns"/></defs><g class="bglayer"><rect class="bg" x="88" y="100" width="532" height="320" style="fill: rgb(229, 236, 246); fill-opacity: 1; stroke-width: 0;"/></g><g class="layer-below"><g class="imagelayer"/><g class="shapelayer"/></g><g class="cartesianlayer"><g class="subplot xy"><g class="layer-subplot"><g class="shapelayer"/><g class="imagelayer"/></g><g class="minor-gridlayer"><g class="x"/><g class="y"/></g><g class="gridlayer"><g class="x"><path class="xgrid crisp" transform="translate(195.47,0)" d="M0,100v320" style="stroke: rgb(255, 255, 255); stroke-opacity: 1; stroke-width: 1px;"/><path class="xgrid crisp" transform="translate(302.95,0)" d="M0,100v320" style="stroke: rgb(255, 255, 255); stroke-opacity: 1; stroke-width: 1px;"/><path class="xgrid crisp" transform="translate(410.42,0)" d="M0,100v320" style="stroke: rgb(255, 255, 255); stroke-opacity: 1; stroke-width: 1px;"/><path class="xgrid crisp" transform="translate(517.9,0)" d="M0,100v320" style="stroke: rgb(255, 255, 255); stroke-opacity: 1; stroke-width: 1px;"/></g><g class="y"><path class="ygrid crisp" transform="translate(0,356)" d="M88,0h532" style="stroke: rgb(255, 255, 255); stroke-opacity: 1; stroke-width: 1px;"/></g></g><g class="zerolinelayer"><path class="xzl zl crisp" transform="translate(88,0)" d="M0,100v320" style="stroke: rgb(255, 255, 255); stroke-opacity: 1; stroke-width: 2px;"/></g><path class="xlines-below"/><path class="ylines-below"/><g class="overlines-below"/><g class="xaxislayer-below"/><g class="yaxislayer-below"/><g class="overaxes-below"/><g class="plot" transform="translate(88,100)" clip-path="url(#clip515fa9xyplot)"><g class="scatterlayer mlayer"><g class="trace scatter trace03c416" style="stroke-miterlimit: 2;"><g class="fills"><g><path class="js-fill" d="M0,256L532,256L532,256L0,256Z" style="fill: rgb(68, 68, 68); fill-opacity: 0.3; stroke-width: 0;"/></g></g><g class="errorbars"/><g class="lines"><path class="js-line" d="M0,256L532,256" style="vector-effect: non-scaling-stroke; fill: none; stroke: rgb(68, 68, 68); stroke-opacity: 1; stroke-width: 0px; opacity: 1;"/></g><g class="points"/><g class="text"/></g><g class="trace scatter tracecd1b89" style="stroke-miterlimit: 2;"><g class="fills"/><g class="errorbars"/><g class="lines"><path class="js-line" d="M0,256L532,256" style="vector-effect: non-scaling-stroke; fill: none; stroke: rgb(68, 68, 68); stroke-opacity: 1; stroke-width: 0px; opacity: 1;"/></g><g class="points"/><g class="text"/></g><g class="trace scatter tracefa2e1d" style="stroke-miterlimit: 2; opacity: 1;"><g class="fills"/><g class="errorbars"/><g class="lines"><path class="js-line" d="M0,256L5.37,128L10.75,256L48.36,256L53.74,128L59.11,256L64.48,256L75.23,256L80.61,128L96.73,128L102.1,256L118.22,256L123.6,128L128.97,256L134.34,256L204.2,256L209.58,128L220.32,128L225.7,0L231.07,256L236.44,0L241.82,256L247.19,256L274.06,256L279.43,128L284.81,256L290.18,256L300.93,256L306.3,128L311.68,256L317.05,256L343.92,256L349.29,128L354.67,256L360.04,256L370.79,256L376.16,128L381.54,256L386.91,256L440.65,256L446.02,128L456.77,128L462.14,256L467.52,128L472.89,128L478.26,256L483.64,256L499.76,256L505.13,128L510.51,256L515.88,256L521.25,128L526.63,128L532,256" style="vector-effect: non-scaling-stroke; fill: none; stroke: rgb(31, 119, 180); stroke-opacity: 1; stroke-width: 2px; opacity: 1;"/></g><g class="points"/><g class="text"/></g><g class="trace scatter traceee6951" style="stroke-miterlimit: 2;"><g class="fills"><g><path class="js-fill" d="M0,256L5.37,128L10.75,256L48.36,256L53.74,128L59.11,256L64.48,256L75.23,256L80.61,128L96.73,128L102.1,256L118.22,256L123.6,128L128.97,256L134.34,256L204.2,256L209.58,128L220.32,128L225.7,0L231.07,256L236.44,0L241.82,256L247.19,256L274.06,256L279.43,128L284.81,256L290.18,256L300.93,256L306.3,128L311.68,256L317.05,256L343.92,256L349.29,128L354.67,256L360.04,256L370.79,256L376.16,128L381.54,256L386.91,256L440.65,256L446.02,128L456.77,128L462.14,256L467.52,128L472.89,128L478.26,256L483.64,256L499.76,256L505.13,128L510.51,256L515.88,256L521.25,128L526.63,128L532,256L532,256L526.63,128L521.25,128L515.88,256L510.51,256L505.13,128L499.76,256L483.64,256L478.26,256L472.89,128L467.52,128L462.14,256L456.77,128L446.02,128L440.65,256L386.91,256L381.54,256L376.16,128L370.79,256L360.04,256L354.67,256L349.29,128L343.92,256L317.05,256L311.68,256L306.3,128L300.93,256L290.18,256L284.81,256L279.43,128L274.06,256L247.19,256L241.82,256L236.44,0L231.07,256L225.7,0L220.32,128L209.58,128L204.2,256L134.34,256L128.97,256L123.6,128L118.22,256L102.1,256L96.73,128L80.61,128L75.23,256L64.48,256L59.11,256L53.74,128L48.36,256L10.75,256L5.37,128L0,256Z" style="fill: rgb(68, 68, 68); fill-opacity: 0.7; stroke-width: 0;"/></g></g><g class="errorbars"/><g class="lines"><path class="js-line" d="M0,256L5.37,128L10.75,256L48.36,256L53.74,128L59.11,256L64.48,256L75.23,256L80.61,128L96.73,128L102.1,256L118.22,256L123.6,128L128.97,256L134.34,256L204.2,256L209.58,128L220.32,128L225.7,0L231.07,256L236.44,0L241.82,256L247.19,256L274.06,256L279.43,128L284.81,256L290.18,256L300.93,256L306.3,128L311.68,256L317.05,256L343.92,256L349.29,128L354.67,256L360.04,256L370.79,256L376.16,128L381.54,256L386.91,256L440.65,256L446.02,128L456.77,128L462.14,256L467.52,128L472.89,128L478.26,256L483.64,256L499.76,256L505.13,128L510.51,256L515.88,256L521.25,128L526.63,128L532,256" style="vector-effect: non-scaling-stroke; fill: none; stroke: rgb(68, 68, 68); stroke-opacity: 1; stroke-width: 0px; opacity: 1;"/></g><g class="points"/><g class="text"/></g><g class="trace scatter tracefdd296" style="stroke-miterlimit: 2;"><g class="fills"/><g class="errorbars"/><g class="lines"><path class="js-line" d="M0,256L5.37,128L10.75,256L48.36,256L53.74,128L59.11,256L64.48,256L75.23,256L80.61,128L96.73,128L102.1,256L118.22,256L123.6,128L128.97,256L134.34,256L204.2,256L209.58,128L220.32,128L225.7,0L231.07,256L236.44,0L241.82,256L247.19,256L274.06,256L279.43,128L284.81,256L290.18,256L300.93,256L306.3,128L311.68,256L317.05,256L343.92,256L349.29,128L354.67,256L360.04,256L370.79,256L376.16,128L381.54,256L386.91,256L440.65,256L446.02,128L456.77,128L462.14,256L467.52,128L472.89,128L478.26,256L483.64,256L499.76,256L505.13,128L510.51,256L515.88,256L521.25,128L526.63,128L532,256" style="vector-effect: non-scaling-stroke; fill: none; stroke: rgb(68, 68, 68); stroke-opacity: 1; stroke-width: 0px; opacity: 1;"/></g><g class="points"/><g class="text"/></g></g></g><g class="overplot"/><path class="xlines-above crisp" d="M0,0" style="fill: none;"/><path class="ylines-above crisp" d="M0,0" style="fill: none;"/><g class="overlines-above"/><g class="xaxislayer-above"><g class="xtick"><text text-anchor="middle" x="0" y="433" transform="translate(88,0)" style="font-family: 'Open Sans', verdana, arial, sans-serif; font-size: 12px; fill: rgb(42, 63, 95); fill-opacity: 1; white-space: pre; opacity: 1;">0</text></g><g class="xtick"><text text-anchor="middle" x="0" y="433" style="font-family: 'Open Sans', verdana, arial, sans-serif; font-size: 12px; fill: rgb(42, 63, 95); fill-opacity: 1; white-space: pre; opacity: 1;" transform="translate(195.47,0)">0.5</text></g><g class="xtick"><text text-anchor="middle" x="0" y="433" style="font-family: 'Open Sans', verdana, arial, sans-serif; font-size: 12px; fill: rgb(42, 63, 95); fill-opacity: 1; white-space: pre; opacity: 1;" transform="translate(302.95,0)">1</text></g><g class="xtick"><text text-anchor="middle" x="0" y="433" style="font-family: 'Open Sans', verdana, arial, sans-serif; font-size: 12px; fill: rgb(42, 63, 95); fill-opacity: 1; white-space: pre; opacity: 1;" transform="translate(410.42,0)">1.5</text></g><g class="xtick"><text text-anchor="middle" x="0" y="433" style="font-family: 'Open Sans', verdana, arial, sans-serif; font-size: 12px; fill: rgb(42, 63, 95); fill-opacity: 1; white-space: pre; opacity: 1;" transform="translate(517.9,0)">2</text></g></g><g class="yaxislayer-above"><g class="ytick"><text text-anchor="end" x="87" y="4.199999999999999" transform="translate(0,356)" style="font-family: 'Open Sans', verdana, arial, sans-serif; font-size: 12px; fill: rgb(42, 63, 95); fill-opacity: 1; white-space: pre; opacity: 1;">0.02259</text></g></g><g class="overaxes-above"/></g></g><g class="polarlayer"/><g class="smithlayer"/><g class="ternarylayer"/><g class="geolayer"/><g class="funnelarealayer"/><g class="pielayer"/><g class="iciclelayer"/><g class="treemaplayer"/><g class="sunburstlayer"/><g class="glimages"/><defs id="topdefs-515fa9"><g class="clips"/></defs><g class="layer-above"><g class="imagelayer"/><g class="shapelayer"/></g><g class="infolayer"><g class="g-gtitle"><text class="gtitle" x="35" y="50" text-anchor="start" dy="0em" style="font-family: 'Open Sans', verdana, arial, sans-serif; font-size: 17px; fill: rgb(42, 63, 95); opacity: 1; font-weight: normal; white-space: pre;">Hydrogen concentration (kgm-3)</text></g><g class="g-xtitle"><text class="xtitle" x="354" y="460.8" text-anchor="middle" style="font-family: 'Open Sans', verdana, arial, sans-serif; font-size: 14px; fill: rgb(42, 63, 95); opacity: 1; font-weight: normal; white-space: pre;">Distance from anode (µm)</text></g><g class="g-ytitle" transform="translate(1.9404296875,0)"><text class="ytitle" transform="rotate(-90,12.059375000000003,260)" x="12.059375000000003" y="260" text-anchor="middle" style="font-family: 'Open Sans', verdana, arial, sans-serif; font-size: 14px; fill: rgb(42, 63, 95); opacity: 1; font-weight: normal; white-space: pre;">Hydrogen concentration (kg/m3)</text></g></g></svg>