<svg class="main-svg" xmlns="http://www.w3.org/2000/svg" xmlns:xlink="http://www.w3.org/1999/xlink" width="700" height="500" style="" viewBox="0 0 700 500"><rect x="0" y="0" width="700" height="500" style="fill: rgb(255, 255, 255); fill-opacity: 1;"/><defs id="defs-7961bc"><g class="clips"><clipPath id="clip7961bcxyplot" class="plotclip"><rect width="532" height="320"/></clipPath><clipPath class="axesclip" id="clip7961bcx"><rect x="88" y="0" width="532" height="500"/></clipPath><clipPath class="axesclip" id="clip7961bcy"><rect x="0" y="100" width="700" height="320"/></clipPath><clipPath class="axesclip" id="clip7961bcxy"><rect x="88" y="100" width="532" height="320"/></clipPath></g><g class="gradients"/><g class="patterns"/></defs><g class="bglayer"><rect class="bg" x="88" y="100" width="532" height="320" style="fill: rgb(229, 236, 246); fill-opacity: 1; stroke-width: 0;"/></g><g class="layer-below"><g class="imagelayer"/><g class="shapelayer"/></g><g class="cartesianlayer"><g class="subplot xy"><g class="layer-subplot"><g class="shapelayer"/><g class="imagelayer"/></g><g class="minor-gridlayer"><g class="x"/><g class="y"/></g><g class="gridlayer"><g class="x"><path class="xgrid crisp" transform="translate(174.86,0)" d="M0,100v320" style="stroke: rgb(255, 255, 255); stroke-opacity: 1; stroke-width: 1px;"/><path class="xgrid crisp" transform="translate(261.71000000000004,0)" d="M0,100v320" style="stroke: rgb(255, 255, 255); stroke-opacity: 1; stroke-width: 1px;"/><path class="xgrid crisp" transform="translate(348.57,0)" d="M0,100v320" style="stroke: rgb(255, 255, 255); stroke-opacity: 1; stroke-width: 1px;"/><path class="xgrid crisp" transform="translate(435.43,0)" d="M0,100v320" style="stroke: rgb(255, 255, 255); stroke-opacity: 1; stroke-width: 1px;"/><path class="xgrid crisp" transform="translate(522.29,0)" d="M0,100v320" style="stroke: rgb(255, 255, 255); stroke-opacity: 1; stroke-width: 1px;"/><path class="xgrid crisp" transform="translate(609.14,0)" d="M0,100v320" style="stroke: rgb(255, 255, 255); stroke-opacity: 1; stroke-width: 1px;"/></g><g class="y"><path class="ygrid crisp" transform="translate(0,404)" d="M88,0h532" style="stroke: rgb(255, 255, 255); stroke-opacity: 1; stroke-width: 1px;"/><path class="ygrid crisp" transform="translate(0,355.22)" d="M88,0h532" style="stroke: rgb(255, 255, 255); stroke-opacity: 1; stroke-width: 1px;"/><path class="ygrid crisp" transform="translate(0,306.44)" d="M88,0h532" style="stroke: rgb(255, 255, 255); stroke-opacity: 1; stroke-width: 1px;"/><path class="ygrid crisp" transform="translate(0,257.66999999999996)" d="M88,0h532" style="stroke: rgb(255, 255, 255); stroke-opacity: 1; stroke-width: 1px;"/><path class="ygrid crisp" transform="translate(0,208.89)" d="M88,0h532" style="stroke: rgb(255, 255, 255); stroke-opacity: 1; stroke-width: 1px;"/><path class="ygrid crisp" transform="translate(0,160.11)" d="M88,0h532" style="stroke: rgb(255, 255, 255); stroke-opacity: 1; stroke-width: 1px;"/><path class="ygrid crisp" transform="translate(0,111.33)" d="M88,0h532" style="stroke: rgb(255, 255, 255); stroke-opacity: 1; stroke-width: 1px;"/></g></g><g class="zerolinelayer"><path class="xzl zl crisp" transform="translate(88,0)" d="M0,100v320" style="stroke: rgb(255, 255, 255); stroke-opacity: 1; stroke-width: 2px;"/></g><path class="xlines-below"/><path class="ylines-below"/><g class="overlines-below"/><g class="xaxislayer-below"/><g class="yaxislayer-below"/><g class="overaxes-below"/><g class="plot" transform="translate(88,100)" clip-path="url(#clip7961bcxyplot)"><g class="scatterlayer mlayer"><g class="trace scatter trace6ea375" style="stroke-miterlimit: 2;"><g class="fills"><g><path class="js-fill" d="M0,239.25L10.86,186.75L21.71,238.56L32.57,190.38L43.43,76.58L54.29,126.85L65.14,202.02L76,217.55L86.86,215.23L97.71,178.97L108.57,236.35L119.43,222.43L130.29,222.67L141.14,218.83L152,203.17L162.86,191.9L173.71,74.34L184.57,156.97L195.43,141.33L206.29,111.39L217.14,84.53L228,205.39L238.86,190.12L249.71,202.12L260.57,238.36L271.43,197.92L282.29,198.47L293.14,211.36L304,158.01L314.86,89.13L325.71,42.72L336.57,16L347.43,229.16L358.29,242.99L369.14,227L380,231.61L390.86,184.92L412.57,237.77L423.43,239.53L434.29,251.86L445.14,190.04L456,166.73L466.86,36.12L477.71,82.46L488.57,153.24L499.43,169.92L510.29,156.5L521.14,243.41L532,304L532,304L0,304Z" style="fill: rgb(68, 68, 68); fill-opacity: 0.3; stroke-width: 0;"/></g></g><g class="errorbars"/><g class="lines"><path class="js-line" d="M0,304L532,304" style="vector-effect: non-scaling-stroke; fill: none; stroke: rgb(68, 68, 68); stroke-opacity: 1; stroke-width: 0px; opacity: 1;"/></g><g class="points"/><g class="text"/></g><g class="trace scatter tracea37a30" style="stroke-miterlimit: 2;"><g class="fills"/><g class="errorbars"/><g class="lines"><path class="js-line" d="M0,239.25L10.86,186.75L21.71,238.56L32.57,190.38L43.43,76.58L54.29,126.85L65.14,202.02L76,217.55L86.86,215.23L97.71,178.97L108.57,236.35L119.43,222.43L130.29,222.67L141.14,218.83L152,203.17L162.86,191.9L173.71,74.34L184.57,156.97L195.43,141.33L206.29,111.39L217.14,84.53L228,205.39L238.86,190.12L249.71,202.12L260.57,238.36L271.43,197.92L282.29,198.47L293.14,211.36L304,158.01L314.86,89.13L325.71,42.72L336.57,16L347.43,229.16L358.29,242.99L369.14,227L380,231.61L390.86,184.92L412.57,237.77L423.43,239.53L434.29,251.86L445.14,190.04L456,166.73L466.86,36.12L477.71,82.46L488.57,153.24L499.43,169.92L510.29,156.5L521.14,243.41L532,304" style="vector-effect: non-scaling-stroke; fill: none; stroke: rgb(68, 68, 68); stroke-opacity: 1; stroke-width: 0px; opacity: 1;"/></g><g class="points"/><g class="text"/></g><g class="trace scatter tracedec0ae" style="stroke-miterlimit: 2; opacity: 1;"><g class="fills"/><g class="errorbars"/><g class="lines"><path class="js-line" d="M0,300.99L10.86,299.72L21.71,299.58L43.43,297.34L54.29,298.38L119.43,301.17L130.29,300.39L141.14,299.75L152,299.94L162.86,299.99L173.71,297.19L206.29,299.05L217.14,298.7L249.71,296.9L260.57,297.6L271.43,296.67L282.29,297.72L304,297.7L314.86,296.48L336.57,297.76L347.43,298L390.86,299.72L401.71,299.85L423.43,299.76L434.29,299.51L456,298.75L466.86,297.29L488.57,299.22L499.43,299.14L510.29,299.19L521.14,301.71L532,304" style="vector-effect: non-scaling-stroke; fill: none; stroke: rgb(31, 119, 180); stroke-opacity: 1; stroke-width: 2px; opacity: 1;"/></g><g class="points"/><g class="text"/></g><g class="trace scatter trace349a2c" style="stroke-miterlimit: 2;"><g class="fills"><g><path class="js-fill" d="M0,300.53L10.86,299.08L21.71,299.01L43.43,296.32L54.29,297.58L108.57,300.99L119.43,300.79L141.14,299.21L152,299.38L162.86,299.42L173.71,295.85L184.57,296.92L195.43,297.09L206.29,297.97L217.14,297.62L249.71,295.91L260.57,296.85L271.43,295.82L282.29,297.03L304,296.96L314.86,295.49L336.57,296.77L347.43,297.3L380,299.15L390.86,299.03L423.43,299.28L434.29,299.06L456,298.15L466.86,296.2L488.57,298.52L499.43,298.38L510.29,298.42L521.14,301.39L532,304L532,304L521.14,302.02L510.29,299.96L499.43,299.91L488.57,299.92L466.86,298.37L456,299.34L445.14,299.43L434.29,299.96L401.71,300.49L390.86,300.41L347.43,298.71L336.57,298.76L314.86,297.47L304,298.43L282.29,298.41L271.43,297.53L260.57,298.36L249.71,297.89L228,299.05L217.14,299.78L173.71,298.53L162.86,300.55L152,300.5L141.14,300.28L130.29,300.86L119.43,301.56L54.29,299.18L43.43,298.35L21.71,300.15L10.86,300.36L0,301.45Z" style="fill: rgb(68, 68, 68); fill-opacity: 0.7; stroke-width: 0;"/></g></g><g class="errorbars"/><g class="lines"><path class="js-line" d="M0,301.45L10.86,300.36L21.71,300.15L43.43,298.35L54.29,299.18L119.43,301.56L130.29,300.86L141.14,300.28L152,300.5L162.86,300.55L173.71,298.53L217.14,299.78L228,299.05L249.71,297.89L260.57,298.36L271.43,297.53L282.29,298.41L304,298.43L314.86,297.47L336.57,298.76L347.43,298.71L390.86,300.41L401.71,300.49L434.29,299.96L445.14,299.43L456,299.34L466.86,298.37L488.57,299.92L499.43,299.91L510.29,299.96L521.14,302.02L532,304" style="vector-effect: non-scaling-stroke; fill: none; stroke: rgb(68, 68, 68); stroke-opacity: 1; stroke-width: 0px; opacity: 1;"/></g><g class="points"/><g class="text"/></g><g class="trace scatter trace193f65" style="stroke-miterlimit: 2;"><g class="fills"/><g class="errorbars"/><g class="lines"><path class="js-line" d="M0,300.53L10.86,299.08L21.71,299.01L43.43,296.32L54.29,297.58L108.57,300.99L119.43,300.79L141.14,299.21L152,299.38L162.86,299.42L173.71,295.85L184.57,296.92L195.43,297.09L206.29,297.97L217.14,297.62L249.71,295.91L260.57,296.85L271.43,295.82L282.29,297.03L304,296.96L314.86,295.49L336.57,296.77L347.43,297.3L380,299.15L390.86,299.03L423.43,299.28L434.29,299.06L456,298.15L466.86,296.2L488.57,298.52L499.43,298.38L510.29,298.42L521.14,301.39L532,304" style="vector-effect: non-scaling-stroke; fill: none; stroke: rgb(68, 68, 68); stroke-opacity: 1; stroke-width: 0px; opacity: 1;"/></g><g class="points"/><g class="text"/></g></g></g><g class="overplot"/><path class="xlines-above crisp" d="M0,0" style="fill: none;"/><path class="ylines-above crisp" d="M0,0" style="fill: none;"/><g class="overlines-above"/><g class="xaxislayer-above"><g class="xtick"><text text-anchor="middle" x="0" y="433" transform="translate(88,0)" style="font-family: 'Open Sans', verdana, arial, sans-serif; font-size: 12px; fill: rgb(42, 63, 95); fill-opacity: 1; white-space: pre; opacity: 1;">0</text></g><g class="xtick"><text text-anchor="middle" x="0" y="433" style="font-family: 'Open Sans', verdana, arial, sans-serif; font-size: 12px; fill: rgb(42, 63, 95); fill-opacity: 1; white-space: pre; opacity: 1;" transform="translate(174.86,0)">0.2</text></g><g class="xtick"><text text-anchor="middle" x="0" y="433" style="font-family: 'Open Sans', verdana, arial, sans-serif; font-size: 12px; fill: rgb(42, 63, 95); fill-opacity: 1; white-space: pre; opacity: 1;" transform="translate(261.71000000000004,0)">0.4</text></g><g class="xtick"><text text-anchor="middle" x="0" y="433" style="font-family: 'Open Sans', verdana, arial, sans-serif; font-size: 12px; fill: rgb(42, 63, 95); fill-opacity: 1; white-space: pre; opacity: 1;" transform="translate(348.57,0)">0.6</text></g><g class="xtick"><text text-anchor="middle" x="0" y="433" style="font-family: 'Open Sans', verdana, arial, sans-serif; font-size: 12px; fill: rgb(42, 63, 95); fill-opacity: 1; white-space: pre; opacity: 1;" transform="translate(435.43,0)">0.8</text></g><g class="xtick"><text text-anchor="middle" x="0" y="433" style="font-family: 'Open Sans', verdana, arial, sans-serif; font-size: 12px; fill: rgb(42, 63, 95); fill-opacity: 1; white-space: pre; opacity: 1;" transform="translate(522.29,0)">1</text></g><g class="xtick"><text text-anchor="middle" x="0" y="433" style="font-family: 'Open Sans', verdana, arial, sans-serif; font-size: 12px; fill: rgb(42, 63, 95); fill-opacity: 1; white-space: pre; opacity: 1;" transform="translate(609.14,0)">1.2</text></g></g><g class="yaxislayer-above"><g class="ytick"><text text-anchor="end" x="87" y="4.199999999999999" transform="translate(0,404)" style="font-family: 'Open Sans', verdana, arial, sans-serif; font-size: 12px; fill: rgb(42, 63, 95); fill-opacity: 1; white-space: pre; opacity: 1;">0.5</text></g><g class="ytick"><text text-anchor="end" x="87" y="4.199999999999999" style="font-family: 'Open Sans', verdana, arial, sans-serif; font-size: 12px; fill: rgb(42, 63, 95); fill-opacity: 1; white-space: pre; opacity: 1;" transform="translate(0,355.22)">0.50005</text></g><g class="ytick"><text text-anchor="end" x="87" y="4.199999999999999" style="font-family: 'Open Sans', verdana, arial, sans-serif; font-size: 12px; fill: rgb(42, 63, 95); fill-opacity: 1; white-space: pre; opacity: 1;" transform="translate(0,306.44)">0.5001</text></g><g class="ytick"><text text-anchor="end" x="87" y="4.199999999999999" style="font-family: 'Open Sans', verdana, arial, sans-serif; font-size: 12px; fill: rgb(42, 63, 95); fill-opacity: 1; white-space: pre; opacity: 1;" transform="translate(0,257.66999999999996)">0.50015</text></g><g class="ytick"><text text-anchor="end" x="87" y="4.199999999999999" style="font-family: 'Open Sans', verdana, arial, sans-serif; font-size: 12px; fill: rgb(42, 63, 95); fill-opacity: 1; white-space: pre; opacity: 1;" transform="translate(0,208.89)">0.5002</text></g><g class="ytick"><text text-anchor="end" x="87" y="4.199999999999999" style="font-family: 'Open Sans', verdana, arial, sans-serif; font-size: 12px; fill: rgb(42, 63, 95); fill-opacity: 1; white-space: pre; opacity: 1;" transform="translate(0,160.11)">0.50025</text></g><g class="ytick"><text text-anchor="end" x="87" y="4.199999999999999" style="font-family: 'Open Sans', verdana, arial, sans-serif; font-size: 12px; fill: rgb(42, 63, 95); fill-opacity: 1; white-space: pre; opacity: 1;" transform="translate(0,111.33)">0.5003</text></g></g><g class="overaxes-above"/></g></g><g class="polarlayer"/><g class="smithlayer"/><g class="ternarylayer"/><g class="geolayer"/><g class="funnelarealayer"/><g class="pielayer"/><g class="iciclelayer"/><g class="treemaplayer"/><g class="sunburstlayer"/><g class="glimages"/><defs id="topdefs-7961bc"><g class="clips"/></defs><g class="layer-above"><g class="imagelayer"/><g class="shapelayer"/></g><g class="infolayer"><g class="g-gtitle"><text class="gtitle" x="35" y="50" text-anchor="start" dy="0em" style="font-family: 'Open Sans', verdana, arial, sans-serif; font-size: 17px; fill: rgb(42, 63, 95); opacity: 1; font-weight: normal; white-space: pre;">Ion and electron potential (V)</text></g><g class="g-xtitle"><text class="xtitle" x="354" y="460.8" text-anchor="middle" style="font-family: 'Open Sans', verdana, arial, sans-serif; font-size: 14px; fill: rgb(42, 63, 95); opacity: 1; font-weight: normal; white-space: pre;">Distance from anode (µm)</text></g><g class="g-ytitle" transform="translate(1.9404296875,0)"><text class="ytitle" transform="rotate(-90,12.059375000000003,260)" x="12.059375000000003" y="260" text-anchor="middle" style="font-family: 'Open Sans', verdana, arial, sans-serif; font-size: 14px; fill: rgb(42, 63, 95); opacity: 1; font-weight: normal; white-space: pre;">Ion and electron potential (V)</text></g></g></svg>