<svg class="main-svg" xmlns="http://www.w3.org/2000/svg" xmlns:xlink="http://www.w3.org/1999/xlink" width="700" height="500" style="" viewBox="0 0 700 500"><rect x="0" y="0" width="700" height="500" style="fill: rgb(255, 255, 255); fill-opacity: 1;"/><defs id="defs-15f37d"><g class="clips"><clipPath id="clip15f37dxyplot" class="plotclip"><rect width="540" height="320"/></clipPath><clipPath class="axesclip" id="clip15f37dx"><rect x="80" y="0" width="540" height="500"/></clipPath><clipPath class="axesclip" id="clip15f37dy"><rect x="0" y="100" width="700" height="320"/></clipPath><clipPath class="axesclip" id="clip15f37dxy"><rect x="80" y="100" width="540" height="320"/></clipPath></g><g class="gradients"/><g class="patterns"/></defs><g class="bglayer"><rect class="bg" x="80" y="100" width="540" height="320" style="fill: rgb(229, 236, 246); fill-opacity: 1; stroke-width: 0;"/></g><g class="layer-below"><g class="imagelayer"/><g class="shapelayer"/></g><g class="cartesianlayer"><g class="subplot xy"><g class="layer-subplot"><g class="shapelayer"/><g class="imagelayer"/></g><g class="minor-gridlayer"><g class="x"/><g class="y"/></g><g class="gridlayer"><g class="x"><path class="xgrid crisp" transform="translate(215.17,0)" d="M0,100v320" style="stroke: rgb(255, 255, 255); stroke-opacity: 1; stroke-width: 1px;"/><path class="xgrid crisp" transform="translate(350.34,0)" d="M0,100v320" style="stroke: rgb(255, 255, 255); stroke-opacity: 1; stroke-width: 1px;"/><path class="xgrid crisp" transform="translate(485.51,0)" d="M0,100v320" style="stroke: rgb(255, 255, 255); stroke-opacity: 1; stroke-width: 1px;"/></g><g class="y"><path class="ygrid crisp" transform="translate(0,343.11)" d="M80,0h540" style="stroke: rgb(255, 255, 255); stroke-opacity: 1; stroke-width: 1px;"/><path class="ygrid crisp" transform="translate(0,282.22)" d="M80,0h540" style="stroke: rgb(255, 255, 255); stroke-opacity: 1; stroke-width: 1px;"/><path class="ygrid crisp" transform="translate(0,221.32999999999998)" d="M80,0h540" style="stroke: rgb(255, 255, 255); stroke-opacity: 1; stroke-width: 1px;"/><path class="ygrid crisp" transform="translate(0,160.44)" d="M80,0h540" style="stroke: rgb(255, 255, 255); stroke-opacity: 1; stroke-width: 1px;"/></g></g><g class="zerolinelayer"><path class="xzl zl crisp" transform="translate(80,0)" d="M0,100v320" style="stroke: rgb(255, 255, 255); stroke-opacity: 1; stroke-width: 2px;"/><path class="yzl zl crisp" transform="translate(0,404)" d="M80,0h540" style="stroke: rgb(255, 255, 255); stroke-opacity: 1; stroke-width: 2px;"/></g><path class="xlines-below"/><path class="ylines-below"/><g class="overlines-below"/><g class="xaxislayer-below"/><g class="yaxislayer-below"/><g class="overaxes-below"/><g class="plot" transform="translate(80,100)" clip-path="url(#clip15f37dxyplot)"><g class="scatterlayer mlayer"><g class="trace scatter trace5f82fc" style="stroke-miterlimit: 2;"><g class="fills"><g><path class="js-fill" d="M0,18.12L68.26,18.24L68.94,18.27L77.05,18.64L77.72,18.66L90.56,19.77L91.24,19.91L95.97,20.32L96.65,20.35L119.62,22.25L120.3,23.24L137.87,23.98L138.55,24.01L148.69,24.76L149.36,25.2L158.82,26.19L159.5,26.3L165.58,26.88L166.26,27.28L175.04,28.29L175.72,29L189.24,31.14L189.91,31.98L190.59,32L191.26,33.35L203.43,33.92L204.11,34.84L209.51,35.2L210.19,35.91L212.22,37.32L212.89,37.33L219.65,38.14L220.33,38.77L225.73,40.37L226.41,40.44L231.81,41.45L232.49,41.55L233.84,42.76L234.52,42.76L237.22,43.04L237.9,43.74L241.28,44.35L241.95,45.01L246.01,45.76L246.68,46.53L254.79,47.59L255.47,48.56L264.26,51.17L264.93,51.94L273.04,52.6L273.72,53.07L275.74,53.67L276.42,53.74L277.1,53.94L277.77,55.68L279.12,55.78L279.8,57.57L287.23,58.3L287.91,58.58L289.26,62.35L289.94,62.46L291.96,62.88L292.64,62.92L296.7,64.02L297.37,64.35L301.43,66.52L302.1,66.69L306.83,67.92L307.51,67.99L310.21,68.87L310.89,68.95L314.27,69.43L314.94,70.02L316.3,71.27L316.97,73.05L324.41,73.76L325.08,74.82L331.16,76.09L331.84,77.04L337.92,78.3L338.6,79.56L343.33,80.23L344.01,81.25L347.38,85.07L348.06,85.1L348.74,85.15L349.41,86.24L353.47,88.67L354.14,90.27L355.49,91.01L356.17,91.09L360.9,94.48L361.58,94.64L362.93,95.11L363.6,97.5L364.96,100.69L365.63,100.71L366.98,101.05L367.66,102.95L369.69,103.53L370.36,106.13L371.71,106.23L372.39,107.29L376.45,109.35L377.12,109.46L378.47,112.51L379.15,112.55L380.5,115.03L381.18,115.03L386.58,115.73L387.26,116.29L388.61,118.2L389.29,118.83L391.99,120.31L392.67,122.97L393.34,123L394.02,125L398.75,125.17L399.42,127.41L402.8,127.6L403.48,133L406.86,134.29L407.53,134.5L410.24,136.75L410.91,138.59L413.62,139.06L414.29,145.34L415.64,145.39L416.32,156.94L420.38,157.25L421.05,157.3L423.08,157.51L423.75,158.51L425.78,158.81L426.46,160.09L428.49,161.2L429.16,167.57L434.57,168.15L435.24,174.59L439.3,174.86L439.97,178.81L447.41,179.74L448.09,180.6L451.46,181.44L452.14,182.5L454.17,184.34L454.84,186.91L455.52,187.66L456.2,189.53L458.9,191.09L459.57,194.4L460.93,195.1L461.6,197.09L462.28,197.24L462.95,200.79L464.31,200.85L464.98,201.7L466.33,203.35L467.01,203.36L469.71,204.11L470.39,208.85L471.74,209.02L472.42,212.23L475.79,212.93L476.47,213.05L479.85,213.49L480.53,215.62L481.2,215.97L481.88,220.87L483.9,221.2L484.58,221.95L485.93,224.14L486.61,224.86L487.96,230.42L488.64,231.26L490.66,234.42L491.34,234.44L493.37,234.56L494.04,236.42L496.07,237.17L496.75,241.52L498.77,242.35L499.45,244.13L502.15,248.74L502.83,249.05L505.53,250.66L506.21,253L507.56,254.69L508.24,256.99L508.91,258.66L509.59,264.88L510.94,265.12L511.61,277.14L515.67,277.97L516.35,278.2L517.02,278.44L517.7,285.01L519.05,285.09L519.72,286.35L520.4,286.45L521.08,287.81L521.75,288.13L522.43,289.78L523.78,289.87L524.46,296.87L525.81,297.52L526.48,297.99L527.83,298.72L528.51,303.86L540,304L540,304L538.65,290.07L537.97,285.16L536.62,273.72L535.94,262.37L535.27,262.24L534.59,262.01L531.21,261.25L530.54,253.8L525.81,253.38L525.13,253.28L522.43,252.2L521.75,250.73L520.4,250.15L519.72,247.08L518.37,246.61L517.7,234.44L515.67,234.54L514.99,224.37L504.18,224.02L503.5,221.9L502.83,221.73L502.15,222.31L498.77,221.12L498.1,220.3L496.07,219.8L495.39,207.95L492.02,207.9L491.34,207.91L489.99,200.31L489.31,200.28L485.26,199.32L484.58,199.35L481.2,198.06L480.53,197.69L478.5,193.63L477.82,192.98L472.42,191.61L471.74,191.42L470.39,188.97L469.71,185.96L469.04,185.97L468.36,182.11L466.33,181.09L465.66,180.49L460.93,178.64L460.25,178.33L458.22,173.64L457.55,170.1L455.52,170.1L454.84,170.15L453.49,169.5L452.82,169.51L451.46,168L450.79,167.95L449.44,164.77L448.76,155.79L444.71,155.76L444.03,155.75L439.3,154.47L438.62,152.01L437.95,152.16L437.27,147.99L436.6,134.85L431.19,134.77L430.51,134.84L427.81,134.39L427.13,134.36L423.08,133.63L422.4,130.7L421.73,130.5L421.05,129.4L418.35,128.59L417.67,125.61L417,125.55L416.32,124.14L412.27,123.86L411.59,121.02L410.91,120L410.24,120.02L408.89,118.99L408.21,118.32L406.18,116.47L405.51,116.5L403.48,116.04L402.8,108.48L400.78,108.41L400.1,107.73L397.4,106.1L396.72,104.49L394.02,104.28L393.34,98.4L391.99,98.39L391.31,96.44L382.53,95.65L381.85,92.99L379.82,93.05L379.15,87.3L371.71,86.41L371.04,86.38L369.69,85.85L369.01,85.35L367.66,84.06L366.98,82.34L363.6,81.71L362.93,81.6L358.2,80.71L357.52,78.3L356.85,78.3L356.17,77.01L355.49,77.1L354.82,76.38L354.14,76.45L353.47,76.52L351.44,76.49L350.76,76.11L349.41,75.57L348.74,74.14L343.33,73.98L342.65,73.87L340.63,73.26L339.95,72.37L338.6,71.93L337.92,71.67L335.22,70.43L334.54,70.31L332.52,69.76L331.84,68.76L329.81,68.53L329.14,68.45L327.78,67.12L327.11,65.96L322.38,65.9L321.7,65.8L316.97,64.99L316.3,64.16L314.27,64.28L313.59,62.71L312.92,62.62L312.24,58.98L306.83,59.11L306.16,57.41L304.13,57.36L303.45,56.37L300.75,56.35L300.08,54.99L296.02,55.05L295.34,53.98L293.32,52.97L292.64,52.97L285.21,52.65L284.53,51.22L283.18,51.23L282.5,48.63L279.8,48.66L279.12,47.61L278.45,47.69L277.77,47.74L269.66,47.79L268.99,46.22L267.63,46.24L266.96,46.18L263.58,46.43L262.9,46.33L261.55,45.04L260.88,42.14L251.41,42.22L250.74,41.91L249.39,41.33L248.71,41.11L243.98,40.3L243.3,37.92L241.28,37.24L240.6,37.27L238.57,36.9L237.9,36.93L235.87,36.89L235.19,36.66L232.49,35.52L231.81,34.37L229.11,34.44L228.44,34.15L227.08,33.33L226.41,32.96L223.7,31.9L223.03,31.05L208.84,30.93L208.16,30.89L204.78,30.62L204.11,29.52L196.67,29.13L195.99,27.74L193.29,28.68L192.62,28.5L189.91,27.84L189.24,26.51L179.1,26.25L178.42,25.08L170.99,25.47L170.31,23.97L164.91,24.14L164.23,22.12L162.88,22.79L162.2,22.79L160.85,23.46L160.18,24L157.47,23.92L156.8,23.34L154.09,23.03L153.42,22.87L142.6,22.38L141.93,22.31L135.84,21.89L135.17,21.73L131.79,21.18L131.11,20.62L127.73,21.12L127.06,20.88L114.89,20.29L114.22,20.11L111.51,19.58L110.84,18.43L109.49,18.43L108.81,19.52L108.14,19.59L107.46,19.51L99.35,19.22L98.67,18.87L93.94,18.48L93.27,17.93L86.51,17.8L85.83,17.79L81.78,17.26L81.1,16.36L67.58,16.77L66.91,16.84L62.85,16.94L62.18,17L58.12,16.1L57.45,16.18L52.72,16.91L52.04,16.85L14.19,16.51L13.52,16.51L0,16.54Z" style="fill: rgb(68, 68, 68); fill-opacity: 0.3; stroke-width: 0;"/></g></g><g class="errorbars"/><g class="lines"><path class="js-line" d="M0,16.54L13.52,16.51L14.19,16.51L52.04,16.85L52.72,16.91L57.45,16.18L58.12,16.1L62.18,17L62.85,16.94L66.91,16.84L67.58,16.77L81.1,16.36L81.78,17.26L85.83,17.79L86.51,17.8L93.27,17.93L93.94,18.48L98.67,18.87L99.35,19.22L107.46,19.51L108.14,19.59L108.81,19.52L109.49,18.43L110.84,18.43L111.51,19.58L114.22,20.11L114.89,20.29L127.06,20.88L127.73,21.12L131.11,20.62L131.79,21.18L135.17,21.73L135.84,21.89L141.93,22.31L142.6,22.38L153.42,22.87L154.09,23.03L156.8,23.34L157.47,23.92L160.18,24L160.85,23.46L162.2,22.79L162.88,22.79L164.23,22.12L164.91,24.14L170.31,23.97L170.99,25.47L178.42,25.08L179.1,26.25L189.24,26.51L189.91,27.84L192.62,28.5L193.29,28.68L195.99,27.74L196.67,29.13L204.11,29.52L204.78,30.62L208.16,30.89L208.84,30.93L223.03,31.05L223.7,31.9L226.41,32.96L227.08,33.33L228.44,34.15L229.11,34.44L231.81,34.37L232.49,35.52L235.19,36.66L235.87,36.89L237.9,36.93L238.57,36.9L240.6,37.27L241.28,37.24L243.3,37.92L243.98,40.3L248.71,41.11L249.39,41.33L250.74,41.91L251.41,42.22L260.88,42.14L261.55,45.04L262.9,46.33L263.58,46.43L266.96,46.18L267.63,46.24L268.99,46.22L269.66,47.79L277.77,47.74L278.45,47.69L279.12,47.61L279.8,48.66L282.5,48.63L283.18,51.23L284.53,51.22L285.21,52.65L292.64,52.97L293.32,52.97L295.34,53.98L296.02,55.05L300.08,54.99L300.75,56.35L303.45,56.37L304.13,57.36L306.16,57.41L306.83,59.11L312.24,58.98L312.92,62.62L313.59,62.71L314.27,64.28L316.3,64.16L316.97,64.99L321.7,65.8L322.38,65.9L327.11,65.96L327.78,67.12L329.14,68.45L329.81,68.53L331.84,68.76L332.52,69.76L334.54,70.31L335.22,70.43L337.92,71.67L338.6,71.93L339.95,72.37L340.63,73.26L342.65,73.87L343.33,73.98L348.74,74.14L349.41,75.57L350.76,76.11L351.44,76.49L353.47,76.52L354.14,76.45L354.82,76.38L355.49,77.1L356.17,77.01L356.85,78.3L357.52,78.3L358.2,80.71L362.93,81.6L363.6,81.71L366.98,82.34L367.66,84.06L369.01,85.35L369.69,85.85L371.04,86.38L371.71,86.41L379.15,87.3L379.82,93.05L381.85,92.99L382.53,95.65L391.31,96.44L391.99,98.39L393.34,98.4L394.02,104.28L396.72,104.49L397.4,106.1L400.1,107.73L400.78,108.41L402.8,108.48L403.48,116.04L405.51,116.5L406.18,116.47L408.21,118.32L408.89,118.99L410.24,120.02L410.91,120L411.59,121.02L412.27,123.86L416.32,124.14L417,125.55L417.67,125.61L418.35,128.59L421.05,129.4L421.73,130.5L422.4,130.7L423.08,133.63L427.13,134.36L427.81,134.39L430.51,134.84L431.19,134.77L436.6,134.85L437.27,147.99L437.95,152.16L438.62,152.01L439.3,154.47L444.03,155.75L444.71,155.76L448.76,155.79L449.44,164.77L450.79,167.95L451.46,168L452.82,169.51L453.49,169.5L454.84,170.15L455.52,170.1L457.55,170.1L458.22,173.64L460.25,178.33L460.93,178.64L465.66,180.49L466.33,181.09L468.36,182.11L469.04,185.97L469.71,185.96L470.39,188.97L471.74,191.42L472.42,191.61L477.82,192.98L478.5,193.63L480.53,197.69L481.2,198.06L484.58,199.35L485.26,199.32L489.31,200.28L489.99,200.31L491.34,207.91L492.02,207.9L495.39,207.95L496.07,219.8L498.1,220.3L498.77,221.12L502.15,222.31L502.83,221.73L503.5,221.9L504.18,224.02L514.99,224.37L515.67,234.54L517.7,234.44L518.37,246.61L519.72,247.08L520.4,250.15L521.75,250.73L522.43,252.2L525.13,253.28L525.81,253.38L530.54,253.8L531.21,261.25L534.59,262.01L535.27,262.24L535.94,262.37L536.62,273.72L537.97,285.16L538.65,290.07L540,304" style="vector-effect: non-scaling-stroke; fill: none; stroke: rgb(68, 68, 68); stroke-opacity: 1; stroke-width: 0px; opacity: 1;"/></g><g class="points"/><g class="text"/></g><g class="trace scatter tracec568fd" style="stroke-miterlimit: 2;"><g class="fills"/><g class="errorbars"/><g class="lines"><path class="js-line" d="M0,18.12L68.26,18.24L68.94,18.27L77.05,18.64L77.72,18.66L90.56,19.77L91.24,19.91L95.97,20.32L96.65,20.35L119.62,22.25L120.3,23.24L137.87,23.98L138.55,24.01L148.69,24.76L149.36,25.2L158.82,26.19L159.5,26.3L165.58,26.88L166.26,27.28L175.04,28.29L175.72,29L189.24,31.14L189.91,31.98L190.59,32L191.26,33.35L203.43,33.92L204.11,34.84L209.51,35.2L210.19,35.91L212.22,37.32L212.89,37.33L219.65,38.14L220.33,38.77L225.73,40.37L226.41,40.44L231.81,41.45L232.49,41.55L233.84,42.76L234.52,42.76L237.22,43.04L237.9,43.74L241.28,44.35L241.95,45.01L246.01,45.76L246.68,46.53L254.79,47.59L255.47,48.56L264.26,51.17L264.93,51.94L273.04,52.6L273.72,53.07L275.74,53.67L276.42,53.74L277.1,53.94L277.77,55.68L279.12,55.78L279.8,57.57L287.23,58.3L287.91,58.58L289.26,62.35L289.94,62.46L291.96,62.88L292.64,62.92L296.7,64.02L297.37,64.35L301.43,66.52L302.1,66.69L306.83,67.92L307.51,67.99L310.21,68.87L310.89,68.95L314.27,69.43L314.94,70.02L316.3,71.27L316.97,73.05L324.41,73.76L325.08,74.82L331.16,76.09L331.84,77.04L337.92,78.3L338.6,79.56L343.33,80.23L344.01,81.25L347.38,85.07L348.06,85.1L348.74,85.15L349.41,86.24L353.47,88.67L354.14,90.27L355.49,91.01L356.17,91.09L360.9,94.48L361.58,94.64L362.93,95.11L363.6,97.5L364.96,100.69L365.63,100.71L366.98,101.05L367.66,102.95L369.69,103.53L370.36,106.13L371.71,106.23L372.39,107.29L376.45,109.35L377.12,109.46L378.47,112.51L379.15,112.55L380.5,115.03L381.18,115.03L386.58,115.73L387.26,116.29L388.61,118.2L389.29,118.83L391.99,120.31L392.67,122.97L393.34,123L394.02,125L398.75,125.17L399.42,127.41L402.8,127.6L403.48,133L406.86,134.29L407.53,134.5L410.24,136.75L410.91,138.59L413.62,139.06L414.29,145.34L415.64,145.39L416.32,156.94L420.38,157.25L421.05,157.3L423.08,157.51L423.75,158.51L425.78,158.81L426.46,160.09L428.49,161.2L429.16,167.57L434.57,168.15L435.24,174.59L439.3,174.86L439.97,178.81L447.41,179.74L448.09,180.6L451.46,181.44L452.14,182.5L454.17,184.34L454.84,186.91L455.52,187.66L456.2,189.53L458.9,191.09L459.57,194.4L460.93,195.1L461.6,197.09L462.28,197.24L462.95,200.79L464.31,200.85L464.98,201.7L466.33,203.35L467.01,203.36L469.71,204.11L470.39,208.85L471.74,209.02L472.42,212.23L475.79,212.93L476.47,213.05L479.85,213.49L480.53,215.62L481.2,215.97L481.88,220.87L483.9,221.2L484.58,221.95L485.93,224.14L486.61,224.86L487.96,230.42L488.64,231.26L490.66,234.42L491.34,234.44L493.37,234.56L494.04,236.42L496.07,237.17L496.75,241.52L498.77,242.35L499.45,244.13L502.15,248.74L502.83,249.05L505.53,250.66L506.21,253L507.56,254.69L508.24,256.99L508.91,258.66L509.59,264.88L510.94,265.12L511.61,277.14L515.67,277.97L516.35,278.2L517.02,278.44L517.7,285.01L519.05,285.09L519.72,286.35L520.4,286.45L521.08,287.81L521.75,288.13L522.43,289.78L523.78,289.87L524.46,296.87L525.81,297.52L526.48,297.99L527.83,298.72L528.51,303.86L540,304" style="vector-effect: non-scaling-stroke; fill: none; stroke: rgb(68, 68, 68); stroke-opacity: 1; stroke-width: 0px; opacity: 1;"/></g><g class="points"/><g class="text"/></g><g class="trace scatter tracec8eccd" style="stroke-miterlimit: 2; opacity: 1;"><g class="fills"/><g class="errorbars"/><g class="lines"><path class="js-line" d="M0,17.31L72.99,17.92L73.67,17.95L92.59,19.2L93.27,19.29L110.84,20.64L111.51,20.7L175.72,27.3L176.4,27.43L212.89,33.79L213.57,33.95L260.2,47.4L260.88,47.67L270.34,50.2L271.01,50.35L283.85,54.2L284.53,54.5L300.75,61.07L301.43,61.52L306.83,64.77L307.51,65.01L327.11,71.3L327.78,71.63L342.65,76.95L343.33,77.22L351.44,81.52L352.12,81.92L358.2,85.71L358.87,86.02L364.96,89.8L365.63,90.23L374.42,97.81L375.09,98.55L380.5,103.84L381.18,104.13L385.23,107.19L385.91,107.92L391.99,113.65L392.67,114.12L405.51,124.37L406.18,125.02L417,135.05L417.67,135.67L424.43,142.01L425.11,143.35L429.84,150.93L430.51,151.8L439.3,163.48L439.97,164.13L448.76,173.26L449.44,174.04L456.87,181.97L457.55,182.74L467.01,193.17L467.68,194.19L471.74,198.23L472.42,198.8L482.55,208.02L483.23,208.74L488.64,215.91L489.31,217.09L493.37,223.88L494.04,224.84L513.64,250.09L514.32,251.8L518.37,260.65L519.05,262.18L522.43,270.06L523.1,270.98L527.16,276.17L527.83,277.41L530.54,284.52L531.21,286.43L538.65,302.69L539.32,303.44L540,304" style="vector-effect: non-scaling-stroke; fill: none; stroke: rgb(31, 119, 180); stroke-opacity: 1; stroke-width: 2px; opacity: 1;"/></g><g class="points"/><g class="text"/></g><g class="trace scatter trace8e3828" style="stroke-miterlimit: 2;"><g class="fills"><g><path class="js-fill" d="M0,17.3L72.99,17.91L73.67,17.94L102.05,19.92L102.73,19.98L168.29,26.24L168.96,26.39L197.35,30.87L198.02,31L225.73,36.87L226.41,37.14L236.55,40.16L237.22,40.31L276.42,51.71L277.1,51.88L288.59,55.88L289.26,56.14L300.08,60.58L300.75,61L308.19,65.18L308.86,65.36L322.38,69.23L323.05,69.47L348.74,80.02L349.41,80.36L363.6,88.65L364.28,89.2L373.07,96.19L373.74,96.85L380.5,103.71L381.18,104L385.23,107.03L385.91,107.76L392.67,114.02L393.34,114.53L398.07,117.95L398.75,118.39L402.8,121.83L403.48,122.4L420.38,137.94L421.05,138.68L425.11,143.14L425.78,144.38L433.22,155.66L433.89,156.31L435.92,159.18L436.6,160.2L439.3,163.37L439.97,164.01L448.76,173.16L449.44,173.94L456.87,181.87L457.55,182.66L467.01,193.04L467.68,194.07L471.74,198.14L472.42,198.71L481.88,207.22L482.55,207.91L487.96,214.62L488.64,215.76L495.39,226.48L496.07,227.28L502.15,234.81L502.83,235.98L510.26,244.95L510.94,245.71L513.64,249.86L514.32,251.56L518.37,260.37L519.05,261.89L522.43,269.79L523.1,270.71L527.16,275.88L527.83,277.11L530.54,284.21L531.21,286.13L538.65,302.64L539.32,303.42L540,304L540,304L538.65,302.73L537.97,301.84L531.21,286.74L530.54,284.83L527.83,277.71L527.16,276.47L523.1,271.24L522.43,270.33L519.05,262.48L518.37,260.93L514.32,252.04L513.64,250.32L510.94,246.1L510.26,245.33L502.83,236.32L502.15,235.16L496.07,227.56L495.39,226.75L488.64,216.05L487.96,214.91L476.47,202.66L475.79,201.94L471.06,197.83L470.39,197.26L466.33,192.23L465.66,191.12L461.6,187L460.93,186.42L446.73,170.91L446.06,170.12L440.65,164.89L439.97,164.25L430.51,151.99L429.84,151.14L425.11,143.56L424.43,142.2L401.45,120.72L400.78,120.13L394.69,115.8L394.02,115.34L387.93,110.04L387.26,109.39L381.85,104.65L381.18,104.26L378.47,102.38L377.8,101.64L367.66,91.91L366.98,91.35L346.71,79.03L346.03,78.62L324.41,70.08L323.73,69.83L308.19,65.26L307.51,65.05L300.75,61.14L300.08,60.71L295.34,58.37L294.67,58.17L283.18,53.95L282.5,53.72L272.37,50.72L271.69,50.55L251.41,44.75L250.74,44.52L233.84,39.54L233.17,39.4L227.08,37.49L226.41,37.24L201.4,31.75L200.73,31.6L191.26,29.67L190.59,29.51L162.2,25.44L161.53,25.36L138.55,22.9L137.87,22.85L103.4,20.05L102.73,19.99L73.67,17.95L72.99,17.93L0,17.32Z" style="fill: rgb(68, 68, 68); fill-opacity: 0.7; stroke-width: 0;"/></g></g><g class="errorbars"/><g class="lines"><path class="js-line" d="M0,17.32L72.99,17.93L73.67,17.95L102.73,19.99L103.4,20.05L137.87,22.85L138.55,22.9L161.53,25.36L162.2,25.44L190.59,29.51L191.26,29.67L200.73,31.6L201.4,31.75L226.41,37.24L227.08,37.49L233.17,39.4L233.84,39.54L250.74,44.52L251.41,44.75L271.69,50.55L272.37,50.72L282.5,53.72L283.18,53.95L294.67,58.17L295.34,58.37L300.08,60.71L300.75,61.14L307.51,65.05L308.19,65.26L323.73,69.83L324.41,70.08L346.03,78.62L346.71,79.03L366.98,91.35L367.66,91.91L377.8,101.64L378.47,102.38L381.18,104.26L381.85,104.65L387.26,109.39L387.93,110.04L394.02,115.34L394.69,115.8L400.78,120.13L401.45,120.72L424.43,142.2L425.11,143.56L429.84,151.14L430.51,151.99L439.97,164.25L440.65,164.89L446.06,170.12L446.73,170.91L460.93,186.42L461.6,187L465.66,191.12L466.33,192.23L470.39,197.26L471.06,197.83L475.79,201.94L476.47,202.66L487.96,214.91L488.64,216.05L495.39,226.75L496.07,227.56L502.15,235.16L502.83,236.32L510.26,245.33L510.94,246.1L513.64,250.32L514.32,252.04L518.37,260.93L519.05,262.48L522.43,270.33L523.1,271.24L527.16,276.47L527.83,277.71L530.54,284.83L531.21,286.74L537.97,301.84L538.65,302.73L540,304" style="vector-effect: non-scaling-stroke; fill: none; stroke: rgb(68, 68, 68); stroke-opacity: 1; stroke-width: 0px; opacity: 1;"/></g><g class="points"/><g class="text"/></g><g class="trace scatter trace204955" style="stroke-miterlimit: 2;"><g class="fills"/><g class="errorbars"/><g class="lines"><path class="js-line" d="M0,17.3L72.99,17.91L73.67,17.94L102.05,19.92L102.73,19.98L168.29,26.24L168.96,26.39L197.35,30.87L198.02,31L225.73,36.87L226.41,37.14L236.55,40.16L237.22,40.31L276.42,51.71L277.1,51.88L288.59,55.88L289.26,56.14L300.08,60.58L300.75,61L308.19,65.18L308.86,65.36L322.38,69.23L323.05,69.47L348.74,80.02L349.41,80.36L363.6,88.65L364.28,89.2L373.07,96.19L373.74,96.85L380.5,103.71L381.18,104L385.23,107.03L385.91,107.76L392.67,114.02L393.34,114.53L398.07,117.95L398.75,118.39L402.8,121.83L403.48,122.4L420.38,137.94L421.05,138.68L425.11,143.14L425.78,144.38L433.22,155.66L433.89,156.31L435.92,159.18L436.6,160.2L439.3,163.37L439.97,164.01L448.76,173.16L449.44,173.94L456.87,181.87L457.55,182.66L467.01,193.04L467.68,194.07L471.74,198.14L472.42,198.71L481.88,207.22L482.55,207.91L487.96,214.62L488.64,215.76L495.39,226.48L496.07,227.28L502.15,234.81L502.83,235.98L510.26,244.95L510.94,245.71L513.64,249.86L514.32,251.56L518.37,260.37L519.05,261.89L522.43,269.79L523.1,270.71L527.16,275.88L527.83,277.11L530.54,284.21L531.21,286.13L538.65,302.64L539.32,303.42L540,304" style="vector-effect: non-scaling-stroke; fill: none; stroke: rgb(68, 68, 68); stroke-opacity: 1; stroke-width: 0px; opacity: 1;"/></g><g class="points"/><g class="text"/></g></g></g><g class="overplot"/><path class="xlines-above crisp" d="M0,0" style="fill: none;"/><path class="ylines-above crisp" d="M0,0" style="fill: none;"/><g class="overlines-above"/><g class="xaxislayer-above"><g class="xtick"><text text-anchor="middle" x="0" y="433" transform="translate(80,0)" style="font-family: 'Open Sans', verdana, arial, sans-serif; font-size: 12px; fill: rgb(42, 63, 95); fill-opacity: 1; white-space: pre; opacity: 1;">0</text></g><g class="xtick"><text text-anchor="middle" x="0" y="433" style="font-family: 'Open Sans', verdana, arial, sans-serif; font-size: 12px; fill: rgb(42, 63, 95); fill-opacity: 1; white-space: pre; opacity: 1;" transform="translate(215.17,0)">10</text></g><g class="xtick"><text text-anchor="middle" x="0" y="433" style="font-family: 'Open Sans', verdana, arial, sans-serif; font-size: 12px; fill: rgb(42, 63, 95); fill-opacity: 1; white-space: pre; opacity: 1;" transform="translate(350.34,0)">20</text></g><g class="xtick"><text text-anchor="middle" x="0" y="433" style="font-family: 'Open Sans', verdana, arial, sans-serif; font-size: 12px; fill: rgb(42, 63, 95); fill-opacity: 1; white-space: pre; opacity: 1;" transform="translate(485.51,0)">30</text></g></g><g class="yaxislayer-above"><g class="ytick"><text text-anchor="end" x="79" y="4.199999999999999" transform="translate(0,404)" style="font-family: 'Open Sans', verdana, arial, sans-serif; font-size: 12px; fill: rgb(42, 63, 95); fill-opacity: 1; white-space: pre; opacity: 1;">0</text></g><g class="ytick"><text text-anchor="end" x="79" y="4.199999999999999" style="font-family: 'Open Sans', verdana, arial, sans-serif; font-size: 12px; fill: rgb(42, 63, 95); fill-opacity: 1; white-space: pre; opacity: 1;" transform="translate(0,343.11)">0.0005</text></g><g class="ytick"><text text-anchor="end" x="79" y="4.199999999999999" style="font-family: 'Open Sans', verdana, arial, sans-serif; font-size: 12px; fill: rgb(42, 63, 95); fill-opacity: 1; white-space: pre; opacity: 1;" transform="translate(0,282.22)">0.001</text></g><g class="ytick"><text text-anchor="end" x="79" y="4.199999999999999" style="font-family: 'Open Sans', verdana, arial, sans-serif; font-size: 12px; fill: rgb(42, 63, 95); fill-opacity: 1; white-space: pre; opacity: 1;" transform="translate(0,221.32999999999998)">0.0015</text></g><g class="ytick"><text text-anchor="end" x="79" y="4.199999999999999" style="font-family: 'Open Sans', verdana, arial, sans-serif; font-size: 12px; fill: rgb(42, 63, 95); fill-opacity: 1; white-space: pre; opacity: 1;" transform="translate(0,160.44)">0.002</text></g></g><g class="overaxes-above"/></g></g><g class="polarlayer"/><g class="smithlayer"/><g class="ternarylayer"/><g class="geolayer"/><g class="funnelarealayer"/><g class="pielayer"/><g class="iciclelayer"/><g class="treemaplayer"/><g class="sunburstlayer"/><g class="glimages"/><defs id="topdefs-15f37d"><g class="clips"/></defs><g class="layer-above"><g class="imagelayer"/><g class="shapelayer"/></g><g class="infolayer"><g class="g-gtitle"><text class="gtitle" x="35" y="50" text-anchor="start" dy="0em" style="font-family: 'Open Sans', verdana, arial, sans-serif; font-size: 17px; fill: rgb(42, 63, 95); opacity: 1; font-weight: normal; white-space: pre;">Ion potential</text></g><g class="g-xtitle"><text class="xtitle" x="350" y="460.8" text-anchor="middle" style="font-family: 'Open Sans', verdana, arial, sans-serif; font-size: 14px; fill: rgb(42, 63, 95); opacity: 1; font-weight: normal; white-space: pre;">Distance from anode (µm)</text></g><g class="g-ytitle" transform="translate(2.3154296875,0)"><text class="ytitle" transform="rotate(-90,11.684375000000003,260)" x="11.684375000000003" y="260" text-anchor="middle" style="font-family: 'Open Sans', verdana, arial, sans-serif; font-size: 14px; fill: rgb(42, 63, 95); opacity: 1; font-weight: normal; white-space: pre;">Ion potential (V)</text></g></g></svg>