<svg class="main-svg" xmlns="http://www.w3.org/2000/svg" xmlns:xlink="http://www.w3.org/1999/xlink" width="700" height="500" style="" viewBox="0 0 700 500"><rect x="0" y="0" width="700" height="500" style="fill: rgb(255, 255, 255); fill-opacity: 1;"/><defs id="defs-567531"><g class="clips"><clipPath id="clip567531xyplot" class="plotclip"><rect width="540" height="320"/></clipPath><clipPath class="axesclip" id="clip567531x"><rect x="80" y="0" width="540" height="500"/></clipPath><clipPath class="axesclip" id="clip567531y"><rect x="0" y="100" width="700" height="320"/></clipPath><clipPath class="axesclip" id="clip567531xy"><rect x="80" y="100" width="540" height="320"/></clipPath></g><g class="gradients"/><g class="patterns"/></defs><g class="bglayer"><rect class="bg" x="80" y="100" width="540" height="320" style="fill: rgb(229, 236, 246); fill-opacity: 1; stroke-width: 0;"/></g><g class="layer-below"><g class="imagelayer"/><g class="shapelayer"/></g><g class="cartesianlayer"><g class="subplot xy"><g class="layer-subplot"><g class="shapelayer"/><g class="imagelayer"/></g><g class="minor-gridlayer"><g class="x"/><g class="y"/></g><g class="gridlayer"><g class="x"><path class="xgrid crisp" transform="translate(215.34,0)" d="M0,100v320" style="stroke: rgb(255, 255, 255); stroke-opacity: 1; stroke-width: 1px;"/><path class="xgrid crisp" transform="translate(350.68,0)" d="M0,100v320" style="stroke: rgb(255, 255, 255); stroke-opacity: 1; stroke-width: 1px;"/><path class="xgrid crisp" transform="translate(486.02,0)" d="M0,100v320" style="stroke: rgb(255, 255, 255); stroke-opacity: 1; stroke-width: 1px;"/></g><g class="y"><path class="ygrid crisp" transform="translate(0,332.32)" d="M80,0h540" style="stroke: rgb(255, 255, 255); stroke-opacity: 1; stroke-width: 1px;"/><path class="ygrid crisp" transform="translate(0,260.64)" d="M80,0h540" style="stroke: rgb(255, 255, 255); stroke-opacity: 1; stroke-width: 1px;"/><path class="ygrid crisp" transform="translate(0,188.95999999999998)" d="M80,0h540" style="stroke: rgb(255, 255, 255); stroke-opacity: 1; stroke-width: 1px;"/><path class="ygrid crisp" transform="translate(0,117.28)" d="M80,0h540" style="stroke: rgb(255, 255, 255); stroke-opacity: 1; stroke-width: 1px;"/></g></g><g class="zerolinelayer"><path class="xzl zl crisp" transform="translate(80,0)" d="M0,100v320" style="stroke: rgb(255, 255, 255); stroke-opacity: 1; stroke-width: 2px;"/><path class="yzl zl crisp" transform="translate(0,404)" d="M80,0h540" style="stroke: rgb(255, 255, 255); stroke-opacity: 1; stroke-width: 2px;"/></g><path class="xlines-below"/><path class="ylines-below"/><g class="overlines-below"/><g class="xaxislayer-below"/><g class="yaxislayer-below"/><g class="overaxes-below"/><g class="plot" transform="translate(80,100)" clip-path="url(#clip567531xyplot)"><g class="scatterlayer mlayer"><g class="trace scatter traced3babf" style="stroke-miterlimit: 2;"><g class="fills"><g><path class="js-fill" d="M0,17.77L28.42,18.49L29.77,18.99L46.02,19.83L47.37,19.95L56.84,20.85L58.2,22.24L67.67,23.32L69.02,23.35L74.44,23.43L75.79,25.23L96.09,25.95L97.44,26.17L100.15,27.08L101.5,27.12L105.56,27.75L106.92,28.95L124.51,32.4L125.86,33.53L128.57,33.72L129.92,34.62L135.34,35.25L136.69,35.51L143.46,37.76L144.81,38.33L147.52,39.42L148.87,40.35L152.93,41.89L154.29,41.94L158.35,42.42L159.7,44.65L163.76,45.72L165.11,46.57L166.47,48.56L167.82,48.71L177.29,50.59L178.65,51.25L181.35,51.83L182.71,52.93L185.41,55.09L186.77,55.33L190.83,55.73L192.18,57.13L201.65,57.74L203.01,58.58L207.07,60.59L208.42,60.86L213.83,64.22L215.19,64.73L224.66,66.46L226.02,67.59L228.72,68.82L230.08,68.91L235.49,70.11L236.84,71.09L238.2,73.62L239.55,74.33L240.9,81.45L242.26,81.46L250.38,81.89L251.73,82.65L258.5,83.24L259.85,83.76L261.2,84.06L262.56,86.08L272.03,86.97L273.38,89.39L278.8,89.84L280.15,91.34L282.86,92.06L284.21,93.24L290.98,94.62L292.33,96.84L293.68,98.17L295.04,98.27L297.74,98.51L299.1,108.5L301.8,108.6L303.16,116.15L304.51,118.54L305.86,118.58L318.05,119.78L319.4,120.22L322.11,120.61L323.46,123.04L327.52,123.45L328.87,124.53L330.23,130.65L331.58,130.87L336.99,131.11L338.35,132.38L343.76,136.3L345.11,138.68L350.53,138.85L351.88,141.56L354.59,141.83L355.94,147.01L364.06,148.31L365.41,149.59L370.83,151.67L372.18,153.34L374.89,155.23L376.24,157.11L377.59,157.56L378.95,164.61L380.3,166.14L381.65,166.4L383.01,181.23L384.36,181.38L392.48,181.46L393.83,182.76L397.89,183.41L399.25,184.55L407.37,186.55L408.72,211.18L419.55,211.71L420.9,212.72L424.96,214.82L426.32,214.87L429.02,215.45L430.38,216.15L434.44,219.12L435.79,219.16L438.5,220.98L439.85,223.46L441.2,228.43L442.56,230.12L445.26,236.87L446.62,238.35L460.15,240.93L461.5,241.82L465.56,246.71L466.92,252.09L469.62,258.34L470.98,258.44L473.68,259.53L475.04,261.09L476.39,266.8L477.74,266.99L480.45,268.02L481.8,269L483.16,270.31L484.51,276.35L489.92,276.59L491.28,278.23L492.63,278.32L493.98,280.56L498.05,280.77L499.4,284.3L502.11,284.85L503.46,285.75L508.87,287.01L510.23,287.52L511.58,291.95L512.93,292.71L514.29,294.64L515.64,298.09L516.99,298.29L518.35,300.97L525.11,301.12L526.47,302.94L540,304L540,304L538.65,295.88L537.29,295.68L535.94,292.15L534.59,291.79L533.23,286.66L531.88,286.26L530.53,284.68L526.47,282.94L525.11,282.54L523.76,276.64L522.41,260.43L518.35,260.28L516.99,259.14L515.64,258.95L514.29,258.63L512.93,255.17L511.58,254.89L508.87,253.77L507.52,252.95L502.11,250.92L500.75,247.32L498.05,246.09L496.69,240.71L488.57,239.65L487.22,223.01L484.51,221.48L483.16,220.66L480.45,220.76L479.1,216.82L476.39,216.3L475.04,216.37L473.68,215.5L472.33,213.5L468.27,209.2L466.92,200.98L465.56,196.92L464.21,190.53L454.74,190.3L453.38,189.84L452.03,186.98L450.68,175.02L449.32,172.56L447.97,171.55L446.62,166.38L445.26,165.83L438.5,166.38L437.14,166.21L435.79,164.64L434.44,164.58L431.73,164.03L430.38,162.94L427.67,161.52L426.32,161.33L419.55,159.9L418.2,159.64L412.78,158.7L411.43,158.58L410.08,157.42L408.72,148.78L397.89,148.5L396.54,148.54L393.83,147.09L392.48,142L389.77,142.16L388.42,142.91L384.36,142.21L383.01,137.07L380.3,136.85L378.95,118.74L366.77,118.71L365.41,118.68L353.23,116.89L351.88,116.7L350.53,112.06L349.17,110.85L343.76,109.45L342.41,108.97L341.05,104.37L339.7,104.4L338.35,102.62L336.99,102.39L331.58,101.17L330.23,101.15L328.87,99.62L327.52,100.38L326.17,100.38L324.81,97.99L319.4,95.96L318.05,95.29L315.34,94L313.98,90.74L312.63,90.61L311.28,87.92L307.22,87.64L305.86,85.06L303.16,84.94L301.8,82.98L293.68,82.79L292.33,80.1L286.92,79.38L285.56,78.19L282.86,77.8L281.5,76.71L277.44,76.53L276.09,75.54L272.03,75.19L270.68,74.97L267.97,72.2L266.62,72.18L265.26,68.79L263.91,68.82L261.2,66.87L259.85,66.9L255.79,66.51L254.44,64.37L250.38,64.36L249.02,64.39L247.67,61.61L246.32,61.64L244.96,59.58L243.61,58.02L231.43,57.47L230.08,57.33L226.02,55.45L224.66,50.09L211.13,49.27L209.77,49.2L194.89,46.99L193.53,45.53L188.12,42.84L186.77,41.06L185.41,41.06L184.06,41.06L177.29,38.95L175.94,37.52L171.88,35.66L170.53,34.36L163.76,33.87L162.41,28.2L150.23,28.04L148.87,27.99L128.57,27L127.22,26.07L120.45,25.71L119.1,22.03L115.04,21.81L113.68,21.89L108.27,22.68L106.92,22.93L87.97,20.9L86.62,20.71L82.56,19.8L81.2,17.61L55.49,17.55L54.14,16.79L37.89,16.91L36.54,16.88L28.42,16.63L27.07,16.35L0,16.36Z" style="fill: rgb(68, 68, 68); fill-opacity: 0.3; stroke-width: 0;"/></g></g><g class="errorbars"/><g class="lines"><path class="js-line" d="M0,16.36L27.07,16.35L28.42,16.63L36.54,16.88L37.89,16.91L54.14,16.79L55.49,17.55L81.2,17.61L82.56,19.8L86.62,20.71L87.97,20.9L106.92,22.93L108.27,22.68L113.68,21.89L115.04,21.81L119.1,22.03L120.45,25.71L127.22,26.07L128.57,27L148.87,27.99L150.23,28.04L162.41,28.2L163.76,33.87L170.53,34.36L171.88,35.66L175.94,37.52L177.29,38.95L184.06,41.06L185.41,41.06L186.77,41.06L188.12,42.84L193.53,45.53L194.89,46.99L209.77,49.2L211.13,49.27L224.66,50.09L226.02,55.45L230.08,57.33L231.43,57.47L243.61,58.02L244.96,59.58L246.32,61.64L247.67,61.61L249.02,64.39L250.38,64.36L254.44,64.37L255.79,66.51L259.85,66.9L261.2,66.87L263.91,68.82L265.26,68.79L266.62,72.18L267.97,72.2L270.68,74.97L272.03,75.19L276.09,75.54L277.44,76.53L281.5,76.71L282.86,77.8L285.56,78.19L286.92,79.38L292.33,80.1L293.68,82.79L301.8,82.98L303.16,84.94L305.86,85.06L307.22,87.64L311.28,87.92L312.63,90.61L313.98,90.74L315.34,94L318.05,95.29L319.4,95.96L324.81,97.99L326.17,100.38L327.52,100.38L328.87,99.62L330.23,101.15L331.58,101.17L336.99,102.39L338.35,102.62L339.7,104.4L341.05,104.37L342.41,108.97L343.76,109.45L349.17,110.85L350.53,112.06L351.88,116.7L353.23,116.89L365.41,118.68L366.77,118.71L378.95,118.74L380.3,136.85L383.01,137.07L384.36,142.21L388.42,142.91L389.77,142.16L392.48,142L393.83,147.09L396.54,148.54L397.89,148.5L408.72,148.78L410.08,157.42L411.43,158.58L412.78,158.7L418.2,159.64L419.55,159.9L426.32,161.33L427.67,161.52L430.38,162.94L431.73,164.03L434.44,164.58L435.79,164.64L437.14,166.21L438.5,166.38L445.26,165.83L446.62,166.38L447.97,171.55L449.32,172.56L450.68,175.02L452.03,186.98L453.38,189.84L454.74,190.3L464.21,190.53L465.56,196.92L466.92,200.98L468.27,209.2L472.33,213.5L473.68,215.5L475.04,216.37L476.39,216.3L479.1,216.82L480.45,220.76L483.16,220.66L484.51,221.48L487.22,223.01L488.57,239.65L496.69,240.71L498.05,246.09L500.75,247.32L502.11,250.92L507.52,252.95L508.87,253.77L511.58,254.89L512.93,255.17L514.29,258.63L515.64,258.95L516.99,259.14L518.35,260.28L522.41,260.43L523.76,276.64L525.11,282.54L526.47,282.94L530.53,284.68L531.88,286.26L533.23,286.66L534.59,291.79L535.94,292.15L537.29,295.68L538.65,295.88L540,304" style="vector-effect: non-scaling-stroke; fill: none; stroke: rgb(68, 68, 68); stroke-opacity: 1; stroke-width: 0px; opacity: 1;"/></g><g class="points"/><g class="text"/></g><g class="trace scatter trace2962b7" style="stroke-miterlimit: 2;"><g class="fills"/><g class="errorbars"/><g class="lines"><path class="js-line" d="M0,17.77L28.42,18.49L29.77,18.99L46.02,19.83L47.37,19.95L56.84,20.85L58.2,22.24L67.67,23.32L69.02,23.35L74.44,23.43L75.79,25.23L96.09,25.95L97.44,26.17L100.15,27.08L101.5,27.12L105.56,27.75L106.92,28.95L124.51,32.4L125.86,33.53L128.57,33.72L129.92,34.62L135.34,35.25L136.69,35.51L143.46,37.76L144.81,38.33L147.52,39.42L148.87,40.35L152.93,41.89L154.29,41.94L158.35,42.42L159.7,44.65L163.76,45.72L165.11,46.57L166.47,48.56L167.82,48.71L177.29,50.59L178.65,51.25L181.35,51.83L182.71,52.93L185.41,55.09L186.77,55.33L190.83,55.73L192.18,57.13L201.65,57.74L203.01,58.58L207.07,60.59L208.42,60.86L213.83,64.22L215.19,64.73L224.66,66.46L226.02,67.59L228.72,68.82L230.08,68.91L235.49,70.11L236.84,71.09L238.2,73.62L239.55,74.33L240.9,81.45L242.26,81.46L250.38,81.89L251.73,82.65L258.5,83.24L259.85,83.76L261.2,84.06L262.56,86.08L272.03,86.97L273.38,89.39L278.8,89.84L280.15,91.34L282.86,92.06L284.21,93.24L290.98,94.62L292.33,96.84L293.68,98.17L295.04,98.27L297.74,98.51L299.1,108.5L301.8,108.6L303.16,116.15L304.51,118.54L305.86,118.58L318.05,119.78L319.4,120.22L322.11,120.61L323.46,123.04L327.52,123.45L328.87,124.53L330.23,130.65L331.58,130.87L336.99,131.11L338.35,132.38L343.76,136.3L345.11,138.68L350.53,138.85L351.88,141.56L354.59,141.83L355.94,147.01L364.06,148.31L365.41,149.59L370.83,151.67L372.18,153.34L374.89,155.23L376.24,157.11L377.59,157.56L378.95,164.61L380.3,166.14L381.65,166.4L383.01,181.23L384.36,181.38L392.48,181.46L393.83,182.76L397.89,183.41L399.25,184.55L407.37,186.55L408.72,211.18L419.55,211.71L420.9,212.72L424.96,214.82L426.32,214.87L429.02,215.45L430.38,216.15L434.44,219.12L435.79,219.16L438.5,220.98L439.85,223.46L441.2,228.43L442.56,230.12L445.26,236.87L446.62,238.35L460.15,240.93L461.5,241.82L465.56,246.71L466.92,252.09L469.62,258.34L470.98,258.44L473.68,259.53L475.04,261.09L476.39,266.8L477.74,266.99L480.45,268.02L481.8,269L483.16,270.31L484.51,276.35L489.92,276.59L491.28,278.23L492.63,278.32L493.98,280.56L498.05,280.77L499.4,284.3L502.11,284.85L503.46,285.75L508.87,287.01L510.23,287.52L511.58,291.95L512.93,292.71L514.29,294.64L515.64,298.09L516.99,298.29L518.35,300.97L525.11,301.12L526.47,302.94L540,304" style="vector-effect: non-scaling-stroke; fill: none; stroke: rgb(68, 68, 68); stroke-opacity: 1; stroke-width: 0px; opacity: 1;"/></g><g class="points"/><g class="text"/></g><g class="trace scatter trace8814b5" style="stroke-miterlimit: 2; opacity: 1;"><g class="fills"/><g class="errorbars"/><g class="lines"><path class="js-line" d="M0,16.99L27.07,17.47L28.42,17.53L62.26,19.91L63.61,20.11L101.5,24.98L102.86,25.2L127.22,29.92L128.57,30.19L146.17,34.07L147.52,34.36L155.64,37.2L156.99,37.7L175.94,44.69L177.29,44.97L184.06,47.27L185.41,47.9L192.18,50.75L193.53,51.2L203.01,53.99L204.36,54.39L223.31,61.02L224.66,61.54L239.55,67.17L240.9,67.61L251.73,71.51L253.08,72.03L261.2,75.84L262.56,76.58L270.68,80.22L272.03,80.62L282.86,84.61L284.21,85.25L305.86,96.48L307.22,97.62L313.98,102.89L315.34,103.7L323.46,107.9L324.81,108.75L334.29,115.21L335.64,116.49L339.7,120.14L341.05,121.02L353.23,129.63L354.59,130.6L368.12,138.6L369.47,139.23L374.89,142.36L376.24,143.32L380.3,146.69L381.65,148.16L389.77,156.66L391.13,157.48L395.19,159.96L396.54,161.19L414.14,175.59L415.49,176.64L426.32,185.2L427.67,186.63L435.79,195.9L437.14,197.01L441.2,200.61L442.56,202.29L446.62,207.12L447.97,208.45L450.68,210.55L452.03,212.07L461.5,226.31L462.86,227.8L476.39,239.96L477.74,241.59L498.05,264.67L499.4,265.96L510.23,276.29L511.58,277.24L516.99,283.35L518.35,285.42L526.47,294.35L527.82,295.41L537.29,302.52L538.65,303.32L540,304" style="vector-effect: non-scaling-stroke; fill: none; stroke: rgb(31, 119, 180); stroke-opacity: 1; stroke-width: 2px; opacity: 1;"/></g><g class="points"/><g class="text"/></g><g class="trace scatter trace3254b9" style="stroke-miterlimit: 2;"><g class="fills"><g><path class="js-fill" d="M0,16.97L31.13,17.66L32.48,17.71L60.9,19.7L62.26,19.89L120.45,28.51L121.8,28.79L152.93,35.87L154.29,36.51L169.17,42.5L170.53,43.02L186.77,48.55L188.12,49.24L197.59,52.43L198.95,52.82L213.83,57.67L215.19,58.13L259.85,75.04L261.2,75.76L270.68,80.15L272.03,80.55L282.86,84.52L284.21,85.15L305.86,96.35L307.22,97.47L313.98,102.72L315.34,103.54L323.46,107.74L324.81,108.59L334.29,115.03L335.64,116.31L339.7,119.98L341.05,120.87L353.23,129.47L354.59,130.44L368.12,138.47L369.47,139.11L374.89,142.23L376.24,143.19L380.3,146.56L381.65,148L389.77,156.42L391.13,157.25L395.19,159.74L396.54,160.97L414.14,175.34L415.49,176.39L426.32,184.9L427.67,186.33L435.79,195.58L437.14,196.69L441.2,200.24L442.56,201.92L446.62,206.78L447.97,208.1L450.68,210.17L452.03,211.67L461.5,225.99L462.86,227.53L477.74,241.33L479.1,242.95L489.92,254.86L491.28,256.8L495.34,261.67L496.69,263.12L510.23,276.07L511.58,277.02L516.99,283.16L518.35,285.27L526.47,294.24L527.82,295.3L537.29,302.48L538.65,303.3L540,304L540,304L538.65,303.35L537.29,302.56L527.82,295.51L526.47,294.46L518.35,285.58L516.99,283.53L511.58,277.46L510.23,276.51L499.4,266.2L498.05,264.91L477.74,241.84L476.39,240.21L462.86,228.07L461.5,226.62L452.03,212.47L450.68,210.93L447.97,208.81L446.62,207.46L442.56,202.66L441.2,200.98L437.14,197.33L435.79,196.21L427.67,186.93L426.32,185.5L412.78,174.79L411.43,174.03L397.89,162.55L396.54,161.41L389.77,156.9L388.42,156.02L385.71,152.96L384.36,151.32L377.59,144.4L376.24,143.45L365.41,137.36L364.06,136.72L353.23,129.8L351.88,128.58L341.05,121.18L339.7,120.3L335.64,116.67L334.29,115.39L324.81,108.91L323.46,108.06L315.34,103.87L313.98,103.05L307.22,97.77L305.86,96.61L284.21,85.35L282.86,84.7L273.38,81.1L272.03,80.69L257.14,73.84L255.79,73.19L239.55,67.25L238.2,66.66L226.02,62.19L224.66,61.61L204.36,54.45L203.01,54.06L193.53,51.27L192.18,50.82L185.41,47.97L184.06,47.34L177.29,45.03L175.94,44.75L166.47,41.51L165.11,41.03L152.93,36.01L151.58,35.54L120.45,28.59L119.1,28.29L62.26,19.94L60.9,19.75L32.48,17.74L31.13,17.68L0,17Z" style="fill: rgb(68, 68, 68); fill-opacity: 0.7; stroke-width: 0;"/></g></g><g class="errorbars"/><g class="lines"><path class="js-line" d="M0,17L31.13,17.68L32.48,17.74L60.9,19.75L62.26,19.94L119.1,28.29L120.45,28.59L151.58,35.54L152.93,36.01L165.11,41.03L166.47,41.51L175.94,44.75L177.29,45.03L184.06,47.34L185.41,47.97L192.18,50.82L193.53,51.27L203.01,54.06L204.36,54.45L224.66,61.61L226.02,62.19L238.2,66.66L239.55,67.25L255.79,73.19L257.14,73.84L272.03,80.69L273.38,81.1L282.86,84.7L284.21,85.35L305.86,96.61L307.22,97.77L313.98,103.05L315.34,103.87L323.46,108.06L324.81,108.91L334.29,115.39L335.64,116.67L339.7,120.3L341.05,121.18L351.88,128.58L353.23,129.8L364.06,136.72L365.41,137.36L376.24,143.45L377.59,144.4L384.36,151.32L385.71,152.96L388.42,156.02L389.77,156.9L396.54,161.41L397.89,162.55L411.43,174.03L412.78,174.79L426.32,185.5L427.67,186.93L435.79,196.21L437.14,197.33L441.2,200.98L442.56,202.66L446.62,207.46L447.97,208.81L450.68,210.93L452.03,212.47L461.5,226.62L462.86,228.07L476.39,240.21L477.74,241.84L498.05,264.91L499.4,266.2L510.23,276.51L511.58,277.46L516.99,283.53L518.35,285.58L526.47,294.46L527.82,295.51L537.29,302.56L538.65,303.35L540,304" style="vector-effect: non-scaling-stroke; fill: none; stroke: rgb(68, 68, 68); stroke-opacity: 1; stroke-width: 0px; opacity: 1;"/></g><g class="points"/><g class="text"/></g><g class="trace scatter traceead5d0" style="stroke-miterlimit: 2;"><g class="fills"/><g class="errorbars"/><g class="lines"><path class="js-line" d="M0,16.97L31.13,17.66L32.48,17.71L60.9,19.7L62.26,19.89L120.45,28.51L121.8,28.79L152.93,35.87L154.29,36.51L169.17,42.5L170.53,43.02L186.77,48.55L188.12,49.24L197.59,52.43L198.95,52.82L213.83,57.67L215.19,58.13L259.85,75.04L261.2,75.76L270.68,80.15L272.03,80.55L282.86,84.52L284.21,85.15L305.86,96.35L307.22,97.47L313.98,102.72L315.34,103.54L323.46,107.74L324.81,108.59L334.29,115.03L335.64,116.31L339.7,119.98L341.05,120.87L353.23,129.47L354.59,130.44L368.12,138.47L369.47,139.11L374.89,142.23L376.24,143.19L380.3,146.56L381.65,148L389.77,156.42L391.13,157.25L395.19,159.74L396.54,160.97L414.14,175.34L415.49,176.39L426.32,184.9L427.67,186.33L435.79,195.58L437.14,196.69L441.2,200.24L442.56,201.92L446.62,206.78L447.97,208.1L450.68,210.17L452.03,211.67L461.5,225.99L462.86,227.53L477.74,241.33L479.1,242.95L489.92,254.86L491.28,256.8L495.34,261.67L496.69,263.12L510.23,276.07L511.58,277.02L516.99,283.16L518.35,285.27L526.47,294.24L527.82,295.3L537.29,302.48L538.65,303.3L540,304" style="vector-effect: non-scaling-stroke; fill: none; stroke: rgb(68, 68, 68); stroke-opacity: 1; stroke-width: 0px; opacity: 1;"/></g><g class="points"/><g class="text"/></g></g></g><g class="overplot"/><path class="xlines-above crisp" d="M0,0" style="fill: none;"/><path class="ylines-above crisp" d="M0,0" style="fill: none;"/><g class="overlines-above"/><g class="xaxislayer-above"><g class="xtick"><text text-anchor="middle" x="0" y="433" transform="translate(80,0)" style="font-family: 'Open Sans', verdana, arial, sans-serif; font-size: 12px; fill: rgb(42, 63, 95); fill-opacity: 1; white-space: pre; opacity: 1;">0</text></g><g class="xtick"><text text-anchor="middle" x="0" y="433" style="font-family: 'Open Sans', verdana, arial, sans-serif; font-size: 12px; fill: rgb(42, 63, 95); fill-opacity: 1; white-space: pre; opacity: 1;" transform="translate(215.34,0)">5</text></g><g class="xtick"><text text-anchor="middle" x="0" y="433" style="font-family: 'Open Sans', verdana, arial, sans-serif; font-size: 12px; fill: rgb(42, 63, 95); fill-opacity: 1; white-space: pre; opacity: 1;" transform="translate(350.68,0)">10</text></g><g class="xtick"><text text-anchor="middle" x="0" y="433" style="font-family: 'Open Sans', verdana, arial, sans-serif; font-size: 12px; fill: rgb(42, 63, 95); fill-opacity: 1; white-space: pre; opacity: 1;" transform="translate(486.02,0)">15</text></g></g><g class="yaxislayer-above"><g class="ytick"><text text-anchor="end" x="79" y="4.199999999999999" transform="translate(0,404)" style="font-family: 'Open Sans', verdana, arial, sans-serif; font-size: 12px; fill: rgb(42, 63, 95); fill-opacity: 1; white-space: pre; opacity: 1;">0</text></g><g class="ytick"><text text-anchor="end" x="79" y="4.199999999999999" style="font-family: 'Open Sans', verdana, arial, sans-serif; font-size: 12px; fill: rgb(42, 63, 95); fill-opacity: 1; white-space: pre; opacity: 1;" transform="translate(0,332.32)">0.0005</text></g><g class="ytick"><text text-anchor="end" x="79" y="4.199999999999999" style="font-family: 'Open Sans', verdana, arial, sans-serif; font-size: 12px; fill: rgb(42, 63, 95); fill-opacity: 1; white-space: pre; opacity: 1;" transform="translate(0,260.64)">0.001</text></g><g class="ytick"><text text-anchor="end" x="79" y="4.199999999999999" style="font-family: 'Open Sans', verdana, arial, sans-serif; font-size: 12px; fill: rgb(42, 63, 95); fill-opacity: 1; white-space: pre; opacity: 1;" transform="translate(0,188.95999999999998)">0.0015</text></g><g class="ytick"><text text-anchor="end" x="79" y="4.199999999999999" style="font-family: 'Open Sans', verdana, arial, sans-serif; font-size: 12px; fill: rgb(42, 63, 95); fill-opacity: 1; white-space: pre; opacity: 1;" transform="translate(0,117.28)">0.002</text></g></g><g class="overaxes-above"/></g></g><g class="polarlayer"/><g class="smithlayer"/><g class="ternarylayer"/><g class="geolayer"/><g class="funnelarealayer"/><g class="pielayer"/><g class="iciclelayer"/><g class="treemaplayer"/><g class="sunburstlayer"/><g class="glimages"/><defs id="topdefs-567531"><g class="clips"/></defs><g class="layer-above"><g class="imagelayer"/><g class="shapelayer"/></g><g class="infolayer"><g class="g-gtitle"><text class="gtitle" x="35" y="50" text-anchor="start" dy="0em" style="font-family: 'Open Sans', verdana, arial, sans-serif; font-size: 17px; fill: rgb(42, 63, 95); opacity: 1; font-weight: normal; white-space: pre;">Ion potential</text></g><g class="g-xtitle"><text class="xtitle" x="350" y="460.8" text-anchor="middle" style="font-family: 'Open Sans', verdana, arial, sans-serif; font-size: 14px; fill: rgb(42, 63, 95); opacity: 1; font-weight: normal; white-space: pre;">Distance from anode (µm)</text></g><g class="g-ytitle" transform="translate(2.3154296875,0)"><text class="ytitle" transform="rotate(-90,11.684375000000003,260)" x="11.684375000000003" y="260" text-anchor="middle" style="font-family: 'Open Sans', verdana, arial, sans-serif; font-size: 14px; fill: rgb(42, 63, 95); opacity: 1; font-weight: normal; white-space: pre;">Ion potential (V)</text></g></g></svg>