<svg class="main-svg" xmlns="http://www.w3.org/2000/svg" xmlns:xlink="http://www.w3.org/1999/xlink" width="700" height="500" style="" viewBox="0 0 700 500"><rect x="0" y="0" width="700" height="500" style="fill: rgb(255, 255, 255); fill-opacity: 1;"/><defs id="defs-61aeea"><g class="clips"><clipPath id="clip61aeeaxyplot" class="plotclip"><rect width="540" height="320"/></clipPath><clipPath class="axesclip" id="clip61aeeax"><rect x="80" y="0" width="540" height="500"/></clipPath><clipPath class="axesclip" id="clip61aeeay"><rect x="0" y="100" width="700" height="320"/></clipPath><clipPath class="axesclip" id="clip61aeeaxy"><rect x="80" y="100" width="540" height="320"/></clipPath></g><g class="gradients"/><g class="patterns"/></defs><g class="bglayer"><rect class="bg" x="80" y="100" width="540" height="320" style="fill: rgb(229, 236, 246); fill-opacity: 1; stroke-width: 0;"/></g><g class="layer-below"><g class="imagelayer"/><g class="shapelayer"/></g><g class="cartesianlayer"><g class="subplot xy"><g class="layer-subplot"><g class="shapelayer"/><g class="imagelayer"/></g><g class="minor-gridlayer"><g class="x"/><g class="y"/></g><g class="gridlayer"><g class="x"><path class="xgrid crisp" transform="translate(152.48000000000002,0)" d="M0,100v320" style="stroke: rgb(255, 255, 255); stroke-opacity: 1; stroke-width: 1px;"/><path class="xgrid crisp" transform="translate(224.97,0)" d="M0,100v320" style="stroke: rgb(255, 255, 255); stroke-opacity: 1; stroke-width: 1px;"/><path class="xgrid crisp" transform="translate(297.45,0)" d="M0,100v320" style="stroke: rgb(255, 255, 255); stroke-opacity: 1; stroke-width: 1px;"/><path class="xgrid crisp" transform="translate(369.93,0)" d="M0,100v320" style="stroke: rgb(255, 255, 255); stroke-opacity: 1; stroke-width: 1px;"/><path class="xgrid crisp" transform="translate(442.42,0)" d="M0,100v320" style="stroke: rgb(255, 255, 255); stroke-opacity: 1; stroke-width: 1px;"/><path class="xgrid crisp" transform="translate(514.9,0)" d="M0,100v320" style="stroke: rgb(255, 255, 255); stroke-opacity: 1; stroke-width: 1px;"/><path class="xgrid crisp" transform="translate(587.38,0)" d="M0,100v320" style="stroke: rgb(255, 255, 255); stroke-opacity: 1; stroke-width: 1px;"/></g><g class="y"><path class="ygrid crisp" transform="translate(0,357.1)" d="M80,0h540" style="stroke: rgb(255, 255, 255); stroke-opacity: 1; stroke-width: 1px;"/><path class="ygrid crisp" transform="translate(0,310.21000000000004)" d="M80,0h540" style="stroke: rgb(255, 255, 255); stroke-opacity: 1; stroke-width: 1px;"/><path class="ygrid crisp" transform="translate(0,263.31)" d="M80,0h540" style="stroke: rgb(255, 255, 255); stroke-opacity: 1; stroke-width: 1px;"/><path class="ygrid crisp" transform="translate(0,216.42000000000002)" d="M80,0h540" style="stroke: rgb(255, 255, 255); stroke-opacity: 1; stroke-width: 1px;"/><path class="ygrid crisp" transform="translate(0,169.51999999999998)" d="M80,0h540" style="stroke: rgb(255, 255, 255); stroke-opacity: 1; stroke-width: 1px;"/><path class="ygrid crisp" transform="translate(0,122.62)" d="M80,0h540" style="stroke: rgb(255, 255, 255); stroke-opacity: 1; stroke-width: 1px;"/></g></g><g class="zerolinelayer"><path class="xzl zl crisp" transform="translate(80,0)" d="M0,100v320" style="stroke: rgb(255, 255, 255); stroke-opacity: 1; stroke-width: 2px;"/><path class="yzl zl crisp" transform="translate(0,404)" d="M80,0h540" style="stroke: rgb(255, 255, 255); stroke-opacity: 1; stroke-width: 2px;"/></g><path class="xlines-below"/><path class="ylines-below"/><g class="overlines-below"/><g class="xaxislayer-below"/><g class="yaxislayer-below"/><g class="overaxes-below"/><g class="plot" transform="translate(80,100)" clip-path="url(#clip61aeeaxyplot)"><g class="scatterlayer mlayer"><g class="trace scatter trace837143" style="stroke-miterlimit: 2;"><g class="fills"><g><path class="js-fill" d="M0,26.82L25.37,26.9L28.99,27.94L43.49,28.51L47.11,28.62L57.99,29.11L61.61,31.06L68.86,32.17L72.48,32.43L76.11,32.83L79.73,34.48L90.6,35.13L94.23,35.98L108.72,36.77L112.35,36.96L115.97,37.12L119.6,39.42L123.22,39.48L126.85,48.48L148.59,48.82L152.21,50.55L173.96,52.36L177.58,60.33L188.46,60.82L192.08,61.84L199.33,62.8L202.95,64.24L206.58,65.91L210.2,66.69L213.83,67.58L217.45,70.04L221.07,72.41L224.7,73.39L231.95,76.58L235.57,78.84L239.19,81.18L242.82,81.89L250.07,83.11L253.69,83.37L260.94,84.35L264.56,85.59L271.81,86.75L275.44,87.09L279.06,87.22L282.68,88.3L289.93,96.15L293.56,98.15L297.18,101.88L300.81,109.49L304.43,113.79L308.05,116.71L311.68,120.86L315.3,121.29L318.93,123.1L322.55,125.97L326.17,132.25L329.8,135.93L344.3,137.24L347.92,137.94L355.17,140.37L358.79,142.56L366.04,146.5L369.66,188.01L376.91,192.05L380.54,192.95L391.41,194.07L395.03,195.05L413.15,202.29L416.78,204.3L420.4,205.63L424.03,207.83L427.65,209.24L431.28,212.5L434.9,217.2L438.52,224.85L442.15,230.51L445.77,232.33L449.4,232.84L453.02,234.71L456.64,238.79L460.27,240.6L463.89,242.13L467.52,245.49L471.14,250.04L474.77,252.24L478.39,253.41L482.01,255.93L489.26,263.39L492.89,270.46L500.13,271L503.76,275.44L507.38,281.75L511.01,294.03L518.26,297.27L521.88,300.69L525.5,302.62L529.13,303.36L540,304L540,304L536.38,276.01L532.75,221.79L529.13,185.78L518.26,186.65L514.63,188.42L507.38,189.2L503.76,181.07L500.13,180.23L496.51,178.94L492.89,178.72L489.26,177.87L485.64,179.84L482.01,176.52L478.39,175.48L474.77,174.83L471.14,161.93L467.52,162.64L463.89,156.27L460.27,153.97L456.64,153.64L453.02,131.16L445.77,130.71L442.15,119.46L434.9,119.1L431.28,118.96L424.03,117.36L420.4,116.02L416.78,115.97L413.15,116.45L409.53,116.1L405.91,113.58L398.66,111.92L395.03,77.5L391.41,77.19L387.79,77.14L369.66,78.21L366.04,78.28L351.54,80.51L347.92,56.23L344.3,55.07L340.67,53.9L329.8,53.33L326.17,55.39L322.55,55.26L318.93,73.95L315.3,72.8L311.68,73.06L304.43,65.34L300.81,65.27L293.56,63.45L289.93,46.47L286.31,46.55L282.68,46.77L246.44,47.32L242.82,47.19L239.19,32.57L235.57,32.67L217.45,32.44L213.83,32.79L177.58,31.81L173.96,31.73L170.34,27.95L166.71,27.67L155.84,28.72L152.21,28.75L137.72,28.6L134.09,27.39L130.47,22.15L126.85,19.86L105.1,19.95L101.48,19.43L57.99,18.74L54.36,16L39.87,16.29L36.24,18.18L0,18.42Z" style="fill: rgb(68, 68, 68); fill-opacity: 0.3; stroke-width: 0;"/></g></g><g class="errorbars"/><g class="lines"><path class="js-line" d="M0,18.42L36.24,18.18L39.87,16.29L54.36,16L57.99,18.74L101.48,19.43L105.1,19.95L126.85,19.86L130.47,22.15L134.09,27.39L137.72,28.6L152.21,28.75L155.84,28.72L166.71,27.67L170.34,27.95L173.96,31.73L177.58,31.81L213.83,32.79L217.45,32.44L235.57,32.67L239.19,32.57L242.82,47.19L246.44,47.32L282.68,46.77L286.31,46.55L289.93,46.47L293.56,63.45L300.81,65.27L304.43,65.34L311.68,73.06L315.3,72.8L318.93,73.95L322.55,55.26L326.17,55.39L329.8,53.33L340.67,53.9L344.3,55.07L347.92,56.23L351.54,80.51L366.04,78.28L369.66,78.21L387.79,77.14L391.41,77.19L395.03,77.5L398.66,111.92L405.91,113.58L409.53,116.1L413.15,116.45L416.78,115.97L420.4,116.02L424.03,117.36L431.28,118.96L434.9,119.1L442.15,119.46L445.77,130.71L453.02,131.16L456.64,153.64L460.27,153.97L463.89,156.27L467.52,162.64L471.14,161.93L474.77,174.83L478.39,175.48L482.01,176.52L485.64,179.84L489.26,177.87L492.89,178.72L496.51,178.94L500.13,180.23L503.76,181.07L507.38,189.2L514.63,188.42L518.26,186.65L529.13,185.78L532.75,221.79L536.38,276.01L540,304" style="vector-effect: non-scaling-stroke; fill: none; stroke: rgb(68, 68, 68); stroke-opacity: 1; stroke-width: 0px; opacity: 1;"/></g><g class="points"/><g class="text"/></g><g class="trace scatter trace706757" style="stroke-miterlimit: 2;"><g class="fills"/><g class="errorbars"/><g class="lines"><path class="js-line" d="M0,26.82L25.37,26.9L28.99,27.94L43.49,28.51L47.11,28.62L57.99,29.11L61.61,31.06L68.86,32.17L72.48,32.43L76.11,32.83L79.73,34.48L90.6,35.13L94.23,35.98L108.72,36.77L112.35,36.96L115.97,37.12L119.6,39.42L123.22,39.48L126.85,48.48L148.59,48.82L152.21,50.55L173.96,52.36L177.58,60.33L188.46,60.82L192.08,61.84L199.33,62.8L202.95,64.24L206.58,65.91L210.2,66.69L213.83,67.58L217.45,70.04L221.07,72.41L224.7,73.39L231.95,76.58L235.57,78.84L239.19,81.18L242.82,81.89L250.07,83.11L253.69,83.37L260.94,84.35L264.56,85.59L271.81,86.75L275.44,87.09L279.06,87.22L282.68,88.3L289.93,96.15L293.56,98.15L297.18,101.88L300.81,109.49L304.43,113.79L308.05,116.71L311.68,120.86L315.3,121.29L318.93,123.1L322.55,125.97L326.17,132.25L329.8,135.93L344.3,137.24L347.92,137.94L355.17,140.37L358.79,142.56L366.04,146.5L369.66,188.01L376.91,192.05L380.54,192.95L391.41,194.07L395.03,195.05L413.15,202.29L416.78,204.3L420.4,205.63L424.03,207.83L427.65,209.24L431.28,212.5L434.9,217.2L438.52,224.85L442.15,230.51L445.77,232.33L449.4,232.84L453.02,234.71L456.64,238.79L460.27,240.6L463.89,242.13L467.52,245.49L471.14,250.04L474.77,252.24L478.39,253.41L482.01,255.93L489.26,263.39L492.89,270.46L500.13,271L503.76,275.44L507.38,281.75L511.01,294.03L518.26,297.27L521.88,300.69L525.5,302.62L529.13,303.36L540,304" style="vector-effect: non-scaling-stroke; fill: none; stroke: rgb(68, 68, 68); stroke-opacity: 1; stroke-width: 0px; opacity: 1;"/></g><g class="points"/><g class="text"/></g><g class="trace scatter trace1d12d0" style="stroke-miterlimit: 2; opacity: 1;"><g class="fills"/><g class="errorbars"/><g class="lines"><path class="js-line" d="M0,24.13L43.49,24.23L47.11,24.35L72.48,26.03L76.11,26.25L97.85,28.2L101.48,28.93L137.72,36.05L141.34,37.09L155.84,40.28L159.46,40.99L195.7,47.51L199.33,47.97L217.45,51.25L221.07,52.82L228.32,55.92L231.95,56.85L264.56,66.24L268.19,68.07L275.44,71.01L279.06,72.13L289.93,76.65L293.56,78.66L300.81,82.64L304.43,85.56L311.68,89.61L315.3,91.24L329.8,97.76L333.42,99.98L344.3,105.09L347.92,106.45L358.79,111.05L362.42,112.98L387.79,130L391.41,134.3L398.66,142.38L402.28,145.03L413.15,152.99L416.78,155.2L420.4,157.1L424.03,159.88L431.28,164L434.9,167.63L445.77,177.71L449.4,182.99L460.27,197.75L463.89,201.91L474.77,213.48L478.39,217.4L485.64,224.17L489.26,227.96L496.51,237.35L500.13,242.55L503.76,247.84L507.38,251.51L514.63,260.86L518.26,267.67L532.75,295.68L536.38,300.18L540,304" style="vector-effect: non-scaling-stroke; fill: none; stroke: rgb(31, 119, 180); stroke-opacity: 1; stroke-width: 2px; opacity: 1;"/></g><g class="points"/><g class="text"/></g><g class="trace scatter trace370022" style="stroke-miterlimit: 2;"><g class="fills"><g><path class="js-fill" d="M0,24.05L47.11,24.25L50.74,24.59L65.23,25.43L68.86,25.62L101.48,28.79L105.1,29.5L137.72,35.84L141.34,36.86L155.84,40.04L159.46,40.76L192.08,46.74L195.7,47.29L213.83,49.95L217.45,50.94L231.95,56.5L235.57,57.51L242.82,59.46L246.44,60.6L264.56,65.78L268.19,67.62L275.44,70.61L279.06,71.74L289.93,76.26L293.56,78.27L300.81,82.16L304.43,85.08L311.68,89.16L315.3,90.78L329.8,97.17L333.42,99.4L347.92,105.95L351.54,107.26L358.79,110.53L362.42,112.45L387.79,129.09L391.41,133.37L398.66,141.48L402.28,144.17L413.15,152.23L416.78,154.47L420.4,156.39L424.03,159.17L431.28,163.28L434.9,166.92L445.77,176.95L449.4,182.18L460.27,196.82L463.89,200.96L474.77,212.65L478.39,216.64L485.64,223.41L489.26,227.2L496.51,236.54L500.13,241.77L503.76,247.11L507.38,250.75L514.63,259.95L518.26,266.76L532.75,295.38L536.38,300.03L540,304L540,304L536.38,300.32L532.75,295.99L518.26,268.58L514.63,261.77L507.38,252.28L503.76,248.57L496.51,238.17L492.89,233.05L474.77,214.3L471.14,210.82L463.89,202.86L460.27,198.68L449.4,183.81L445.77,178.46L434.9,168.35L431.28,164.73L424.03,160.59L420.4,157.81L416.78,155.94L413.15,153.75L402.28,145.88L398.66,143.28L387.79,130.91L384.16,127.79L362.42,113.52L358.79,111.57L347.92,106.96L344.3,105.62L333.42,100.57L329.8,98.35L315.3,91.7L311.68,90.06L304.43,86.04L300.81,83.11L293.56,79.05L289.93,77.03L279.06,72.52L275.44,71.42L268.19,68.51L264.56,66.71L231.95,57.2L228.32,56.27L221.07,53.16L217.45,51.56L199.33,48.2L195.7,47.74L159.46,41.22L155.84,40.53L141.34,37.33L137.72,36.26L101.48,29.07L97.85,28.34L76.11,26.38L72.48,26.15L47.11,24.45L43.49,24.33L0,24.2Z" style="fill: rgb(68, 68, 68); fill-opacity: 0.7; stroke-width: 0;"/></g></g><g class="errorbars"/><g class="lines"><path class="js-line" d="M0,24.2L43.49,24.33L47.11,24.45L72.48,26.15L76.11,26.38L97.85,28.34L101.48,29.07L137.72,36.26L141.34,37.33L155.84,40.53L159.46,41.22L195.7,47.74L199.33,48.2L217.45,51.56L221.07,53.16L228.32,56.27L231.95,57.2L264.56,66.71L268.19,68.51L275.44,71.42L279.06,72.52L289.93,77.03L293.56,79.05L300.81,83.11L304.43,86.04L311.68,90.06L315.3,91.7L329.8,98.35L333.42,100.57L344.3,105.62L347.92,106.96L358.79,111.57L362.42,113.52L384.16,127.79L387.79,130.91L398.66,143.28L402.28,145.88L413.15,153.75L416.78,155.94L420.4,157.81L424.03,160.59L431.28,164.73L434.9,168.35L445.77,178.46L449.4,183.81L460.27,198.68L463.89,202.86L471.14,210.82L474.77,214.3L492.89,233.05L496.51,238.17L503.76,248.57L507.38,252.28L514.63,261.77L518.26,268.58L532.75,295.99L536.38,300.32L540,304" style="vector-effect: non-scaling-stroke; fill: none; stroke: rgb(68, 68, 68); stroke-opacity: 1; stroke-width: 0px; opacity: 1;"/></g><g class="points"/><g class="text"/></g><g class="trace scatter trace5813ad" style="stroke-miterlimit: 2;"><g class="fills"/><g class="errorbars"/><g class="lines"><path class="js-line" d="M0,24.05L47.11,24.25L50.74,24.59L65.23,25.43L68.86,25.62L101.48,28.79L105.1,29.5L137.72,35.84L141.34,36.86L155.84,40.04L159.46,40.76L192.08,46.74L195.7,47.29L213.83,49.95L217.45,50.94L231.95,56.5L235.57,57.51L242.82,59.46L246.44,60.6L264.56,65.78L268.19,67.62L275.44,70.61L279.06,71.74L289.93,76.26L293.56,78.27L300.81,82.16L304.43,85.08L311.68,89.16L315.3,90.78L329.8,97.17L333.42,99.4L347.92,105.95L351.54,107.26L358.79,110.53L362.42,112.45L387.79,129.09L391.41,133.37L398.66,141.48L402.28,144.17L413.15,152.23L416.78,154.47L420.4,156.39L424.03,159.17L431.28,163.28L434.9,166.92L445.77,176.95L449.4,182.18L460.27,196.82L463.89,200.96L474.77,212.65L478.39,216.64L485.64,223.41L489.26,227.2L496.51,236.54L500.13,241.77L503.76,247.11L507.38,250.75L514.63,259.95L518.26,266.76L532.75,295.38L536.38,300.03L540,304" style="vector-effect: non-scaling-stroke; fill: none; stroke: rgb(68, 68, 68); stroke-opacity: 1; stroke-width: 0px; opacity: 1;"/></g><g class="points"/><g class="text"/></g></g></g><g class="overplot"/><path class="xlines-above crisp" d="M0,0" style="fill: none;"/><path class="ylines-above crisp" d="M0,0" style="fill: none;"/><g class="overlines-above"/><g class="xaxislayer-above"><g class="xtick"><text text-anchor="middle" x="0" y="433" transform="translate(80,0)" style="font-family: 'Open Sans', verdana, arial, sans-serif; font-size: 12px; fill: rgb(42, 63, 95); fill-opacity: 1; white-space: pre; opacity: 1;">0</text></g><g class="xtick"><text text-anchor="middle" x="0" y="433" style="font-family: 'Open Sans', verdana, arial, sans-serif; font-size: 12px; fill: rgb(42, 63, 95); fill-opacity: 1; white-space: pre; opacity: 1;" transform="translate(152.48000000000002,0)">0.5</text></g><g class="xtick"><text text-anchor="middle" x="0" y="433" style="font-family: 'Open Sans', verdana, arial, sans-serif; font-size: 12px; fill: rgb(42, 63, 95); fill-opacity: 1; white-space: pre; opacity: 1;" transform="translate(224.97,0)">1</text></g><g class="xtick"><text text-anchor="middle" x="0" y="433" style="font-family: 'Open Sans', verdana, arial, sans-serif; font-size: 12px; fill: rgb(42, 63, 95); fill-opacity: 1; white-space: pre; opacity: 1;" transform="translate(297.45,0)">1.5</text></g><g class="xtick"><text text-anchor="middle" x="0" y="433" style="font-family: 'Open Sans', verdana, arial, sans-serif; font-size: 12px; fill: rgb(42, 63, 95); fill-opacity: 1; white-space: pre; opacity: 1;" transform="translate(369.93,0)">2</text></g><g class="xtick"><text text-anchor="middle" x="0" y="433" style="font-family: 'Open Sans', verdana, arial, sans-serif; font-size: 12px; fill: rgb(42, 63, 95); fill-opacity: 1; white-space: pre; opacity: 1;" transform="translate(442.42,0)">2.5</text></g><g class="xtick"><text text-anchor="middle" x="0" y="433" style="font-family: 'Open Sans', verdana, arial, sans-serif; font-size: 12px; fill: rgb(42, 63, 95); fill-opacity: 1; white-space: pre; opacity: 1;" transform="translate(514.9,0)">3</text></g><g class="xtick"><text text-anchor="middle" x="0" y="433" style="font-family: 'Open Sans', verdana, arial, sans-serif; font-size: 12px; fill: rgb(42, 63, 95); fill-opacity: 1; white-space: pre; opacity: 1;" transform="translate(587.38,0)">3.5</text></g></g><g class="yaxislayer-above"><g class="ytick"><text text-anchor="end" x="79" y="4.199999999999999" transform="translate(0,404)" style="font-family: 'Open Sans', verdana, arial, sans-serif; font-size: 12px; fill: rgb(42, 63, 95); fill-opacity: 1; white-space: pre; opacity: 1;">0</text></g><g class="ytick"><text text-anchor="end" x="79" y="4.199999999999999" style="font-family: 'Open Sans', verdana, arial, sans-serif; font-size: 12px; fill: rgb(42, 63, 95); fill-opacity: 1; white-space: pre; opacity: 1;" transform="translate(0,357.1)">0.05</text></g><g class="ytick"><text text-anchor="end" x="79" y="4.199999999999999" style="font-family: 'Open Sans', verdana, arial, sans-serif; font-size: 12px; fill: rgb(42, 63, 95); fill-opacity: 1; white-space: pre; opacity: 1;" transform="translate(0,310.21000000000004)">0.1</text></g><g class="ytick"><text text-anchor="end" x="79" y="4.199999999999999" style="font-family: 'Open Sans', verdana, arial, sans-serif; font-size: 12px; fill: rgb(42, 63, 95); fill-opacity: 1; white-space: pre; opacity: 1;" transform="translate(0,263.31)">0.15</text></g><g class="ytick"><text text-anchor="end" x="79" y="4.199999999999999" style="font-family: 'Open Sans', verdana, arial, sans-serif; font-size: 12px; fill: rgb(42, 63, 95); fill-opacity: 1; white-space: pre; opacity: 1;" transform="translate(0,216.42000000000002)">0.2</text></g><g class="ytick"><text text-anchor="end" x="79" y="4.199999999999999" style="font-family: 'Open Sans', verdana, arial, sans-serif; font-size: 12px; fill: rgb(42, 63, 95); fill-opacity: 1; white-space: pre; opacity: 1;" transform="translate(0,169.51999999999998)">0.25</text></g><g class="ytick"><text text-anchor="end" x="79" y="4.199999999999999" style="font-family: 'Open Sans', verdana, arial, sans-serif; font-size: 12px; fill: rgb(42, 63, 95); fill-opacity: 1; white-space: pre; opacity: 1;" transform="translate(0,122.62)">0.3</text></g></g><g class="overaxes-above"/></g></g><g class="polarlayer"/><g class="smithlayer"/><g class="ternarylayer"/><g class="geolayer"/><g class="funnelarealayer"/><g class="pielayer"/><g class="iciclelayer"/><g class="treemaplayer"/><g class="sunburstlayer"/><g class="glimages"/><defs id="topdefs-61aeea"><g class="clips"/></defs><g class="layer-above"><g class="imagelayer"/><g class="shapelayer"/></g><g class="infolayer"><g class="g-gtitle"><text class="gtitle" x="35" y="50" text-anchor="start" dy="0em" style="font-family: 'Open Sans', verdana, arial, sans-serif; font-size: 17px; fill: rgb(42, 63, 95); opacity: 1; font-weight: normal; white-space: pre;">Ion potential</text></g><g class="g-xtitle"><text class="xtitle" x="350" y="460.8" text-anchor="middle" style="font-family: 'Open Sans', verdana, arial, sans-serif; font-size: 14px; fill: rgb(42, 63, 95); opacity: 1; font-weight: normal; white-space: pre;">Distance from anode (µm)</text></g><g class="g-ytitle"><text class="ytitle" transform="rotate(-90,26.934375000000003,260)" x="26.934375000000003" y="260" text-anchor="middle" style="font-family: 'Open Sans', verdana, arial, sans-serif; font-size: 14px; fill: rgb(42, 63, 95); opacity: 1; font-weight: normal; white-space: pre;">Ion potential (V)</text></g></g></svg>