<svg class="main-svg" xmlns="http://www.w3.org/2000/svg" xmlns:xlink="http://www.w3.org/1999/xlink" width="700" height="500" style="" viewBox="0 0 700 500"><rect x="0" y="0" width="700" height="500" style="fill: rgb(255, 255, 255); fill-opacity: 1;"/><defs id="defs-68dee3"><g class="clips"><clipPath id="clip68dee3xyplot" class="plotclip"><rect width="540" height="320"/></clipPath><clipPath class="axesclip" id="clip68dee3x"><rect x="80" y="0" width="540" height="500"/></clipPath><clipPath class="axesclip" id="clip68dee3y"><rect x="0" y="100" width="700" height="320"/></clipPath><clipPath class="axesclip" id="clip68dee3xy"><rect x="80" y="100" width="540" height="320"/></clipPath></g><g class="gradients"/><g class="patterns"/></defs><g class="bglayer"><rect class="bg" x="80" y="100" width="540" height="320" style="fill: rgb(229, 236, 246); fill-opacity: 1; stroke-width: 0;"/></g><g class="layer-below"><g class="imagelayer"/><g class="shapelayer"/></g><g class="cartesianlayer"><g class="subplot xy"><g class="layer-subplot"><g class="shapelayer"/><g class="imagelayer"/></g><g class="minor-gridlayer"><g class="x"/><g class="y"/></g><g class="gridlayer"><g class="x"><path class="xgrid crisp" transform="translate(218.46,0)" d="M0,100v320" style="stroke: rgb(255, 255, 255); stroke-opacity: 1; stroke-width: 1px;"/><path class="xgrid crisp" transform="translate(356.92,0)" d="M0,100v320" style="stroke: rgb(255, 255, 255); stroke-opacity: 1; stroke-width: 1px;"/><path class="xgrid crisp" transform="translate(495.38,0)" d="M0,100v320" style="stroke: rgb(255, 255, 255); stroke-opacity: 1; stroke-width: 1px;"/></g><g class="y"><path class="ygrid crisp" transform="translate(0,352.47)" d="M80,0h540" style="stroke: rgb(255, 255, 255); stroke-opacity: 1; stroke-width: 1px;"/><path class="ygrid crisp" transform="translate(0,300.95)" d="M80,0h540" style="stroke: rgb(255, 255, 255); stroke-opacity: 1; stroke-width: 1px;"/><path class="ygrid crisp" transform="translate(0,249.42)" d="M80,0h540" style="stroke: rgb(255, 255, 255); stroke-opacity: 1; stroke-width: 1px;"/><path class="ygrid crisp" transform="translate(0,197.9)" d="M80,0h540" style="stroke: rgb(255, 255, 255); stroke-opacity: 1; stroke-width: 1px;"/><path class="ygrid crisp" transform="translate(0,146.37)" d="M80,0h540" style="stroke: rgb(255, 255, 255); stroke-opacity: 1; stroke-width: 1px;"/></g></g><g class="zerolinelayer"><path class="xzl zl crisp" transform="translate(80,0)" d="M0,100v320" style="stroke: rgb(255, 255, 255); stroke-opacity: 1; stroke-width: 2px;"/><path class="yzl zl crisp" transform="translate(0,404)" d="M80,0h540" style="stroke: rgb(255, 255, 255); stroke-opacity: 1; stroke-width: 2px;"/></g><path class="xlines-below"/><path class="ylines-below"/><g class="overlines-below"/><g class="xaxislayer-below"/><g class="yaxislayer-below"/><g class="overaxes-below"/><g class="plot" transform="translate(80,100)" clip-path="url(#clip68dee3xyplot)"><g class="scatterlayer mlayer"><g class="trace scatter trace90c84b" style="stroke-miterlimit: 2;"><g class="fills"><g><path class="js-fill" d="M0,173.24L41.54,173.28L55.38,178.23L110.77,179.82L124.62,183.03L138.46,185.04L152.31,188L166.15,193.79L180,196.94L207.69,198.96L221.54,200.6L263.08,204.29L276.92,208.19L290.77,210.71L304.62,214.8L318.46,218.31L332.31,231.88L346.15,236.12L360,253.76L373.85,261.97L387.69,262.8L401.54,267.64L415.38,271.33L429.23,273.09L443.08,276.7L456.92,279.15L470.77,284.76L484.62,289.53L498.46,296.93L512.31,302L526.15,303.66L540,304L540,304L526.15,253.68L512.31,148.72L498.46,149.46L484.62,152.13L470.77,150.52L456.92,151.22L443.08,148.42L429.23,145.89L401.54,149.77L387.69,150L373.85,148.73L360,162.93L346.15,159.26L332.31,16L290.77,17.61L276.92,19.86L235.38,22.01L221.54,21.89L180,19.74L166.15,73.21L152.31,77.44L138.46,81.47L124.62,89.23L110.77,95.63L96.92,98.46L83.08,97.32L69.23,97.35L55.38,100.03L41.54,98.42L27.69,103.28L0,105.05Z" style="fill: rgb(68, 68, 68); fill-opacity: 0.3; stroke-width: 0;"/></g></g><g class="errorbars"/><g class="lines"><path class="js-line" d="M0,105.05L27.69,103.28L41.54,98.42L55.38,100.03L69.23,97.35L83.08,97.32L96.92,98.46L110.77,95.63L124.62,89.23L138.46,81.47L152.31,77.44L166.15,73.21L180,19.74L221.54,21.89L235.38,22.01L276.92,19.86L290.77,17.61L332.31,16L346.15,159.26L360,162.93L373.85,148.73L387.69,150L401.54,149.77L429.23,145.89L443.08,148.42L456.92,151.22L470.77,150.52L484.62,152.13L498.46,149.46L512.31,148.72L526.15,253.68L540,304" style="vector-effect: non-scaling-stroke; fill: none; stroke: rgb(68, 68, 68); stroke-opacity: 1; stroke-width: 0px; opacity: 1;"/></g><g class="points"/><g class="text"/></g><g class="trace scatter trace0b7281" style="stroke-miterlimit: 2;"><g class="fills"/><g class="errorbars"/><g class="lines"><path class="js-line" d="M0,173.24L41.54,173.28L55.38,178.23L110.77,179.82L124.62,183.03L138.46,185.04L152.31,188L166.15,193.79L180,196.94L207.69,198.96L221.54,200.6L263.08,204.29L276.92,208.19L290.77,210.71L304.62,214.8L318.46,218.31L332.31,231.88L346.15,236.12L360,253.76L373.85,261.97L387.69,262.8L401.54,267.64L415.38,271.33L429.23,273.09L443.08,276.7L456.92,279.15L470.77,284.76L484.62,289.53L498.46,296.93L512.31,302L526.15,303.66L540,304" style="vector-effect: non-scaling-stroke; fill: none; stroke: rgb(68, 68, 68); stroke-opacity: 1; stroke-width: 0px; opacity: 1;"/></g><g class="points"/><g class="text"/></g><g class="trace scatter tracef3650e" style="stroke-miterlimit: 2; opacity: 1;"><g class="fills"/><g class="errorbars"/><g class="lines"><path class="js-line" d="M0,140.03L13.85,139.78L27.69,140.69L41.54,141.8L55.38,144.59L69.23,145.56L83.08,147.36L96.92,149.6L110.77,152.66L152.31,159L166.15,162.55L180,164.4L193.85,167.82L207.69,169.94L221.54,173.33L235.38,176.13L249.23,177.55L263.08,178.1L276.92,181.09L304.62,184.61L318.46,188.64L332.31,198.3L346.15,206.28L360,213.03L373.85,217.11L387.69,220.79L401.54,225.37L415.38,229.37L429.23,239.37L456.92,250.99L470.77,256.6L484.62,263.14L498.46,271.16L512.31,282.2L526.15,294.26L540,304" style="vector-effect: non-scaling-stroke; fill: none; stroke: rgb(31, 119, 180); stroke-opacity: 1; stroke-width: 2px; opacity: 1;"/></g><g class="points"/><g class="text"/></g><g class="trace scatter tracee97c6a" style="stroke-miterlimit: 2;"><g class="fills"><g><path class="js-fill" d="M0,136.76L27.69,137.87L41.54,139.07L55.38,142.03L69.23,143.18L96.92,147.47L110.77,150.69L152.31,157.14L166.15,160.7L180,162.19L193.85,165.59L207.69,167.65L221.54,171.27L235.38,174.26L249.23,175.68L263.08,176.11L276.92,179.04L304.62,182.21L318.46,186.22L332.31,196.78L346.15,204.88L360,211.76L373.85,215.78L387.69,219.32L401.54,223.72L415.38,227.55L429.23,237.54L456.92,249.16L470.77,254.54L484.62,260.97L498.46,268.9L512.31,280.34L526.15,293.45L540,304L540,304L526.15,295.08L498.46,273.42L484.62,265.31L429.23,241.2L415.38,231.2L401.54,227.01L387.69,222.26L373.85,218.43L360,214.29L346.15,207.69L332.31,199.83L318.46,191.06L304.62,187L276.92,183.14L263.08,180.09L249.23,179.43L235.38,178.01L221.54,175.39L207.69,172.24L193.85,170.06L180,166.61L166.15,164.4L152.31,160.86L110.77,154.63L96.92,151.72L83.08,149.61L69.23,147.93L55.38,147.16L41.54,144.52L27.69,143.5L13.85,142.6L0,143.3Z" style="fill: rgb(68, 68, 68); fill-opacity: 0.7; stroke-width: 0;"/></g></g><g class="errorbars"/><g class="lines"><path class="js-line" d="M0,143.3L13.85,142.6L27.69,143.5L41.54,144.52L55.38,147.16L69.23,147.93L83.08,149.61L96.92,151.72L110.77,154.63L152.31,160.86L166.15,164.4L180,166.61L193.85,170.06L207.69,172.24L221.54,175.39L235.38,178.01L249.23,179.43L263.08,180.09L276.92,183.14L304.62,187L318.46,191.06L332.31,199.83L346.15,207.69L360,214.29L373.85,218.43L387.69,222.26L401.54,227.01L415.38,231.2L429.23,241.2L484.62,265.31L498.46,273.42L526.15,295.08L540,304" style="vector-effect: non-scaling-stroke; fill: none; stroke: rgb(68, 68, 68); stroke-opacity: 1; stroke-width: 0px; opacity: 1;"/></g><g class="points"/><g class="text"/></g><g class="trace scatter trace14efaf" style="stroke-miterlimit: 2;"><g class="fills"/><g class="errorbars"/><g class="lines"><path class="js-line" d="M0,136.76L27.69,137.87L41.54,139.07L55.38,142.03L69.23,143.18L96.92,147.47L110.77,150.69L152.31,157.14L166.15,160.7L180,162.19L193.85,165.59L207.69,167.65L221.54,171.27L235.38,174.26L249.23,175.68L263.08,176.11L276.92,179.04L304.62,182.21L318.46,186.22L332.31,196.78L346.15,204.88L360,211.76L373.85,215.78L387.69,219.32L401.54,223.72L415.38,227.55L429.23,237.54L456.92,249.16L470.77,254.54L484.62,260.97L498.46,268.9L512.31,280.34L526.15,293.45L540,304" style="vector-effect: non-scaling-stroke; fill: none; stroke: rgb(68, 68, 68); stroke-opacity: 1; stroke-width: 0px; opacity: 1;"/></g><g class="points"/><g class="text"/></g></g></g><g class="overplot"/><path class="xlines-above crisp" d="M0,0" style="fill: none;"/><path class="ylines-above crisp" d="M0,0" style="fill: none;"/><g class="overlines-above"/><g class="xaxislayer-above"><g class="xtick"><text text-anchor="middle" x="0" y="433" transform="translate(80,0)" style="font-family: 'Open Sans', verdana, arial, sans-serif; font-size: 12px; fill: rgb(42, 63, 95); fill-opacity: 1; white-space: pre; opacity: 1;">0</text></g><g class="xtick"><text text-anchor="middle" x="0" y="433" style="font-family: 'Open Sans', verdana, arial, sans-serif; font-size: 12px; fill: rgb(42, 63, 95); fill-opacity: 1; white-space: pre; opacity: 1;" transform="translate(218.46,0)">0.5</text></g><g class="xtick"><text text-anchor="middle" x="0" y="433" style="font-family: 'Open Sans', verdana, arial, sans-serif; font-size: 12px; fill: rgb(42, 63, 95); fill-opacity: 1; white-space: pre; opacity: 1;" transform="translate(356.92,0)">1</text></g><g class="xtick"><text text-anchor="middle" x="0" y="433" style="font-family: 'Open Sans', verdana, arial, sans-serif; font-size: 12px; fill: rgb(42, 63, 95); fill-opacity: 1; white-space: pre; opacity: 1;" transform="translate(495.38,0)">1.5</text></g></g><g class="yaxislayer-above"><g class="ytick"><text text-anchor="end" x="79" y="4.199999999999999" transform="translate(0,404)" style="font-family: 'Open Sans', verdana, arial, sans-serif; font-size: 12px; fill: rgb(42, 63, 95); fill-opacity: 1; white-space: pre; opacity: 1;">0</text></g><g class="ytick"><text text-anchor="end" x="79" y="4.199999999999999" style="font-family: 'Open Sans', verdana, arial, sans-serif; font-size: 12px; fill: rgb(42, 63, 95); fill-opacity: 1; white-space: pre; opacity: 1;" transform="translate(0,352.47)">0.001</text></g><g class="ytick"><text text-anchor="end" x="79" y="4.199999999999999" style="font-family: 'Open Sans', verdana, arial, sans-serif; font-size: 12px; fill: rgb(42, 63, 95); fill-opacity: 1; white-space: pre; opacity: 1;" transform="translate(0,300.95)">0.002</text></g><g class="ytick"><text text-anchor="end" x="79" y="4.199999999999999" style="font-family: 'Open Sans', verdana, arial, sans-serif; font-size: 12px; fill: rgb(42, 63, 95); fill-opacity: 1; white-space: pre; opacity: 1;" transform="translate(0,249.42)">0.003</text></g><g class="ytick"><text text-anchor="end" x="79" y="4.199999999999999" style="font-family: 'Open Sans', verdana, arial, sans-serif; font-size: 12px; fill: rgb(42, 63, 95); fill-opacity: 1; white-space: pre; opacity: 1;" transform="translate(0,197.9)">0.004</text></g><g class="ytick"><text text-anchor="end" x="79" y="4.199999999999999" style="font-family: 'Open Sans', verdana, arial, sans-serif; font-size: 12px; fill: rgb(42, 63, 95); fill-opacity: 1; white-space: pre; opacity: 1;" transform="translate(0,146.37)">0.005</text></g></g><g class="overaxes-above"/></g></g><g class="polarlayer"/><g class="smithlayer"/><g class="ternarylayer"/><g class="geolayer"/><g class="funnelarealayer"/><g class="pielayer"/><g class="iciclelayer"/><g class="treemaplayer"/><g class="sunburstlayer"/><g class="glimages"/><defs id="topdefs-68dee3"><g class="clips"/></defs><g class="layer-above"><g class="imagelayer"/><g class="shapelayer"/></g><g class="infolayer"><g class="g-gtitle"><text class="gtitle" x="35" y="50" text-anchor="start" dy="0em" style="font-family: 'Open Sans', verdana, arial, sans-serif; font-size: 17px; fill: rgb(42, 63, 95); opacity: 1; font-weight: normal; white-space: pre;">Ion potential</text></g><g class="g-xtitle"><text class="xtitle" x="350" y="460.8" text-anchor="middle" style="font-family: 'Open Sans', verdana, arial, sans-serif; font-size: 14px; fill: rgb(42, 63, 95); opacity: 1; font-weight: normal; white-space: pre;">Distance from anode (µm)</text></g><g class="g-ytitle"><text class="ytitle" transform="rotate(-90,19.309375000000003,260)" x="19.309375000000003" y="260" text-anchor="middle" style="font-family: 'Open Sans', verdana, arial, sans-serif; font-size: 14px; fill: rgb(42, 63, 95); opacity: 1; font-weight: normal; white-space: pre;">Ion potential (V)</text></g></g></svg>