<svg class="main-svg" xmlns="http://www.w3.org/2000/svg" xmlns:xlink="http://www.w3.org/1999/xlink" width="700" height="500" style="" viewBox="0 0 700 500"><rect x="0" y="0" width="700" height="500" style="fill: rgb(255, 255, 255); fill-opacity: 1;"/><defs id="defs-14c33d"><g class="clips"><clipPath id="clip14c33dxyplot" class="plotclip"><rect width="540" height="320"/></clipPath><clipPath class="axesclip" id="clip14c33dx"><rect x="80" y="0" width="540" height="500"/></clipPath><clipPath class="axesclip" id="clip14c33dy"><rect x="0" y="100" width="700" height="320"/></clipPath><clipPath class="axesclip" id="clip14c33dxy"><rect x="80" y="100" width="540" height="320"/></clipPath></g><g class="gradients"/><g class="patterns"/></defs><g class="bglayer"><rect class="bg" x="80" y="100" width="540" height="320" style="fill: rgb(229, 236, 246); fill-opacity: 1; stroke-width: 0;"/></g><g class="layer-below"><g class="imagelayer"/><g class="shapelayer"/></g><g class="cartesianlayer"><g class="subplot xy"><g class="layer-subplot"><g class="shapelayer"/><g class="imagelayer"/></g><g class="minor-gridlayer"><g class="x"/><g class="y"/></g><g class="gridlayer"><g class="x"><path class="xgrid crisp" transform="translate(218.46,0)" d="M0,100v320" style="stroke: rgb(255, 255, 255); stroke-opacity: 1; stroke-width: 1px;"/><path class="xgrid crisp" transform="translate(356.92,0)" d="M0,100v320" style="stroke: rgb(255, 255, 255); stroke-opacity: 1; stroke-width: 1px;"/><path class="xgrid crisp" transform="translate(495.38,0)" d="M0,100v320" style="stroke: rgb(255, 255, 255); stroke-opacity: 1; stroke-width: 1px;"/></g><g class="y"><path class="ygrid crisp" transform="translate(0,330.14)" d="M80,0h540" style="stroke: rgb(255, 255, 255); stroke-opacity: 1; stroke-width: 1px;"/><path class="ygrid crisp" transform="translate(0,256.28999999999996)" d="M80,0h540" style="stroke: rgb(255, 255, 255); stroke-opacity: 1; stroke-width: 1px;"/><path class="ygrid crisp" transform="translate(0,182.43)" d="M80,0h540" style="stroke: rgb(255, 255, 255); stroke-opacity: 1; stroke-width: 1px;"/><path class="ygrid crisp" transform="translate(0,108.58)" d="M80,0h540" style="stroke: rgb(255, 255, 255); stroke-opacity: 1; stroke-width: 1px;"/></g></g><g class="zerolinelayer"><path class="xzl zl crisp" transform="translate(80,0)" d="M0,100v320" style="stroke: rgb(255, 255, 255); stroke-opacity: 1; stroke-width: 2px;"/><path class="yzl zl crisp" transform="translate(0,404)" d="M80,0h540" style="stroke: rgb(255, 255, 255); stroke-opacity: 1; stroke-width: 2px;"/></g><path class="xlines-below"/><path class="ylines-below"/><g class="overlines-below"/><g class="xaxislayer-below"/><g class="yaxislayer-below"/><g class="overaxes-below"/><g class="plot" transform="translate(80,100)" clip-path="url(#clip14c33dxyplot)"><g class="scatterlayer mlayer"><g class="trace scatter tracedc12c4" style="stroke-miterlimit: 2;"><g class="fills"><g><path class="js-fill" d="M0,174.25L41.54,174.29L55.38,179.12L110.77,180.82L124.62,184L138.46,186L152.31,188.96L166.15,194.7L180,197.82L207.69,199.8L221.54,201.43L263.08,205.13L276.92,208.99L290.77,211.47L304.62,215.53L318.46,219.02L332.31,232.56L346.15,236.72L360,254.6L373.85,262.68L387.69,263.49L401.54,268.33L415.38,271.93L429.23,273.64L443.08,277.19L456.92,279.59L470.77,285.1L484.62,289.77L498.46,296.99L512.31,302.02L526.15,303.66L540,304L540,304L526.15,254.19L512.31,150.29L498.46,151.03L484.62,153.68L470.77,152.08L456.92,152.77L443.08,149.73L429.23,147.22L401.54,151.07L387.69,151.3L373.85,150.04L360,163.91L346.15,160.27L332.31,16L304.62,17.25L290.77,17.63L276.92,19.91L263.08,20.22L249.23,21.43L235.38,22.08L221.54,21.96L207.69,21.85L180,19.79L166.15,73.85L152.31,78.11L138.46,82.17L124.62,90L110.77,96.46L96.92,99.36L83.08,98.21L69.23,98.25L55.38,100.95L41.54,99.32L27.69,104.19L0,105.97Z" style="fill: rgb(68, 68, 68); fill-opacity: 0.3; stroke-width: 0;"/></g></g><g class="errorbars"/><g class="lines"><path class="js-line" d="M0,105.97L27.69,104.19L41.54,99.32L55.38,100.95L69.23,98.25L83.08,98.21L96.92,99.36L110.77,96.46L124.62,90L138.46,82.17L152.31,78.11L166.15,73.85L180,19.79L207.69,21.85L221.54,21.96L235.38,22.08L249.23,21.43L263.08,20.22L276.92,19.91L290.77,17.63L304.62,17.25L332.31,16L346.15,160.27L360,163.91L373.85,150.04L387.69,151.3L401.54,151.07L429.23,147.22L443.08,149.73L456.92,152.77L470.77,152.08L484.62,153.68L498.46,151.03L512.31,150.29L526.15,254.19L540,304" style="vector-effect: non-scaling-stroke; fill: none; stroke: rgb(68, 68, 68); stroke-opacity: 1; stroke-width: 0px; opacity: 1;"/></g><g class="points"/><g class="text"/></g><g class="trace scatter trace1c2ca5" style="stroke-miterlimit: 2;"><g class="fills"/><g class="errorbars"/><g class="lines"><path class="js-line" d="M0,174.25L41.54,174.29L55.38,179.12L110.77,180.82L124.62,184L138.46,186L152.31,188.96L166.15,194.7L180,197.82L207.69,199.8L221.54,201.43L263.08,205.13L276.92,208.99L290.77,211.47L304.62,215.53L318.46,219.02L332.31,232.56L346.15,236.72L360,254.6L373.85,262.68L387.69,263.49L401.54,268.33L415.38,271.93L429.23,273.64L443.08,277.19L456.92,279.59L470.77,285.1L484.62,289.77L498.46,296.99L512.31,302.02L526.15,303.66L540,304" style="vector-effect: non-scaling-stroke; fill: none; stroke: rgb(68, 68, 68); stroke-opacity: 1; stroke-width: 0px; opacity: 1;"/></g><g class="points"/><g class="text"/></g><g class="trace scatter trace2aab7e" style="stroke-miterlimit: 2; opacity: 1;"><g class="fills"/><g class="errorbars"/><g class="lines"><path class="js-line" d="M0,140.99L13.85,140.75L27.69,141.66L41.54,142.78L55.38,145.57L69.23,146.54L83.08,148.35L96.92,150.59L110.77,153.65L152.31,159.97L166.15,163.52L180,165.34L193.85,168.75L207.69,170.86L221.54,174.24L235.38,177.04L249.23,178.45L263.08,178.99L276.92,181.97L304.62,185.47L318.46,189.48L332.31,199.14L346.15,207.07L360,213.78L373.85,217.85L387.69,221.52L401.54,226.09L415.38,230.09L429.23,240.02L456.92,251.56L470.77,257.12L484.62,263.59L498.46,271.53L512.31,282.43L526.15,294.37L540,304" style="vector-effect: non-scaling-stroke; fill: none; stroke: rgb(31, 119, 180); stroke-opacity: 1; stroke-width: 2px; opacity: 1;"/></g><g class="points"/><g class="text"/></g><g class="trace scatter trace6e176d" style="stroke-miterlimit: 2;"><g class="fills"><g><path class="js-fill" d="M0,137.72L27.69,138.84L41.54,140.05L55.38,143L69.23,144.16L96.92,148.46L110.77,151.67L152.31,158.11L166.15,161.67L180,163.13L193.85,166.5L207.69,168.55L221.54,172.17L235.38,175.16L249.23,176.57L263.08,176.99L276.92,179.91L304.62,183.07L318.46,187.06L332.31,197.62L346.15,205.68L360,212.52L373.85,216.53L387.69,220.06L401.54,224.45L415.38,228.28L429.23,238.2L456.92,249.75L470.77,255.08L484.62,261.44L498.46,269.29L512.31,280.6L526.15,293.56L540,304L540,304L526.15,295.18L498.46,273.76L484.62,265.74L429.23,241.84L415.38,231.9L401.54,227.73L387.69,222.99L373.85,219.16L360,215.04L346.15,208.47L332.31,200.66L318.46,191.91L304.62,187.87L276.92,184.03L263.08,180.99L249.23,180.33L235.38,178.92L221.54,176.31L207.69,173.16L193.85,170.99L180,167.55L166.15,165.36L152.31,161.83L110.77,155.63L96.92,152.72L83.08,150.6L69.23,148.92L55.38,148.14L41.54,145.5L27.69,144.48L13.85,143.57L0,144.27Z" style="fill: rgb(68, 68, 68); fill-opacity: 0.7; stroke-width: 0;"/></g></g><g class="errorbars"/><g class="lines"><path class="js-line" d="M0,144.27L13.85,143.57L27.69,144.48L41.54,145.5L55.38,148.14L69.23,148.92L83.08,150.6L96.92,152.72L110.77,155.63L152.31,161.83L166.15,165.36L180,167.55L193.85,170.99L207.69,173.16L221.54,176.31L235.38,178.92L249.23,180.33L263.08,180.99L276.92,184.03L304.62,187.87L318.46,191.91L332.31,200.66L346.15,208.47L360,215.04L373.85,219.16L387.69,222.99L401.54,227.73L415.38,231.9L429.23,241.84L484.62,265.74L498.46,273.76L526.15,295.18L540,304" style="vector-effect: non-scaling-stroke; fill: none; stroke: rgb(68, 68, 68); stroke-opacity: 1; stroke-width: 0px; opacity: 1;"/></g><g class="points"/><g class="text"/></g><g class="trace scatter tracee6f139" style="stroke-miterlimit: 2;"><g class="fills"/><g class="errorbars"/><g class="lines"><path class="js-line" d="M0,137.72L27.69,138.84L41.54,140.05L55.38,143L69.23,144.16L96.92,148.46L110.77,151.67L152.31,158.11L166.15,161.67L180,163.13L193.85,166.5L207.69,168.55L221.54,172.17L235.38,175.16L249.23,176.57L263.08,176.99L276.92,179.91L304.62,183.07L318.46,187.06L332.31,197.62L346.15,205.68L360,212.52L373.85,216.53L387.69,220.06L401.54,224.45L415.38,228.28L429.23,238.2L456.92,249.75L470.77,255.08L484.62,261.44L498.46,269.29L512.31,280.6L526.15,293.56L540,304" style="vector-effect: non-scaling-stroke; fill: none; stroke: rgb(68, 68, 68); stroke-opacity: 1; stroke-width: 0px; opacity: 1;"/></g><g class="points"/><g class="text"/></g></g></g><g class="overplot"/><path class="xlines-above crisp" d="M0,0" style="fill: none;"/><path class="ylines-above crisp" d="M0,0" style="fill: none;"/><g class="overlines-above"/><g class="xaxislayer-above"><g class="xtick"><text text-anchor="middle" x="0" y="433" transform="translate(80,0)" style="font-family: 'Open Sans', verdana, arial, sans-serif; font-size: 12px; fill: rgb(42, 63, 95); fill-opacity: 1; white-space: pre; opacity: 1;">0</text></g><g class="xtick"><text text-anchor="middle" x="0" y="433" style="font-family: 'Open Sans', verdana, arial, sans-serif; font-size: 12px; fill: rgb(42, 63, 95); fill-opacity: 1; white-space: pre; opacity: 1;" transform="translate(218.46,0)">0.5</text></g><g class="xtick"><text text-anchor="middle" x="0" y="433" style="font-family: 'Open Sans', verdana, arial, sans-serif; font-size: 12px; fill: rgb(42, 63, 95); fill-opacity: 1; white-space: pre; opacity: 1;" transform="translate(356.92,0)">1</text></g><g class="xtick"><text text-anchor="middle" x="0" y="433" style="font-family: 'Open Sans', verdana, arial, sans-serif; font-size: 12px; fill: rgb(42, 63, 95); fill-opacity: 1; white-space: pre; opacity: 1;" transform="translate(495.38,0)">1.5</text></g></g><g class="yaxislayer-above"><g class="ytick"><text text-anchor="end" x="79" y="4.199999999999999" transform="translate(0,404)" style="font-family: 'Open Sans', verdana, arial, sans-serif; font-size: 12px; fill: rgb(42, 63, 95); fill-opacity: 1; white-space: pre; opacity: 1;">0</text></g><g class="ytick"><text text-anchor="end" x="79" y="4.199999999999999" style="font-family: 'Open Sans', verdana, arial, sans-serif; font-size: 12px; fill: rgb(42, 63, 95); fill-opacity: 1; white-space: pre; opacity: 1;" transform="translate(0,330.14)">0.0005</text></g><g class="ytick"><text text-anchor="end" x="79" y="4.199999999999999" style="font-family: 'Open Sans', verdana, arial, sans-serif; font-size: 12px; fill: rgb(42, 63, 95); fill-opacity: 1; white-space: pre; opacity: 1;" transform="translate(0,256.28999999999996)">0.001</text></g><g class="ytick"><text text-anchor="end" x="79" y="4.199999999999999" style="font-family: 'Open Sans', verdana, arial, sans-serif; font-size: 12px; fill: rgb(42, 63, 95); fill-opacity: 1; white-space: pre; opacity: 1;" transform="translate(0,182.43)">0.0015</text></g><g class="ytick"><text text-anchor="end" x="79" y="4.199999999999999" style="font-family: 'Open Sans', verdana, arial, sans-serif; font-size: 12px; fill: rgb(42, 63, 95); fill-opacity: 1; white-space: pre; opacity: 1;" transform="translate(0,108.58)">0.002</text></g></g><g class="overaxes-above"/></g></g><g class="polarlayer"/><g class="smithlayer"/><g class="ternarylayer"/><g class="geolayer"/><g class="funnelarealayer"/><g class="pielayer"/><g class="iciclelayer"/><g class="treemaplayer"/><g class="sunburstlayer"/><g class="glimages"/><defs id="topdefs-14c33d"><g class="clips"/></defs><g class="layer-above"><g class="imagelayer"/><g class="shapelayer"/></g><g class="infolayer"><g class="g-gtitle"><text class="gtitle" x="35" y="50" text-anchor="start" dy="0em" style="font-family: 'Open Sans', verdana, arial, sans-serif; font-size: 17px; fill: rgb(42, 63, 95); opacity: 1; font-weight: normal; white-space: pre;">Ion potential</text></g><g class="g-xtitle"><text class="xtitle" x="350" y="460.8" text-anchor="middle" style="font-family: 'Open Sans', verdana, arial, sans-serif; font-size: 14px; fill: rgb(42, 63, 95); opacity: 1; font-weight: normal; white-space: pre;">Distance from anode (µm)</text></g><g class="g-ytitle" transform="translate(2.3154296875,0)"><text class="ytitle" transform="rotate(-90,11.684375000000003,260)" x="11.684375000000003" y="260" text-anchor="middle" style="font-family: 'Open Sans', verdana, arial, sans-serif; font-size: 14px; fill: rgb(42, 63, 95); opacity: 1; font-weight: normal; white-space: pre;">Ion potential (V)</text></g></g></svg>