<svg class="main-svg" xmlns="http://www.w3.org/2000/svg" xmlns:xlink="http://www.w3.org/1999/xlink" width="700" height="500" style="" viewBox="0 0 700 500"><rect x="0" y="0" width="700" height="500" style="fill: rgb(255, 255, 255); fill-opacity: 1;"/><defs id="defs-6fdd9b"><g class="clips"><clipPath id="clip6fdd9bxyplot" class="plotclip"><rect width="523" height="320"/></clipPath><clipPath class="axesclip" id="clip6fdd9bx"><rect x="97" y="0" width="523" height="500"/></clipPath><clipPath class="axesclip" id="clip6fdd9by"><rect x="0" y="100" width="700" height="320"/></clipPath><clipPath class="axesclip" id="clip6fdd9bxy"><rect x="97" y="100" width="523" height="320"/></clipPath></g><g class="gradients"/><g class="patterns"/></defs><g class="bglayer"><rect class="bg" x="97" y="100" width="523" height="320" style="fill: rgb(229, 236, 246); fill-opacity: 1; stroke-width: 0;"/></g><g class="layer-below"><g class="imagelayer"/><g class="shapelayer"/></g><g class="cartesianlayer"><g class="subplot xy"><g class="layer-subplot"><g class="shapelayer"/><g class="imagelayer"/></g><g class="minor-gridlayer"><g class="x"/><g class="y"/></g><g class="gridlayer"><g class="x"><path class="xgrid crisp" transform="translate(231.1,0)" d="M0,100v320" style="stroke: rgb(255, 255, 255); stroke-opacity: 1; stroke-width: 1px;"/><path class="xgrid crisp" transform="translate(365.21,0)" d="M0,100v320" style="stroke: rgb(255, 255, 255); stroke-opacity: 1; stroke-width: 1px;"/><path class="xgrid crisp" transform="translate(499.31,0)" d="M0,100v320" style="stroke: rgb(255, 255, 255); stroke-opacity: 1; stroke-width: 1px;"/></g><g class="y"><path class="ygrid crisp" transform="translate(0,410.7)" d="M97,0h523" style="stroke: rgb(255, 255, 255); stroke-opacity: 1; stroke-width: 1px;"/><path class="ygrid crisp" transform="translate(0,356.88)" d="M97,0h523" style="stroke: rgb(255, 255, 255); stroke-opacity: 1; stroke-width: 1px;"/><path class="ygrid crisp" transform="translate(0,303.06)" d="M97,0h523" style="stroke: rgb(255, 255, 255); stroke-opacity: 1; stroke-width: 1px;"/><path class="ygrid crisp" transform="translate(0,249.24)" d="M97,0h523" style="stroke: rgb(255, 255, 255); stroke-opacity: 1; stroke-width: 1px;"/><path class="ygrid crisp" transform="translate(0,195.41)" d="M97,0h523" style="stroke: rgb(255, 255, 255); stroke-opacity: 1; stroke-width: 1px;"/><path class="ygrid crisp" transform="translate(0,141.59)" d="M97,0h523" style="stroke: rgb(255, 255, 255); stroke-opacity: 1; stroke-width: 1px;"/></g></g><g class="zerolinelayer"><path class="xzl zl crisp" transform="translate(97,0)" d="M0,100v320" style="stroke: rgb(255, 255, 255); stroke-opacity: 1; stroke-width: 2px;"/></g><path class="xlines-below"/><path class="ylines-below"/><g class="overlines-below"/><g class="xaxislayer-below"/><g class="yaxislayer-below"/><g class="overaxes-below"/><g class="plot" transform="translate(97,100)" clip-path="url(#clip6fdd9bxyplot)"><g class="scatterlayer mlayer"><g class="trace scatter trace02fb56" style="stroke-miterlimit: 2;"><g class="fills"><g><path class="js-fill" d="M13.41,217L26.82,220.72L40.23,223.13L53.64,224.18L67.05,224.2L80.46,224.21L93.87,223.08L107.28,225.81L120.69,230.77L147.51,243.08L160.92,300.19L174.33,300.36L187.74,299.52L201.15,296.13L214.56,169.53L227.97,170.64L241.38,298.66L268.21,300.51L281.62,301.69L295.03,300.08L308.44,302.69L321.85,304L335.26,304L348.67,172.9L362.08,173.07L375.49,169.16L388.9,158.29L402.31,141.29L415.72,175.9L429.13,175.9L442.54,173.12L455.95,171.27L469.36,171.07L496.18,173.08L509.59,172.67L509.59,16L496.18,16.61L482.77,19.67L469.36,25.5L455.95,39.25L442.54,39.78L429.13,42.39L415.72,46.19L388.9,50L375.49,55.11L362.08,58.68L348.67,64.42L335.26,67.41L321.85,88.21L308.44,94.33L295.03,115.24L281.62,119.14L268.21,123.2L254.79,125.88L241.38,126.61L227.97,129.56L214.56,131.08L201.15,125.53L187.74,126.78L160.92,134.6L147.51,129.93L120.69,137.47L107.28,140.79L67.05,148.26L53.64,156.17L40.23,158.28L26.82,156.58L13.41,156.34Z" style="fill: rgb(68, 68, 68); fill-opacity: 0.3; stroke-width: 0;"/></g></g><g class="errorbars"/><g class="lines"><path class="js-line" d="M13.41,156.34L26.82,156.58L40.23,158.28L53.64,156.17L67.05,148.26L107.28,140.79L120.69,137.47L147.51,129.93L160.92,134.6L187.74,126.78L201.15,125.53L214.56,131.08L227.97,129.56L241.38,126.61L254.79,125.88L268.21,123.2L281.62,119.14L295.03,115.24L308.44,94.33L321.85,88.21L335.26,67.41L348.67,64.42L362.08,58.68L375.49,55.11L388.9,50L415.72,46.19L429.13,42.39L442.54,39.78L455.95,39.25L469.36,25.5L482.77,19.67L496.18,16.61L509.59,16" style="vector-effect: non-scaling-stroke; fill: none; stroke: rgb(68, 68, 68); stroke-opacity: 1; stroke-width: 0px; opacity: 1;"/></g><g class="points"/><g class="text"/></g><g class="trace scatter trace10d1fc" style="stroke-miterlimit: 2;"><g class="fills"/><g class="errorbars"/><g class="lines"><path class="js-line" d="M13.41,217L26.82,220.72L40.23,223.13L53.64,224.18L67.05,224.2L80.46,224.21L93.87,223.08L107.28,225.81L120.69,230.77L147.51,243.08L160.92,300.19L174.33,300.36L187.74,299.52L201.15,296.13L214.56,169.53L227.97,170.64L241.38,298.66L268.21,300.51L281.62,301.69L295.03,300.08L308.44,302.69L321.85,304L335.26,304L348.67,172.9L362.08,173.07L375.49,169.16L388.9,158.29L402.31,141.29L415.72,175.9L429.13,175.9L442.54,173.12L455.95,171.27L469.36,171.07L496.18,173.08L509.59,172.67" style="vector-effect: non-scaling-stroke; fill: none; stroke: rgb(68, 68, 68); stroke-opacity: 1; stroke-width: 0px; opacity: 1;"/></g><g class="points"/><g class="text"/></g><g class="trace scatter trace30ac8b" style="stroke-miterlimit: 2; opacity: 1;"><g class="fills"/><g class="errorbars"/><g class="lines"><path class="js-line" d="M13.41,193.21L26.82,187.71L40.23,185.26L67.05,178.44L80.46,179.33L93.87,178.68L107.28,183.81L120.69,191.74L134.1,185.61L147.51,181.72L160.92,187.62L174.33,188.55L187.74,178.49L201.15,158.53L214.56,142.97L227.97,143.59L241.38,156.27L254.79,175.19L268.21,169.31L281.62,159.19L295.03,159.33L308.44,165.61L321.85,163.72L335.26,139.95L348.67,120.92L362.08,111.66L375.49,95.92L388.9,88.67L402.31,95.05L429.13,100.24L442.54,91.63L455.95,90.42L469.36,77.36L482.77,67.15L496.18,55.2L509.59,44.56" style="vector-effect: non-scaling-stroke; fill: none; stroke: rgb(31, 119, 180); stroke-opacity: 1; stroke-width: 2px; opacity: 1;"/></g><g class="points"/><g class="text"/></g><g class="trace scatter trace4dfd35" style="stroke-miterlimit: 2;"><g class="fills"><g><path class="js-fill" d="M13.41,187.11L26.82,182.4L40.23,179.99L67.05,172.01L80.46,172.23L93.87,171.54L107.28,176.95L120.69,183.68L134.1,178.05L147.51,175.41L160.92,179.69L174.33,178.29L187.74,167.2L201.15,148.95L214.56,139.35L227.97,138.64L241.38,141.74L254.79,158.02L268.21,154.86L281.62,144.19L295.03,144.99L308.44,152.27L321.85,150.44L335.26,129.16L348.67,112.32L362.08,104.09L375.49,88.79L388.9,81.88L402.31,87.37L415.72,86.57L429.13,90.74L442.54,83.74L455.95,80.67L469.36,68.83L482.77,59.96L496.18,47.54L509.59,36.58L509.59,52.54L496.18,62.85L482.77,74.34L469.36,85.9L455.95,100.16L442.54,99.51L429.13,109.73L415.72,108.91L402.31,102.72L388.9,95.45L375.49,103.05L362.08,119.24L348.67,129.52L335.26,150.73L321.85,176.99L308.44,178.94L295.03,173.67L281.62,174.19L268.21,183.75L254.79,192.36L227.97,148.54L214.56,146.59L187.74,189.77L174.33,198.81L160.92,195.56L147.51,188.03L134.1,193.16L120.69,199.8L107.28,190.67L93.87,185.83L80.46,186.44L67.05,184.86L40.23,190.52L26.82,193.02L13.41,199.31Z" style="fill: rgb(68, 68, 68); fill-opacity: 0.7; stroke-width: 0;"/></g></g><g class="errorbars"/><g class="lines"><path class="js-line" d="M13.41,199.31L26.82,193.02L40.23,190.52L67.05,184.86L80.46,186.44L93.87,185.83L107.28,190.67L120.69,199.8L134.1,193.16L147.51,188.03L160.92,195.56L174.33,198.81L187.74,189.77L214.56,146.59L227.97,148.54L254.79,192.36L268.21,183.75L281.62,174.19L295.03,173.67L308.44,178.94L321.85,176.99L335.26,150.73L348.67,129.52L362.08,119.24L375.49,103.05L388.9,95.45L402.31,102.72L415.72,108.91L429.13,109.73L442.54,99.51L455.95,100.16L469.36,85.9L482.77,74.34L496.18,62.85L509.59,52.54" style="vector-effect: non-scaling-stroke; fill: none; stroke: rgb(68, 68, 68); stroke-opacity: 1; stroke-width: 0px; opacity: 1;"/></g><g class="points"/><g class="text"/></g><g class="trace scatter trace84a75f" style="stroke-miterlimit: 2;"><g class="fills"/><g class="errorbars"/><g class="lines"><path class="js-line" d="M13.41,187.11L26.82,182.4L40.23,179.99L67.05,172.01L80.46,172.23L93.87,171.54L107.28,176.95L120.69,183.68L134.1,178.05L147.51,175.41L160.92,179.69L174.33,178.29L187.74,167.2L201.15,148.95L214.56,139.35L227.97,138.64L241.38,141.74L254.79,158.02L268.21,154.86L281.62,144.19L295.03,144.99L308.44,152.27L321.85,150.44L335.26,129.16L348.67,112.32L362.08,104.09L375.49,88.79L388.9,81.88L402.31,87.37L415.72,86.57L429.13,90.74L442.54,83.74L455.95,80.67L469.36,68.83L482.77,59.96L496.18,47.54L509.59,36.58" style="vector-effect: non-scaling-stroke; fill: none; stroke: rgb(68, 68, 68); stroke-opacity: 1; stroke-width: 0px; opacity: 1;"/></g><g class="points"/><g class="text"/></g></g></g><g class="overplot"/><path class="xlines-above crisp" d="M0,0" style="fill: none;"/><path class="ylines-above crisp" d="M0,0" style="fill: none;"/><g class="overlines-above"/><g class="xaxislayer-above"><g class="xtick"><text text-anchor="middle" x="0" y="433" transform="translate(97,0)" style="font-family: 'Open Sans', verdana, arial, sans-serif; font-size: 12px; fill: rgb(42, 63, 95); fill-opacity: 1; white-space: pre; opacity: 1;">0</text></g><g class="xtick"><text text-anchor="middle" x="0" y="433" style="font-family: 'Open Sans', verdana, arial, sans-serif; font-size: 12px; fill: rgb(42, 63, 95); fill-opacity: 1; white-space: pre; opacity: 1;" transform="translate(231.1,0)">0.5</text></g><g class="xtick"><text text-anchor="middle" x="0" y="433" style="font-family: 'Open Sans', verdana, arial, sans-serif; font-size: 12px; fill: rgb(42, 63, 95); fill-opacity: 1; white-space: pre; opacity: 1;" transform="translate(365.21,0)">1</text></g><g class="xtick"><text text-anchor="middle" x="0" y="433" style="font-family: 'Open Sans', verdana, arial, sans-serif; font-size: 12px; fill: rgb(42, 63, 95); fill-opacity: 1; white-space: pre; opacity: 1;" transform="translate(499.31,0)">1.5</text></g></g><g class="yaxislayer-above"><g class="ytick"><text text-anchor="end" x="96" y="4.199999999999999" transform="translate(0,410.7)" style="font-family: 'Open Sans', verdana, arial, sans-serif; font-size: 12px; fill: rgb(42, 63, 95); fill-opacity: 1; white-space: pre; opacity: 1;">1.72e+11</text></g><g class="ytick"><text text-anchor="end" x="96" y="4.199999999999999" style="font-family: 'Open Sans', verdana, arial, sans-serif; font-size: 12px; fill: rgb(42, 63, 95); fill-opacity: 1; white-space: pre; opacity: 1;" transform="translate(0,356.88)">1.74e+11</text></g><g class="ytick"><text text-anchor="end" x="96" y="4.199999999999999" style="font-family: 'Open Sans', verdana, arial, sans-serif; font-size: 12px; fill: rgb(42, 63, 95); fill-opacity: 1; white-space: pre; opacity: 1;" transform="translate(0,303.06)">1.76e+11</text></g><g class="ytick"><text text-anchor="end" x="96" y="4.199999999999999" style="font-family: 'Open Sans', verdana, arial, sans-serif; font-size: 12px; fill: rgb(42, 63, 95); fill-opacity: 1; white-space: pre; opacity: 1;" transform="translate(0,249.24)">1.78e+11</text></g><g class="ytick"><text text-anchor="end" x="96" y="4.199999999999999" style="font-family: 'Open Sans', verdana, arial, sans-serif; font-size: 12px; fill: rgb(42, 63, 95); fill-opacity: 1; white-space: pre; opacity: 1;" transform="translate(0,195.41)">1.8e+11</text></g><g class="ytick"><text text-anchor="end" x="96" y="4.199999999999999" style="font-family: 'Open Sans', verdana, arial, sans-serif; font-size: 12px; fill: rgb(42, 63, 95); fill-opacity: 1; white-space: pre; opacity: 1;" transform="translate(0,141.59)">1.82e+11</text></g></g><g class="overaxes-above"/></g></g><g class="polarlayer"/><g class="smithlayer"/><g class="ternarylayer"/><g class="geolayer"/><g class="funnelarealayer"/><g class="pielayer"/><g class="iciclelayer"/><g class="treemaplayer"/><g class="sunburstlayer"/><g class="glimages"/><defs id="topdefs-6fdd9b"><g class="clips"/></defs><g class="layer-above"><g class="imagelayer"/><g class="shapelayer"/></g><g class="infolayer"><g class="g-gtitle"><text class="gtitle" x="35" y="50" text-anchor="start" dy="0em" style="font-family: 'Open Sans', verdana, arial, sans-serif; font-size: 17px; fill: rgb(42, 63, 95); opacity: 1; font-weight: normal; white-space: pre;">Volumetric current density</text></g><g class="g-xtitle"><text class="xtitle" x="358.5" y="460.8" text-anchor="middle" style="font-family: 'Open Sans', verdana, arial, sans-serif; font-size: 14px; fill: rgb(42, 63, 95); opacity: 1; font-weight: normal; white-space: pre;">Distance from anode (µm)</text></g><g class="g-ytitle" transform="translate(2.2841796875,0)"><text class="ytitle" transform="rotate(-90,11.715625000000003,260)" x="11.715625000000003" y="260" text-anchor="middle" style="font-family: 'Open Sans', verdana, arial, sans-serif; font-size: 14px; fill: rgb(42, 63, 95); opacity: 1; font-weight: normal; white-space: pre;">Volumetric current density (A/m3)</text></g></g></svg>