<svg class="main-svg" xmlns="http://www.w3.org/2000/svg" xmlns:xlink="http://www.w3.org/1999/xlink" width="700" height="500" style="" viewBox="0 0 700 500"><rect x="0" y="0" width="700" height="500" style="fill: rgb(255, 255, 255); fill-opacity: 1;"/><defs id="defs-2d5c53"><g class="clips"><clipPath id="clip2d5c53xyplot" class="plotclip"><rect width="530" height="320"/></clipPath><clipPath class="axesclip" id="clip2d5c53x"><rect x="90" y="0" width="530" height="500"/></clipPath><clipPath class="axesclip" id="clip2d5c53y"><rect x="0" y="100" width="700" height="320"/></clipPath><clipPath class="axesclip" id="clip2d5c53xy"><rect x="90" y="100" width="530" height="320"/></clipPath></g><g class="gradients"/><g class="patterns"/></defs><g class="bglayer"><rect class="bg" x="90" y="100" width="530" height="320" style="fill: rgb(229, 236, 246); fill-opacity: 1; stroke-width: 0;"/></g><g class="layer-below"><g class="imagelayer"/><g class="shapelayer"/></g><g class="cartesianlayer"><g class="subplot xy"><g class="layer-subplot"><g class="shapelayer"/><g class="imagelayer"/></g><g class="minor-gridlayer"><g class="x"/><g class="y"/></g><g class="gridlayer"><g class="x"><path class="xgrid crisp" transform="translate(222.67,0)" d="M0,100v320" style="stroke: rgb(255, 255, 255); stroke-opacity: 1; stroke-width: 1px;"/><path class="xgrid crisp" transform="translate(355.33,0)" d="M0,100v320" style="stroke: rgb(255, 255, 255); stroke-opacity: 1; stroke-width: 1px;"/><path class="xgrid crisp" transform="translate(488,0)" d="M0,100v320" style="stroke: rgb(255, 255, 255); stroke-opacity: 1; stroke-width: 1px;"/></g><g class="y"><path class="ygrid crisp" transform="translate(0,393.41)" d="M90,0h530" style="stroke: rgb(255, 255, 255); stroke-opacity: 1; stroke-width: 1px;"/><path class="ygrid crisp" transform="translate(0,344.72)" d="M90,0h530" style="stroke: rgb(255, 255, 255); stroke-opacity: 1; stroke-width: 1px;"/><path class="ygrid crisp" transform="translate(0,296.03)" d="M90,0h530" style="stroke: rgb(255, 255, 255); stroke-opacity: 1; stroke-width: 1px;"/><path class="ygrid crisp" transform="translate(0,247.34)" d="M90,0h530" style="stroke: rgb(255, 255, 255); stroke-opacity: 1; stroke-width: 1px;"/><path class="ygrid crisp" transform="translate(0,198.65)" d="M90,0h530" style="stroke: rgb(255, 255, 255); stroke-opacity: 1; stroke-width: 1px;"/><path class="ygrid crisp" transform="translate(0,149.96)" d="M90,0h530" style="stroke: rgb(255, 255, 255); stroke-opacity: 1; stroke-width: 1px;"/><path class="ygrid crisp" transform="translate(0,101.27)" d="M90,0h530" style="stroke: rgb(255, 255, 255); stroke-opacity: 1; stroke-width: 1px;"/></g></g><g class="zerolinelayer"><path class="xzl zl crisp" transform="translate(90,0)" d="M0,100v320" style="stroke: rgb(255, 255, 255); stroke-opacity: 1; stroke-width: 2px;"/></g><path class="xlines-below"/><path class="ylines-below"/><g class="overlines-below"/><g class="xaxislayer-below"/><g class="yaxislayer-below"/><g class="overaxes-below"/><g class="plot" transform="translate(90,100)" clip-path="url(#clip2d5c53xyplot)"><g class="scatterlayer mlayer"><g class="trace scatter trace3a948e" style="stroke-miterlimit: 2;"><g class="fills"><g><path class="js-fill" d="M0.66,303.49L41.13,303.35L41.79,303.24L45.77,303.4L46.43,303.37L54.39,303.5L55.06,303.58L57.71,303.9L58.37,303.62L80.26,303.65L80.93,302.78L84.91,302.22L85.57,302.22L92.87,301.51L93.53,301.13L94.86,301.78L95.52,301.77L102.82,300.7L103.48,300.7L106.8,300.66L107.46,301.59L109.45,301.59L110.11,300.49L120.06,299.93L120.73,299.54L124.71,299.16L125.37,298.93L129.35,299.41L130.01,298.9L133.33,298.29L133.99,298.07L154.56,296.71L155.22,296.04L157.21,296.13L157.87,297.3L161.85,297.59L162.52,295.98L167.82,296.06L168.49,294.67L175.78,295L176.45,293.78L179.1,293.03L179.76,293.05L185.73,292.72L186.4,292.29L191.7,292.3L192.37,292.36L193.03,292.34L193.69,290.94L200.99,290.44L201.65,289.49L206.3,289.1L206.96,289.1L219.56,289.07L220.23,288.21L222.88,287.16L223.54,286.82L227.52,285.51L228.19,284.48L233.49,283.25L234.16,283.28L237.47,282.93L238.14,282.52L239.46,282.26L240.13,279.82L246.1,278.83L246.76,278.03L251.4,277.97L252.07,276.62L253.39,277.96L254.06,277.95L256.71,278.07L257.37,275.2L258.7,274.01L259.36,274.01L264.67,274.02L265.33,272.45L272.63,272.51L273.29,272.56L274.62,272.64L275.28,271.61L277.93,271.62L278.6,269.04L279.92,269.06L280.59,267.59L289.21,267.05L289.87,266.31L290.54,266.31L291.2,265.26L295.18,265.3L295.84,263.63L297.17,263.12L297.83,263.2L299.82,262.68L300.49,261.21L306.46,261.34L307.12,257.8L308.45,257.63L309.11,256.11L310.44,256.2L311.1,255.34L315.74,254.57L316.41,254.47L321.71,254.41L322.38,253.25L323.7,251.51L324.37,251.64L326.36,251.61L327.02,250.63L328.35,249.89L329.01,249.81L331.66,248.97L332.33,248.31L334.32,248L334.98,247.17L340.95,246.47L341.61,246.39L342.94,246.27L343.6,244.47L348.25,244.04L348.91,244.04L350.24,243.4L350.9,240.73L352.23,239.06L352.89,239.5L355.54,239.67L356.21,238.68L360.85,238.12L361.51,236.29L362.18,236.14L362.84,234.74L369.47,233.7L370.14,233.69L371.46,233.15L372.13,233.18L372.79,233.18L373.45,227.51L374.78,227.51L375.44,224.93L380.09,224.09L380.75,224.09L384.73,224.07L385.39,221.97L386.72,222.12L387.38,216.22L390.04,216.04L390.7,214.36L393.35,212.83L394.02,211.8L396.01,212.07L396.67,204.14L399.32,204.11L399.99,203.12L401.31,202.25L401.98,200.73L403.3,200.59L403.97,199.57L404.63,199.57L405.29,196.71L409.27,196.46L409.94,195.03L410.6,194.99L411.26,191.99L413.92,191.2L414.58,189.96L415.24,189.91L415.91,186.57L427.18,185.83L427.85,174.24L429.17,174.16L429.84,172.59L431.16,168.57L431.83,165.47L433.82,165.71L434.48,164.85L435.81,164.49L436.47,164.62L440.45,164.85L441.11,155.91L443.1,152.68L443.77,152.63L445.09,151.14L445.76,151.14L447.08,150.54L447.75,150.57L448.41,150.57L449.07,148.94L453.05,141.57L453.72,141.43L455.71,140.67L456.37,140.66L457.7,140.13L458.36,139.43L460.35,137.37L461.01,134.66L461.68,134.66L462.34,131.64L463.67,127.47L464.33,128.74L468.97,128.24L469.64,127.57L470.3,126.98L470.96,124.68L471.63,124.06L472.29,122.39L474.94,119.87L475.61,120.94L476.93,121.27L477.6,120.96L481.58,120.28L482.24,114.04L483.57,112.67L484.23,112.65L486.22,112.61L486.88,100.99L488.87,100.27L489.54,100.22L490.86,98.2L491.53,98.18L494.84,98.59L495.51,96.51L497.5,96.53L498.16,87.86L500.81,86.41L501.48,85.94L503.47,85.87L504.13,86.38L508.77,86.02L509.44,73.43L510.76,73.32L511.43,70.21L512.75,69.65L513.42,68.17L515.41,67.04L516.07,66.81L518.06,66.5L518.72,66.55L521.38,66.56L522.04,59.04L524.03,58.82L524.69,50.11L526.02,49.92L526.68,46.63L527.35,46.48L528.01,36.19L528.67,34.99L529.34,29.69L529.34,16L522.7,16.27L522.04,18.13L521.38,18.12L520.71,21.17L518.72,21.28L518.06,21.27L515.41,22.53L514.74,23.19L513.42,30.58L512.75,30.39L511.43,32L510.76,32.32L508.77,35.2L508.11,35.16L506.78,41.99L506.12,42.17L501.48,43.07L500.81,55.18L499.49,55.42L498.82,66.77L497.5,66.25L496.83,66.67L495.51,70.6L494.84,70.78L493.52,72.07L492.85,72.28L491.53,74.54L490.86,74.63L489.54,76.29L488.87,78.17L486.88,78.91L486.22,83.34L484.23,84.04L483.57,85.93L481.58,86.06L480.91,86.07L479.59,90.01L478.92,90.69L476.27,99.56L475.61,100.55L474.94,100.75L474.28,99.74L472.29,99.89L471.63,104.72L470.96,105.03L470.3,107.18L466.98,107.53L466.32,107.63L463,108.34L462.34,111.95L461.01,111.72L460.35,116.48L457.7,117.25L457.03,117.24L455.71,118.89L455.04,119.76L453.72,119.8L453.05,123.36L452.39,123.51L451.73,125.56L451.06,125.58L450.4,129.13L449.07,129.77L448.41,130.19L447.08,132.95L446.42,133.54L445.09,136.97L444.43,137.41L443.1,138.14L442.44,139.54L439.12,140.03L438.46,142.69L437.13,142.89L436.47,144.28L434.48,145.59L433.82,141.8L431.16,141.83L430.5,146.17L427.85,146.02L427.18,146.02L425.86,153.98L425.19,152.85L420.55,153.07L419.89,159.47L417.9,160.69L417.23,161.95L416.57,161.97L415.91,162.05L413.25,164.69L412.59,164.06L408.61,163.52L407.95,181.27L405.96,181.65L405.29,182.43L403.97,182.78L403.3,182.92L401.98,183.96L401.31,185.19L396.01,187.28L395.34,192.48L393.35,193.17L392.69,195.61L386.72,195.62L386.06,197.6L384.73,197.64L384.07,200.79L383.4,200.91L382.74,201.14L381.41,202.09L380.75,202.42L379.42,204.3L378.76,204.92L376.77,205.61L376.11,205.64L374.78,207.71L374.12,208L372.79,210.34L372.13,208.05L371.46,208.06L370.8,208.08L369.47,211.14L368.81,211.23L364.83,213.26L364.17,214.35L362.84,214.42L362.18,217.48L361.51,217.49L360.85,217.52L359.52,219.86L358.86,219.89L357.53,223.67L356.87,223.74L355.54,225.98L354.88,225.97L352.23,226.51L351.56,227.5L349.57,229.01L348.91,230.22L348.25,230.23L347.58,231.48L342.94,234.23L342.28,235.34L341.61,235.35L340.95,235.37L339.62,236.45L338.96,236.51L336.97,239.94L336.31,240.54L334.32,241.25L333.65,241.32L329.67,242.29L329.01,243.78L325.03,243.39L324.37,244.34L318.4,245.6L317.73,246.97L311.76,247.24L311.1,247.32L309.77,249.13L309.11,250.69L303.8,251.51L303.14,252.39L298.5,252.67L297.83,253.51L293.19,254.15L292.53,255.53L291.86,255.69L291.2,257.48L290.54,257.49L289.87,257.51L282.58,258.14L281.91,261.95L273.95,262.76L273.29,264.57L271.96,264.63L271.3,266.36L267.98,267.22L267.32,267.69L265.99,268.17L265.33,268.4L258.7,269.11L258.04,269.87L252.07,270.74L251.4,271.06L250.08,271.7L249.41,273.25L241.45,273.72L240.79,274.49L236.81,275.29L236.15,276.13L230.18,277.49L229.51,277.72L226.86,278.75L226.2,279.1L220.23,279.94L219.56,279.97L217.57,280.32L216.91,280.99L210.28,282.76L209.61,282.83L208.29,282.86L207.62,282.88L206.3,283.6L205.63,284.85L199.66,285.32L199,286.3L194.36,286.56L193.69,286.76L188.39,286.81L187.72,286.81L185.07,289L184.41,290.22L171.8,291.12L171.14,291.88L165.17,292.46L164.51,292.64L149.25,294.11L148.59,294.14L145.93,294.89L145.27,295.36L133.33,296.16L132.67,296.47L122.72,296.76L122.05,297.71L110.78,298.43L110.11,298.52L96.18,299.68L95.52,299.71L79.6,301.09L78.94,301.12L65.67,301.87L65.01,301.88L25.21,302.53L24.54,302.45L0.66,302.28Z" style="fill: rgb(68, 68, 68); fill-opacity: 0.3; stroke-width: 0;"/></g></g><g class="errorbars"/><g class="lines"><path class="js-line" d="M0.66,302.28L24.54,302.45L25.21,302.53L65.01,301.88L65.67,301.87L78.94,301.12L79.6,301.09L95.52,299.71L96.18,299.68L110.11,298.52L110.78,298.43L122.05,297.71L122.72,296.76L132.67,296.47L133.33,296.16L145.27,295.36L145.93,294.89L148.59,294.14L149.25,294.11L164.51,292.64L165.17,292.46L171.14,291.88L171.8,291.12L184.41,290.22L185.07,289L187.72,286.81L188.39,286.81L193.69,286.76L194.36,286.56L199,286.3L199.66,285.32L205.63,284.85L206.3,283.6L207.62,282.88L208.29,282.86L209.61,282.83L210.28,282.76L216.91,280.99L217.57,280.32L219.56,279.97L220.23,279.94L226.2,279.1L226.86,278.75L229.51,277.72L230.18,277.49L236.15,276.13L236.81,275.29L240.79,274.49L241.45,273.72L249.41,273.25L250.08,271.7L251.4,271.06L252.07,270.74L258.04,269.87L258.7,269.11L265.33,268.4L265.99,268.17L267.32,267.69L267.98,267.22L271.3,266.36L271.96,264.63L273.29,264.57L273.95,262.76L281.91,261.95L282.58,258.14L289.87,257.51L290.54,257.49L291.2,257.48L291.86,255.69L292.53,255.53L293.19,254.15L297.83,253.51L298.5,252.67L303.14,252.39L303.8,251.51L309.11,250.69L309.77,249.13L311.1,247.32L311.76,247.24L317.73,246.97L318.4,245.6L324.37,244.34L325.03,243.39L329.01,243.78L329.67,242.29L333.65,241.32L334.32,241.25L336.31,240.54L336.97,239.94L338.96,236.51L339.62,236.45L340.95,235.37L341.61,235.35L342.28,235.34L342.94,234.23L347.58,231.48L348.25,230.23L348.91,230.22L349.57,229.01L351.56,227.5L352.23,226.51L354.88,225.97L355.54,225.98L356.87,223.74L357.53,223.67L358.86,219.89L359.52,219.86L360.85,217.52L361.51,217.49L362.18,217.48L362.84,214.42L364.17,214.35L364.83,213.26L368.81,211.23L369.47,211.14L370.8,208.08L371.46,208.06L372.13,208.05L372.79,210.34L374.12,208L374.78,207.71L376.11,205.64L376.77,205.61L378.76,204.92L379.42,204.3L380.75,202.42L381.41,202.09L382.74,201.14L383.4,200.91L384.07,200.79L384.73,197.64L386.06,197.6L386.72,195.62L392.69,195.61L393.35,193.17L395.34,192.48L396.01,187.28L401.31,185.19L401.98,183.96L403.3,182.92L403.97,182.78L405.29,182.43L405.96,181.65L407.95,181.27L408.61,163.52L412.59,164.06L413.25,164.69L415.91,162.05L416.57,161.97L417.23,161.95L417.9,160.69L419.89,159.47L420.55,153.07L425.19,152.85L425.86,153.98L427.18,146.02L427.85,146.02L430.5,146.17L431.16,141.83L433.82,141.8L434.48,145.59L436.47,144.28L437.13,142.89L438.46,142.69L439.12,140.03L442.44,139.54L443.1,138.14L444.43,137.41L445.09,136.97L446.42,133.54L447.08,132.95L448.41,130.19L449.07,129.77L450.4,129.13L451.06,125.58L451.73,125.56L452.39,123.51L453.05,123.36L453.72,119.8L455.04,119.76L455.71,118.89L457.03,117.24L457.7,117.25L460.35,116.48L461.01,111.72L462.34,111.95L463,108.34L466.32,107.63L466.98,107.53L470.3,107.18L470.96,105.03L471.63,104.72L472.29,99.89L474.28,99.74L474.94,100.75L475.61,100.55L476.27,99.56L478.92,90.69L479.59,90.01L480.91,86.07L481.58,86.06L483.57,85.93L484.23,84.04L486.22,83.34L486.88,78.91L488.87,78.17L489.54,76.29L490.86,74.63L491.53,74.54L492.85,72.28L493.52,72.07L494.84,70.78L495.51,70.6L496.83,66.67L497.5,66.25L498.82,66.77L499.49,55.42L500.81,55.18L501.48,43.07L506.12,42.17L506.78,41.99L508.11,35.16L508.77,35.2L510.76,32.32L511.43,32L512.75,30.39L513.42,30.58L514.74,23.19L515.41,22.53L518.06,21.27L518.72,21.28L520.71,21.17L521.38,18.12L522.04,18.13L522.7,16.27L529.34,16" style="vector-effect: non-scaling-stroke; fill: none; stroke: rgb(68, 68, 68); stroke-opacity: 1; stroke-width: 0px; opacity: 1;"/></g><g class="points"/><g class="text"/></g><g class="trace scatter trace0658bf" style="stroke-miterlimit: 2;"><g class="fills"/><g class="errorbars"/><g class="lines"><path class="js-line" d="M0.66,303.49L41.13,303.35L41.79,303.24L45.77,303.4L46.43,303.37L54.39,303.5L55.06,303.58L57.71,303.9L58.37,303.62L80.26,303.65L80.93,302.78L84.91,302.22L85.57,302.22L92.87,301.51L93.53,301.13L94.86,301.78L95.52,301.77L102.82,300.7L103.48,300.7L106.8,300.66L107.46,301.59L109.45,301.59L110.11,300.49L120.06,299.93L120.73,299.54L124.71,299.16L125.37,298.93L129.35,299.41L130.01,298.9L133.33,298.29L133.99,298.07L154.56,296.71L155.22,296.04L157.21,296.13L157.87,297.3L161.85,297.59L162.52,295.98L167.82,296.06L168.49,294.67L175.78,295L176.45,293.78L179.1,293.03L179.76,293.05L185.73,292.72L186.4,292.29L191.7,292.3L192.37,292.36L193.03,292.34L193.69,290.94L200.99,290.44L201.65,289.49L206.3,289.1L206.96,289.1L219.56,289.07L220.23,288.21L222.88,287.16L223.54,286.82L227.52,285.51L228.19,284.48L233.49,283.25L234.16,283.28L237.47,282.93L238.14,282.52L239.46,282.26L240.13,279.82L246.1,278.83L246.76,278.03L251.4,277.97L252.07,276.62L253.39,277.96L254.06,277.95L256.71,278.07L257.37,275.2L258.7,274.01L259.36,274.01L264.67,274.02L265.33,272.45L272.63,272.51L273.29,272.56L274.62,272.64L275.28,271.61L277.93,271.62L278.6,269.04L279.92,269.06L280.59,267.59L289.21,267.05L289.87,266.31L290.54,266.31L291.2,265.26L295.18,265.3L295.84,263.63L297.17,263.12L297.83,263.2L299.82,262.68L300.49,261.21L306.46,261.34L307.12,257.8L308.45,257.63L309.11,256.11L310.44,256.2L311.1,255.34L315.74,254.57L316.41,254.47L321.71,254.41L322.38,253.25L323.7,251.51L324.37,251.64L326.36,251.61L327.02,250.63L328.35,249.89L329.01,249.81L331.66,248.97L332.33,248.31L334.32,248L334.98,247.17L340.95,246.47L341.61,246.39L342.94,246.27L343.6,244.47L348.25,244.04L348.91,244.04L350.24,243.4L350.9,240.73L352.23,239.06L352.89,239.5L355.54,239.67L356.21,238.68L360.85,238.12L361.51,236.29L362.18,236.14L362.84,234.74L369.47,233.7L370.14,233.69L371.46,233.15L372.13,233.18L372.79,233.18L373.45,227.51L374.78,227.51L375.44,224.93L380.09,224.09L380.75,224.09L384.73,224.07L385.39,221.97L386.72,222.12L387.38,216.22L390.04,216.04L390.7,214.36L393.35,212.83L394.02,211.8L396.01,212.07L396.67,204.14L399.32,204.11L399.99,203.12L401.31,202.25L401.98,200.73L403.3,200.59L403.97,199.57L404.63,199.57L405.29,196.71L409.27,196.46L409.94,195.03L410.6,194.99L411.26,191.99L413.92,191.2L414.58,189.96L415.24,189.91L415.91,186.57L427.18,185.83L427.85,174.24L429.17,174.16L429.84,172.59L431.16,168.57L431.83,165.47L433.82,165.71L434.48,164.85L435.81,164.49L436.47,164.62L440.45,164.85L441.11,155.91L443.1,152.68L443.77,152.63L445.09,151.14L445.76,151.14L447.08,150.54L447.75,150.57L448.41,150.57L449.07,148.94L453.05,141.57L453.72,141.43L455.71,140.67L456.37,140.66L457.7,140.13L458.36,139.43L460.35,137.37L461.01,134.66L461.68,134.66L462.34,131.64L463.67,127.47L464.33,128.74L468.97,128.24L469.64,127.57L470.3,126.98L470.96,124.68L471.63,124.06L472.29,122.39L474.94,119.87L475.61,120.94L476.93,121.27L477.6,120.96L481.58,120.28L482.24,114.04L483.57,112.67L484.23,112.65L486.22,112.61L486.88,100.99L488.87,100.27L489.54,100.22L490.86,98.2L491.53,98.18L494.84,98.59L495.51,96.51L497.5,96.53L498.16,87.86L500.81,86.41L501.48,85.94L503.47,85.87L504.13,86.38L508.77,86.02L509.44,73.43L510.76,73.32L511.43,70.21L512.75,69.65L513.42,68.17L515.41,67.04L516.07,66.81L518.06,66.5L518.72,66.55L521.38,66.56L522.04,59.04L524.03,58.82L524.69,50.11L526.02,49.92L526.68,46.63L527.35,46.48L528.01,36.19L528.67,34.99L529.34,29.69" style="vector-effect: non-scaling-stroke; fill: none; stroke: rgb(68, 68, 68); stroke-opacity: 1; stroke-width: 0px; opacity: 1;"/></g><g class="points"/><g class="text"/></g><g class="trace scatter tracef04f89" style="stroke-miterlimit: 2; opacity: 1;"><g class="fills"/><g class="errorbars"/><g class="lines"><path class="js-line" d="M0.66,302.8L49.09,302.83L49.75,302.81L90.88,300.95L91.54,300.86L104.14,299.86L104.81,299.82L153.89,295.38L154.56,295.29L169.81,293.27L170.48,293.24L181.09,291.71L181.75,291.55L187.72,290.5L188.39,290.21L191.7,289.62L192.37,289.6L204.31,287.03L204.97,287.21L206.96,286.91L207.62,286.53L218.24,284.22L218.9,283.89L228.19,281.12L228.85,281.27L249.41,275.07L250.08,274.92L257.37,272.4L258.04,272.16L262.68,270.83L263.34,270.84L268.65,269.5L269.31,269.33L282.58,264.76L283.24,264.45L285.89,262.95L286.56,263.3L289.21,262.69L289.87,262.28L295.84,259.28L296.51,258.55L298.5,257.14L299.16,256.96L302.48,255.65L303.14,255.53L317.07,250.98L317.73,251.03L320.39,249.92L321.05,249.69L327.68,246.45L328.35,246.36L330.34,245.36L331,245.23L333.65,244.47L334.32,244.36L336.97,243.3L337.63,242.64L345.59,238.67L346.26,238.01L353.55,233.35L354.22,233.46L357.53,231.31L358.2,231.52L359.52,231.33L360.19,230.13L361.51,227.9L362.18,227.73L365.49,225.34L366.16,225.02L369.47,221.79L370.14,221.17L372.13,219.08L372.79,218.31L388.71,203.65L389.37,203.65L390.7,202.57L391.36,201.86L392.69,200.95L393.35,200.19L394.68,200.22L395.34,199.03L398,195.38L398.66,195.29L402.64,192.57L403.3,191.81L406.62,188.64L407.28,187.9L408.61,188.07L409.27,185.9L411.26,183.46L411.93,182.99L413.25,182.46L413.92,180.85L416.57,176.74L417.23,176.24L419.89,173.95L420.55,172.25L421.88,169.24L422.54,168.3L423.87,166.91L424.53,165.69L426.52,162.15L427.18,161.34L432.49,154.66L433.15,154.85L434.48,154.24L435.14,153.06L436.47,152.63L437.13,151.54L439.79,149.35L440.45,148.12L444.43,143.38L445.09,142.65L449.74,136.69L450.4,136.53L451.73,135.89L452.39,135.04L461.68,123.33L462.34,122.71L464.33,121.37L464.99,121.08L468.31,117L468.97,116.49L470.96,115.94L471.63,114.89L475.61,110.05L476.27,109.7L476.93,109.43L477.6,108.16L485.56,95L486.22,93.28L490.2,89.42L490.86,88.82L492.85,85.8L493.52,85.48L498.82,76.9L499.49,76.67L504.13,69.72L504.79,69.42L509.44,59.25L510.1,59.93L514.08,47.66L514.74,47.22L518.06,41.92L518.72,42.55L522.7,33.87L523.37,31.44L525.36,25.47L526.02,24.5L527.35,22.08L528.01,20.39L529.34,18.34" style="vector-effect: non-scaling-stroke; fill: none; stroke: rgb(31, 119, 180); stroke-opacity: 1; stroke-width: 2px; opacity: 1;"/></g><g class="points"/><g class="text"/></g><g class="trace scatter trace238707" style="stroke-miterlimit: 2;"><g class="fills"><g><path class="js-fill" d="M0.66,302.77L49.09,302.81L49.75,302.79L90.88,300.92L91.54,300.83L103.48,299.9L104.14,299.84L130.01,297.57L130.68,297.49L143.28,296.66L143.94,296.5L173.13,292.68L173.79,292.58L188.39,290.12L189.05,289.89L197.67,288.7L198.34,288.51L201.65,287.29L202.32,287.13L208.95,286.26L209.61,286.13L215.58,284.78L216.25,284.59L220.89,283.28L221.55,283.04L226.86,281.48L227.52,281.11L232.17,279.98L232.83,279.73L234.82,279.43L235.48,278.96L240.13,277.31L240.79,276.92L253.39,273.9L254.06,273.5L262.02,270.88L262.68,270.74L265.99,270.03L266.66,269.79L277.93,266.47L278.6,266.08L282.58,264.63L283.24,264.3L285.89,262.77L286.56,263.16L289.21,262.55L289.87,262.15L295.84,259.07L296.51,258.32L298.5,256.94L299.16,256.78L302.48,255.5L303.14,255.4L317.73,250.89L318.4,250.78L325.69,246.77L326.36,246.6L332.33,244.88L332.99,244.57L342.94,240.42L343.6,239.96L346.26,237.78L346.92,237.4L350.9,234.57L351.56,234.37L357.53,231.02L358.2,231.19L359.52,231.02L360.19,229.78L361.51,227.53L362.18,227.37L365.49,224.95L366.16,224.55L367.48,223.76L368.15,223.06L369.47,221.32L370.14,220.7L372.79,217.88L373.45,217.33L374.78,216.03L375.44,214.75L381.41,209.8L382.08,209.08L388.71,203.31L389.37,203.33L390.7,202.28L391.36,201.6L392.69,200.62L393.35,199.87L394.68,199.88L395.34,198.68L398.66,194.95L399.32,194.63L407.28,187.5L407.95,187.99L408.61,187.64L409.27,185.45L411.26,183.02L411.93,182.59L413.25,182.08L413.92,180.37L416.57,176.14L417.23,175.68L419.89,173.45L420.55,171.67L421.88,168.61L422.54,167.71L423.87,166.39L424.53,165.18L427.85,160.05L428.51,159.06L431.83,154.66L432.49,154.32L433.82,154.36L434.48,153.87L435.81,152.48L436.47,152.25L437.8,150.81L438.46,150.47L448.41,138.01L449.07,136.85L453.05,133.77L453.72,133.13L456.37,129.42L457.03,128.19L461.01,123.68L461.68,122.98L466.32,118.57L466.98,117.75L469.64,115.89L470.3,115.99L471.63,114.53L472.29,113.49L478.92,105.8L479.59,104.07L480.91,102.72L481.58,102.14L482.9,99.17L483.57,98.52L486.88,92.03L487.55,91.62L491.53,87.23L492.19,85.75L494.18,83.84L494.84,82.69L496.17,80.97L496.83,79.85L498.82,76.44L499.49,76.22L504.13,68.91L504.79,68.61L509.44,58.4L510.1,59.16L514.08,46.9L514.74,46.45L518.06,40.81L518.72,41.49L522.04,35.61L522.7,32.77L525.36,24.71L526.02,23.77L527.35,21.4L528.01,19.86L529.34,17.96L529.34,18.72L528.01,20.92L527.35,22.76L526.02,25.23L525.36,26.22L523.37,32.54L522.7,34.97L518.72,43.61L518.06,43.04L514.74,47.98L514.08,48.42L510.1,60.7L509.44,60.09L508.77,60.33L508.11,61.68L505.46,68.74L504.79,70.22L504.13,70.53L503.47,70.57L499.49,77.12L498.82,77.35L497.5,79.21L496.83,80.75L494.84,83.59L494.18,84.82L492.19,86.71L491.53,88.09L487.55,92.59L486.88,92.92L485.56,95.55L484.89,97.3L477.6,108.63L476.93,109.85L476.27,110.08L475.61,110.36L471.63,115.26L470.96,116.3L469.64,116.65L468.97,116.86L466.32,119.15L465.66,120.38L464.33,121.73L463.67,121.8L455.04,131.47L454.38,133.25L453.72,133.94L453.05,134.52L451.06,136.65L450.4,136.87L444.43,143.63L443.77,144.37L440.45,148.49L439.79,149.71L437.13,151.9L436.47,153.02L435.14,153.44L434.48,154.62L433.15,155.23L432.49,155L426.52,162.65L425.86,164.43L424.53,166.2L423.87,167.44L422.54,168.89L421.88,169.88L420.55,172.83L419.89,174.46L417.23,176.79L416.57,177.34L413.92,181.32L413.25,182.84L411.93,183.39L411.26,183.91L409.27,186.34L408.61,188.5L407.95,188.83L407.28,188.3L406.62,189.02L405.96,189.41L403.3,192.11L402.64,192.85L398.66,195.62L398,195.7L395.34,199.38L394.68,200.57L393.35,200.5L392.69,201.28L391.36,202.12L390.7,202.87L389.37,203.97L388.71,203.98L380.09,211.72L379.42,212.54L376.77,214.48L376.11,214.92L374.78,216.71L374.12,217.54L370.8,220.51L370.14,221.64L368.81,222.61L368.15,224.08L365.49,225.73L364.83,226.01L362.18,228.09L361.51,228.27L360.19,230.48L359.52,231.65L358.2,231.86L357.53,231.6L354.22,233.74L353.55,233.63L352.23,234.4L351.56,234.84L342.94,240.82L342.28,241.01L337.63,242.82L336.97,243.48L322.38,249.01L321.71,249.5L315.74,251.71L315.08,251.64L311.76,252.62L311.1,253L307.78,253.98L307.12,254.35L302.48,255.79L301.81,255.99L297.17,257.92L296.51,258.78L291.2,261.84L290.54,262.12L287.22,263.48L286.56,263.45L282.58,264.89L281.91,265.01L278.6,266.3L277.93,266.71L268.65,269.59L267.98,269.67L242.78,276.85L242.12,276.95L240.13,277.53L239.46,277.89L230.84,280.47L230.18,280.81L215.58,285.06L214.92,285.44L208.29,286.51L207.62,286.62L204.97,287.31L204.31,287.12L192.37,289.68L191.7,289.7L188.39,290.29L187.72,290.58L183.08,291.56L182.42,291.56L172.47,292.92L171.8,293.13L156.55,295.04L155.88,295.14L102.15,300.05L101.49,300.12L91.54,300.9L90.88,300.99L49.09,302.85L48.42,302.86L0.66,302.83Z" style="fill: rgb(68, 68, 68); fill-opacity: 0.7; stroke-width: 0;"/></g></g><g class="errorbars"/><g class="lines"><path class="js-line" d="M0.66,302.83L48.42,302.86L49.09,302.85L90.88,300.99L91.54,300.9L101.49,300.12L102.15,300.05L155.88,295.14L156.55,295.04L171.8,293.13L172.47,292.92L182.42,291.56L183.08,291.56L187.72,290.58L188.39,290.29L191.7,289.7L192.37,289.68L204.31,287.12L204.97,287.31L207.62,286.62L208.29,286.51L214.92,285.44L215.58,285.06L230.18,280.81L230.84,280.47L239.46,277.89L240.13,277.53L242.12,276.95L242.78,276.85L267.98,269.67L268.65,269.59L277.93,266.71L278.6,266.3L281.91,265.01L282.58,264.89L286.56,263.45L287.22,263.48L290.54,262.12L291.2,261.84L296.51,258.78L297.17,257.92L301.81,255.99L302.48,255.79L307.12,254.35L307.78,253.98L311.1,253L311.76,252.62L315.08,251.64L315.74,251.71L321.71,249.5L322.38,249.01L336.97,243.48L337.63,242.82L342.28,241.01L342.94,240.82L351.56,234.84L352.23,234.4L353.55,233.63L354.22,233.74L357.53,231.6L358.2,231.86L359.52,231.65L360.19,230.48L361.51,228.27L362.18,228.09L364.83,226.01L365.49,225.73L368.15,224.08L368.81,222.61L370.14,221.64L370.8,220.51L374.12,217.54L374.78,216.71L376.11,214.92L376.77,214.48L379.42,212.54L380.09,211.72L388.71,203.98L389.37,203.97L390.7,202.87L391.36,202.12L392.69,201.28L393.35,200.5L394.68,200.57L395.34,199.38L398,195.7L398.66,195.62L402.64,192.85L403.3,192.11L405.96,189.41L406.62,189.02L407.28,188.3L407.95,188.83L408.61,188.5L409.27,186.34L411.26,183.91L411.93,183.39L413.25,182.84L413.92,181.32L416.57,177.34L417.23,176.79L419.89,174.46L420.55,172.83L421.88,169.88L422.54,168.89L423.87,167.44L424.53,166.2L425.86,164.43L426.52,162.65L432.49,155L433.15,155.23L434.48,154.62L435.14,153.44L436.47,153.02L437.13,151.9L439.79,149.71L440.45,148.49L443.77,144.37L444.43,143.63L450.4,136.87L451.06,136.65L453.05,134.52L453.72,133.94L454.38,133.25L455.04,131.47L463.67,121.8L464.33,121.73L465.66,120.38L466.32,119.15L468.97,116.86L469.64,116.65L470.96,116.3L471.63,115.26L475.61,110.36L476.27,110.08L476.93,109.85L477.6,108.63L484.89,97.3L485.56,95.55L486.88,92.92L487.55,92.59L491.53,88.09L492.19,86.71L494.18,84.82L494.84,83.59L496.83,80.75L497.5,79.21L498.82,77.35L499.49,77.12L503.47,70.57L504.13,70.53L504.79,70.22L505.46,68.74L508.11,61.68L508.77,60.33L509.44,60.09L510.1,60.7L514.08,48.42L514.74,47.98L518.06,43.04L518.72,43.61L522.7,34.97L523.37,32.54L525.36,26.22L526.02,25.23L527.35,22.76L528.01,20.92L529.34,18.72" style="vector-effect: non-scaling-stroke; fill: none; stroke: rgb(68, 68, 68); stroke-opacity: 1; stroke-width: 0px; opacity: 1;"/></g><g class="points"/><g class="text"/></g><g class="trace scatter trace53d925" style="stroke-miterlimit: 2;"><g class="fills"/><g class="errorbars"/><g class="lines"><path class="js-line" d="M0.66,302.77L49.09,302.81L49.75,302.79L90.88,300.92L91.54,300.83L103.48,299.9L104.14,299.84L130.01,297.57L130.68,297.49L143.28,296.66L143.94,296.5L173.13,292.68L173.79,292.58L188.39,290.12L189.05,289.89L197.67,288.7L198.34,288.51L201.65,287.29L202.32,287.13L208.95,286.26L209.61,286.13L215.58,284.78L216.25,284.59L220.89,283.28L221.55,283.04L226.86,281.48L227.52,281.11L232.17,279.98L232.83,279.73L234.82,279.43L235.48,278.96L240.13,277.31L240.79,276.92L253.39,273.9L254.06,273.5L262.02,270.88L262.68,270.74L265.99,270.03L266.66,269.79L277.93,266.47L278.6,266.08L282.58,264.63L283.24,264.3L285.89,262.77L286.56,263.16L289.21,262.55L289.87,262.15L295.84,259.07L296.51,258.32L298.5,256.94L299.16,256.78L302.48,255.5L303.14,255.4L317.73,250.89L318.4,250.78L325.69,246.77L326.36,246.6L332.33,244.88L332.99,244.57L342.94,240.42L343.6,239.96L346.26,237.78L346.92,237.4L350.9,234.57L351.56,234.37L357.53,231.02L358.2,231.19L359.52,231.02L360.19,229.78L361.51,227.53L362.18,227.37L365.49,224.95L366.16,224.55L367.48,223.76L368.15,223.06L369.47,221.32L370.14,220.7L372.79,217.88L373.45,217.33L374.78,216.03L375.44,214.75L381.41,209.8L382.08,209.08L388.71,203.31L389.37,203.33L390.7,202.28L391.36,201.6L392.69,200.62L393.35,199.87L394.68,199.88L395.34,198.68L398.66,194.95L399.32,194.63L407.28,187.5L407.95,187.99L408.61,187.64L409.27,185.45L411.26,183.02L411.93,182.59L413.25,182.08L413.92,180.37L416.57,176.14L417.23,175.68L419.89,173.45L420.55,171.67L421.88,168.61L422.54,167.71L423.87,166.39L424.53,165.18L427.85,160.05L428.51,159.06L431.83,154.66L432.49,154.32L433.82,154.36L434.48,153.87L435.81,152.48L436.47,152.25L437.8,150.81L438.46,150.47L448.41,138.01L449.07,136.85L453.05,133.77L453.72,133.13L456.37,129.42L457.03,128.19L461.01,123.68L461.68,122.98L466.32,118.57L466.98,117.75L469.64,115.89L470.3,115.99L471.63,114.53L472.29,113.49L478.92,105.8L479.59,104.07L480.91,102.72L481.58,102.14L482.9,99.17L483.57,98.52L486.88,92.03L487.55,91.62L491.53,87.23L492.19,85.75L494.18,83.84L494.84,82.69L496.17,80.97L496.83,79.85L498.82,76.44L499.49,76.22L504.13,68.91L504.79,68.61L509.44,58.4L510.1,59.16L514.08,46.9L514.74,46.45L518.06,40.81L518.72,41.49L522.04,35.61L522.7,32.77L525.36,24.71L526.02,23.77L527.35,21.4L528.01,19.86L529.34,17.96" style="vector-effect: non-scaling-stroke; fill: none; stroke: rgb(68, 68, 68); stroke-opacity: 1; stroke-width: 0px; opacity: 1;"/></g><g class="points"/><g class="text"/></g></g></g><g class="overplot"/><path class="xlines-above crisp" d="M0,0" style="fill: none;"/><path class="ylines-above crisp" d="M0,0" style="fill: none;"/><g class="overlines-above"/><g class="xaxislayer-above"><g class="xtick"><text text-anchor="middle" x="0" y="433" transform="translate(90,0)" style="font-family: 'Open Sans', verdana, arial, sans-serif; font-size: 12px; fill: rgb(42, 63, 95); fill-opacity: 1; white-space: pre; opacity: 1;">0</text></g><g class="xtick"><text text-anchor="middle" x="0" y="433" style="font-family: 'Open Sans', verdana, arial, sans-serif; font-size: 12px; fill: rgb(42, 63, 95); fill-opacity: 1; white-space: pre; opacity: 1;" transform="translate(222.67,0)">10</text></g><g class="xtick"><text text-anchor="middle" x="0" y="433" style="font-family: 'Open Sans', verdana, arial, sans-serif; font-size: 12px; fill: rgb(42, 63, 95); fill-opacity: 1; white-space: pre; opacity: 1;" transform="translate(355.33,0)">20</text></g><g class="xtick"><text text-anchor="middle" x="0" y="433" style="font-family: 'Open Sans', verdana, arial, sans-serif; font-size: 12px; fill: rgb(42, 63, 95); fill-opacity: 1; white-space: pre; opacity: 1;" transform="translate(488,0)">30</text></g></g><g class="yaxislayer-above"><g class="ytick"><text text-anchor="end" x="89" y="4.199999999999999" transform="translate(0,393.41)" style="font-family: 'Open Sans', verdana, arial, sans-serif; font-size: 12px; fill: rgb(42, 63, 95); fill-opacity: 1; white-space: pre; opacity: 1;">7.95e+8</text></g><g class="ytick"><text text-anchor="end" x="89" y="4.199999999999999" style="font-family: 'Open Sans', verdana, arial, sans-serif; font-size: 12px; fill: rgb(42, 63, 95); fill-opacity: 1; white-space: pre; opacity: 1;" transform="translate(0,344.72)">8e+8</text></g><g class="ytick"><text text-anchor="end" x="89" y="4.199999999999999" style="font-family: 'Open Sans', verdana, arial, sans-serif; font-size: 12px; fill: rgb(42, 63, 95); fill-opacity: 1; white-space: pre; opacity: 1;" transform="translate(0,296.03)">8.05e+8</text></g><g class="ytick"><text text-anchor="end" x="89" y="4.199999999999999" style="font-family: 'Open Sans', verdana, arial, sans-serif; font-size: 12px; fill: rgb(42, 63, 95); fill-opacity: 1; white-space: pre; opacity: 1;" transform="translate(0,247.34)">8.1e+8</text></g><g class="ytick"><text text-anchor="end" x="89" y="4.199999999999999" style="font-family: 'Open Sans', verdana, arial, sans-serif; font-size: 12px; fill: rgb(42, 63, 95); fill-opacity: 1; white-space: pre; opacity: 1;" transform="translate(0,198.65)">8.15e+8</text></g><g class="ytick"><text text-anchor="end" x="89" y="4.199999999999999" style="font-family: 'Open Sans', verdana, arial, sans-serif; font-size: 12px; fill: rgb(42, 63, 95); fill-opacity: 1; white-space: pre; opacity: 1;" transform="translate(0,149.96)">8.2e+8</text></g><g class="ytick"><text text-anchor="end" x="89" y="4.199999999999999" style="font-family: 'Open Sans', verdana, arial, sans-serif; font-size: 12px; fill: rgb(42, 63, 95); fill-opacity: 1; white-space: pre; opacity: 1;" transform="translate(0,101.27)">8.25e+8</text></g></g><g class="overaxes-above"/></g></g><g class="polarlayer"/><g class="smithlayer"/><g class="ternarylayer"/><g class="geolayer"/><g class="funnelarealayer"/><g class="pielayer"/><g class="iciclelayer"/><g class="treemaplayer"/><g class="sunburstlayer"/><g class="glimages"/><defs id="topdefs-2d5c53"><g class="clips"/></defs><g class="layer-above"><g class="imagelayer"/><g class="shapelayer"/></g><g class="infolayer"><g class="g-gtitle"><text class="gtitle" x="35" y="50" text-anchor="start" dy="0em" style="font-family: 'Open Sans', verdana, arial, sans-serif; font-size: 17px; fill: rgb(42, 63, 95); opacity: 1; font-weight: normal; white-space: pre;">Volumetric current density</text></g><g class="g-xtitle"><text class="xtitle" x="355" y="460.8" text-anchor="middle" style="font-family: 'Open Sans', verdana, arial, sans-serif; font-size: 14px; fill: rgb(42, 63, 95); opacity: 1; font-weight: normal; white-space: pre;">Distance from anode (µm)</text></g><g class="g-ytitle" transform="translate(1.6591796875,0)"><text class="ytitle" transform="rotate(-90,12.340625000000003,260)" x="12.340625000000003" y="260" text-anchor="middle" style="font-family: 'Open Sans', verdana, arial, sans-serif; font-size: 14px; fill: rgb(42, 63, 95); opacity: 1; font-weight: normal; white-space: pre;">Volumetric current density (A/m3)</text></g></g></svg>