<svg class="main-svg" xmlns="http://www.w3.org/2000/svg" xmlns:xlink="http://www.w3.org/1999/xlink" width="700" height="500" style="" viewBox="0 0 700 500"><rect x="0" y="0" width="700" height="500" style="fill: rgb(255, 255, 255); fill-opacity: 1;"/><defs id="defs-0c654a"><g class="clips"><clipPath id="clip0c654axyplot" class="plotclip"><rect width="540" height="320"/></clipPath><clipPath class="axesclip" id="clip0c654ax"><rect x="80" y="0" width="540" height="500"/></clipPath><clipPath class="axesclip" id="clip0c654ay"><rect x="0" y="100" width="700" height="320"/></clipPath><clipPath class="axesclip" id="clip0c654axy"><rect x="80" y="100" width="540" height="320"/></clipPath></g><g class="gradients"/><g class="patterns"/></defs><g class="bglayer"><rect class="bg" x="80" y="100" width="540" height="320" style="fill: rgb(229, 236, 246); fill-opacity: 1; stroke-width: 0;"/></g><g class="layer-below"><g class="imagelayer"/><g class="shapelayer"/></g><g class="cartesianlayer"><g class="subplot xy"><g class="layer-subplot"><g class="shapelayer"/><g class="imagelayer"/></g><g class="minor-gridlayer"><g class="x"/><g class="y"/></g><g class="gridlayer"><g class="x"><path class="xgrid crisp" transform="translate(152.48000000000002,0)" d="M0,100v320" style="stroke: rgb(255, 255, 255); stroke-opacity: 1; stroke-width: 1px;"/><path class="xgrid crisp" transform="translate(224.97,0)" d="M0,100v320" style="stroke: rgb(255, 255, 255); stroke-opacity: 1; stroke-width: 1px;"/><path class="xgrid crisp" transform="translate(297.45,0)" d="M0,100v320" style="stroke: rgb(255, 255, 255); stroke-opacity: 1; stroke-width: 1px;"/><path class="xgrid crisp" transform="translate(369.93,0)" d="M0,100v320" style="stroke: rgb(255, 255, 255); stroke-opacity: 1; stroke-width: 1px;"/><path class="xgrid crisp" transform="translate(442.42,0)" d="M0,100v320" style="stroke: rgb(255, 255, 255); stroke-opacity: 1; stroke-width: 1px;"/><path class="xgrid crisp" transform="translate(514.9,0)" d="M0,100v320" style="stroke: rgb(255, 255, 255); stroke-opacity: 1; stroke-width: 1px;"/><path class="xgrid crisp" transform="translate(587.38,0)" d="M0,100v320" style="stroke: rgb(255, 255, 255); stroke-opacity: 1; stroke-width: 1px;"/></g><g class="y"><path class="ygrid crisp" transform="translate(0,356.74)" d="M80,0h540" style="stroke: rgb(255, 255, 255); stroke-opacity: 1; stroke-width: 1px;"/><path class="ygrid crisp" transform="translate(0,298.64)" d="M80,0h540" style="stroke: rgb(255, 255, 255); stroke-opacity: 1; stroke-width: 1px;"/><path class="ygrid crisp" transform="translate(0,240.53)" d="M80,0h540" style="stroke: rgb(255, 255, 255); stroke-opacity: 1; stroke-width: 1px;"/><path class="ygrid crisp" transform="translate(0,182.42000000000002)" d="M80,0h540" style="stroke: rgb(255, 255, 255); stroke-opacity: 1; stroke-width: 1px;"/><path class="ygrid crisp" transform="translate(0,124.31)" d="M80,0h540" style="stroke: rgb(255, 255, 255); stroke-opacity: 1; stroke-width: 1px;"/></g></g><g class="zerolinelayer"><path class="xzl zl crisp" transform="translate(80,0)" d="M0,100v320" style="stroke: rgb(255, 255, 255); stroke-opacity: 1; stroke-width: 2px;"/><path class="yzl zl crisp" transform="translate(0,414.85)" d="M80,0h540" style="stroke: rgb(255, 255, 255); stroke-opacity: 1; stroke-width: 2px;"/></g><path class="xlines-below"/><path class="ylines-below"/><g class="overlines-below"/><g class="xaxislayer-below"/><g class="yaxislayer-below"/><g class="overaxes-below"/><g class="plot" transform="translate(80,100)" clip-path="url(#clip0c654axyplot)"><g class="scatterlayer mlayer"><g class="trace scatter trace3cdd48" style="stroke-miterlimit: 2;"><g class="fills"><g><path class="js-fill" d="M3.62,303.19L32.62,303.71L36.24,303.91L68.86,303.61L72.48,303.59L134.09,303.2L137.72,302.44L148.59,302.02L152.21,302.27L184.83,301.76L188.46,301.71L242.82,301.7L246.44,299.25L293.56,299.41L297.18,295.81L308.05,295.65L311.68,293.82L315.3,293.92L318.93,297.75L351.54,297.57L355.17,292.29L395.03,292.81L398.66,281.74L409.53,281.31L413.15,280.33L424.03,280.39L427.65,279.83L434.9,278.76L438.52,278.74L445.77,278.85L449.4,262.31L453.02,262.12L456.64,260.06L467.52,259.95L471.14,256.33L474.77,242.75L478.39,241.89L482.01,242.26L485.64,241.2L489.26,244.52L492.89,243.83L500.13,242.85L503.76,242.49L507.38,241.64L511.01,235.15L514.63,235.43L518.26,237.16L532.75,237.72L536.38,198.15L536.38,16L532.75,18.97L525.5,30.16L521.88,36.98L514.63,40.17L511.01,45.78L507.38,48.65L503.76,97.28L500.13,111.49L496.51,120.44L492.89,137.04L489.26,138.9L485.64,137.25L482.01,137.71L478.39,142.45L474.77,157.98L471.14,165.28L467.52,172.29L463.89,175.76L460.27,169.77L456.64,170.64L453.02,179.62L449.4,180.19L445.77,182.71L442.15,191.34L438.52,188.71L431.28,206.85L427.65,211.7L424.03,214.55L420.4,228.53L413.15,230.97L409.53,231.45L405.91,252.9L402.28,232.41L398.66,232.46L395.03,232.62L380.54,234.43L376.91,235.41L373.29,233.83L369.66,235.8L366.04,266.49L362.42,266.53L358.79,267.63L355.17,268.98L347.92,271.76L344.3,274.76L340.67,272.05L337.05,272.01L329.8,272.92L326.17,273.62L322.55,275.44L318.93,276.98L311.68,278.32L308.05,278.41L300.81,284.78L297.18,287.2L286.31,288.37L282.68,290.01L279.06,290.53L275.44,291.69L268.19,291.52L264.56,292.05L257.32,291.13L253.69,291.24L239.19,291.69L235.57,291.8L228.32,293.82L224.7,293.79L213.83,294.58L210.2,295.24L202.95,295.54L199.33,296.04L173.96,296.74L170.34,298.49L126.85,299.07L123.22,300.61L105.1,301.19L101.48,301.2L57.99,301.93L54.36,302.31L3.62,302.59Z" style="fill: rgb(68, 68, 68); fill-opacity: 0.3; stroke-width: 0;"/></g></g><g class="errorbars"/><g class="lines"><path class="js-line" d="M3.62,302.59L54.36,302.31L57.99,301.93L101.48,301.2L105.1,301.19L123.22,300.61L126.85,299.07L170.34,298.49L173.96,296.74L199.33,296.04L202.95,295.54L210.2,295.24L213.83,294.58L224.7,293.79L228.32,293.82L235.57,291.8L239.19,291.69L253.69,291.24L257.32,291.13L264.56,292.05L268.19,291.52L275.44,291.69L279.06,290.53L282.68,290.01L286.31,288.37L297.18,287.2L300.81,284.78L308.05,278.41L311.68,278.32L318.93,276.98L322.55,275.44L326.17,273.62L329.8,272.92L337.05,272.01L340.67,272.05L344.3,274.76L347.92,271.76L355.17,268.98L358.79,267.63L362.42,266.53L366.04,266.49L369.66,235.8L373.29,233.83L376.91,235.41L380.54,234.43L395.03,232.62L398.66,232.46L402.28,232.41L405.91,252.9L409.53,231.45L413.15,230.97L420.4,228.53L424.03,214.55L427.65,211.7L431.28,206.85L438.52,188.71L442.15,191.34L445.77,182.71L449.4,180.19L453.02,179.62L456.64,170.64L460.27,169.77L463.89,175.76L467.52,172.29L471.14,165.28L474.77,157.98L478.39,142.45L482.01,137.71L485.64,137.25L489.26,138.9L492.89,137.04L496.51,120.44L500.13,111.49L503.76,97.28L507.38,48.65L511.01,45.78L514.63,40.17L521.88,36.98L525.5,30.16L532.75,18.97L536.38,16" style="vector-effect: non-scaling-stroke; fill: none; stroke: rgb(68, 68, 68); stroke-opacity: 1; stroke-width: 0px; opacity: 1;"/></g><g class="points"/><g class="text"/></g><g class="trace scatter tracea3033f" style="stroke-miterlimit: 2;"><g class="fills"/><g class="errorbars"/><g class="lines"><path class="js-line" d="M3.62,303.19L32.62,303.71L36.24,303.91L68.86,303.61L72.48,303.59L134.09,303.2L137.72,302.44L148.59,302.02L152.21,302.27L184.83,301.76L188.46,301.71L242.82,301.7L246.44,299.25L293.56,299.41L297.18,295.81L308.05,295.65L311.68,293.82L315.3,293.92L318.93,297.75L351.54,297.57L355.17,292.29L395.03,292.81L398.66,281.74L409.53,281.31L413.15,280.33L424.03,280.39L427.65,279.83L434.9,278.76L438.52,278.74L445.77,278.85L449.4,262.31L453.02,262.12L456.64,260.06L467.52,259.95L471.14,256.33L474.77,242.75L478.39,241.89L482.01,242.26L485.64,241.2L489.26,244.52L492.89,243.83L500.13,242.85L503.76,242.49L507.38,241.64L511.01,235.15L514.63,235.43L518.26,237.16L532.75,237.72L536.38,198.15" style="vector-effect: non-scaling-stroke; fill: none; stroke: rgb(68, 68, 68); stroke-opacity: 1; stroke-width: 0px; opacity: 1;"/></g><g class="points"/><g class="text"/></g><g class="trace scatter trace12152a" style="stroke-miterlimit: 2; opacity: 1;"><g class="fills"/><g class="errorbars"/><g class="lines"><path class="js-line" d="M3.62,302.91L86.98,302.48L90.6,302.42L141.34,301.02L144.97,300.88L155.84,300.23L159.46,300.26L177.58,299.75L181.21,299.59L192.08,299.27L195.7,299.2L213.83,298.45L217.45,298.46L239.19,297.02L242.82,296.55L253.69,295.93L257.32,295.96L282.68,294.84L286.31,294.09L293.56,292.97L297.18,292.08L304.43,291.43L308.05,290.74L315.3,288.88L318.93,288.6L329.8,286.5L333.42,287.28L340.67,286.43L344.3,286.28L351.54,284.47L355.17,284.63L366.04,282.98L369.66,281.52L376.91,278.41L380.54,277.43L387.79,275.81L391.41,273.48L395.03,269.46L398.66,268.63L402.28,270.67L405.91,269.98L409.53,266.16L413.15,264.16L416.78,262.72L420.4,260.17L424.03,257.12L427.65,255.87L431.28,254.4L434.9,248.01L438.52,244.09L442.15,243.73L449.4,235.88L453.02,233.6L460.27,218.9L463.89,220.79L467.52,222.03L471.14,219.82L478.39,200.29L482.01,193.9L485.64,193.63L489.26,194.46L492.89,195.14L496.51,192.64L507.38,161.39L511.01,147.52L514.63,136.56L518.26,135.03L521.88,128.21L525.5,115.44L529.13,99.26L532.75,72.19L536.38,46.21" style="vector-effect: non-scaling-stroke; fill: none; stroke: rgb(31, 119, 180); stroke-opacity: 1; stroke-width: 2px; opacity: 1;"/></g><g class="points"/><g class="text"/></g><g class="trace scatter trace9411c6" style="stroke-miterlimit: 2;"><g class="fills"><g><path class="js-fill" d="M3.62,302.89L76.11,302.56L79.73,302.53L134.09,301.21L137.72,301.03L184.83,299.07L188.46,298.95L199.33,298.75L202.95,298.61L235.57,297.42L239.19,296.77L250.07,295.75L253.69,295.6L268.19,295.72L271.81,295.15L282.68,294.52L286.31,293.82L293.56,292.68L297.18,291.83L304.43,291.12L308.05,290.37L315.3,288.39L318.93,288.08L329.8,285.85L333.42,286.51L344.3,285.73L347.92,284.41L351.54,283.87L355.17,284.16L366.04,282.36L369.66,280.65L373.29,278.52L376.91,277.3L387.79,274.75L391.41,272.27L395.03,268.03L398.66,267.25L402.28,269.63L405.91,268.86L409.53,264.79L413.15,262.86L416.78,261.48L420.4,259L424.03,255.58L427.65,254.01L431.28,252.24L434.9,245.68L438.52,241.6L442.15,241.34L449.4,232.7L453.02,230.34L460.27,215.3L463.89,217.4L467.52,218.87L471.14,217.36L478.39,197.2L482.01,190.34L485.64,190.32L489.26,191.53L492.89,192.33L496.51,189L507.38,156.47L511.01,141.91L514.63,130.78L518.26,128.54L521.88,120.82L525.5,108.96L529.13,92.99L532.75,65.78L536.38,41.19L536.38,51.24L532.75,78.6L529.13,105.54L525.5,121.93L521.88,135.6L518.26,141.52L514.63,142.35L511.01,153.14L507.38,166.3L496.51,196.27L492.89,197.94L489.26,197.39L485.64,196.94L482.01,197.47L478.39,203.38L471.14,222.29L467.52,225.18L463.89,224.17L460.27,222.5L453.02,236.87L449.4,239.06L442.15,246.12L438.52,246.57L434.9,250.35L431.28,256.57L427.65,257.73L424.03,258.65L420.4,261.33L416.78,263.96L413.15,265.45L409.53,267.54L405.91,271.09L402.28,271.72L398.66,270L395.03,270.9L391.41,274.68L387.79,276.88L384.16,277.5L380.54,278.45L373.29,280.92L369.66,282.4L355.17,285.09L351.54,285.06L344.3,286.82L340.67,286.95L333.42,288.06L329.8,287.14L326.17,287.22L322.55,288.55L279.06,295.77L275.44,295.67L257.32,296.24L253.69,296.25L239.19,297.28L235.57,297.85L141.34,301.1L137.72,301.22L90.6,302.46L86.98,302.51L3.62,302.93Z" style="fill: rgb(68, 68, 68); fill-opacity: 0.7; stroke-width: 0;"/></g></g><g class="errorbars"/><g class="lines"><path class="js-line" d="M3.62,302.93L86.98,302.51L90.6,302.46L137.72,301.22L141.34,301.1L235.57,297.85L239.19,297.28L253.69,296.25L257.32,296.24L275.44,295.67L279.06,295.77L322.55,288.55L326.17,287.22L329.8,287.14L333.42,288.06L340.67,286.95L344.3,286.82L351.54,285.06L355.17,285.09L369.66,282.4L373.29,280.92L380.54,278.45L384.16,277.5L387.79,276.88L391.41,274.68L395.03,270.9L398.66,270L402.28,271.72L405.91,271.09L409.53,267.54L413.15,265.45L416.78,263.96L420.4,261.33L424.03,258.65L427.65,257.73L431.28,256.57L434.9,250.35L438.52,246.57L442.15,246.12L449.4,239.06L453.02,236.87L460.27,222.5L463.89,224.17L467.52,225.18L471.14,222.29L478.39,203.38L482.01,197.47L485.64,196.94L489.26,197.39L492.89,197.94L496.51,196.27L507.38,166.3L511.01,153.14L514.63,142.35L518.26,141.52L521.88,135.6L525.5,121.93L529.13,105.54L532.75,78.6L536.38,51.24" style="vector-effect: non-scaling-stroke; fill: none; stroke: rgb(68, 68, 68); stroke-opacity: 1; stroke-width: 0px; opacity: 1;"/></g><g class="points"/><g class="text"/></g><g class="trace scatter traceeefd8f" style="stroke-miterlimit: 2;"><g class="fills"/><g class="errorbars"/><g class="lines"><path class="js-line" d="M3.62,302.89L76.11,302.56L79.73,302.53L134.09,301.21L137.72,301.03L184.83,299.07L188.46,298.95L199.33,298.75L202.95,298.61L235.57,297.42L239.19,296.77L250.07,295.75L253.69,295.6L268.19,295.72L271.81,295.15L282.68,294.52L286.31,293.82L293.56,292.68L297.18,291.83L304.43,291.12L308.05,290.37L315.3,288.39L318.93,288.08L329.8,285.85L333.42,286.51L344.3,285.73L347.92,284.41L351.54,283.87L355.17,284.16L366.04,282.36L369.66,280.65L373.29,278.52L376.91,277.3L387.79,274.75L391.41,272.27L395.03,268.03L398.66,267.25L402.28,269.63L405.91,268.86L409.53,264.79L413.15,262.86L416.78,261.48L420.4,259L424.03,255.58L427.65,254.01L431.28,252.24L434.9,245.68L438.52,241.6L442.15,241.34L449.4,232.7L453.02,230.34L460.27,215.3L463.89,217.4L467.52,218.87L471.14,217.36L478.39,197.2L482.01,190.34L485.64,190.32L489.26,191.53L492.89,192.33L496.51,189L507.38,156.47L511.01,141.91L514.63,130.78L518.26,128.54L521.88,120.82L525.5,108.96L529.13,92.99L532.75,65.78L536.38,41.19" style="vector-effect: non-scaling-stroke; fill: none; stroke: rgb(68, 68, 68); stroke-opacity: 1; stroke-width: 0px; opacity: 1;"/></g><g class="points"/><g class="text"/></g></g></g><g class="overplot"/><path class="xlines-above crisp" d="M0,0" style="fill: none;"/><path class="ylines-above crisp" d="M0,0" style="fill: none;"/><g class="overlines-above"/><g class="xaxislayer-above"><g class="xtick"><text text-anchor="middle" x="0" y="433" transform="translate(80,0)" style="font-family: 'Open Sans', verdana, arial, sans-serif; font-size: 12px; fill: rgb(42, 63, 95); fill-opacity: 1; white-space: pre; opacity: 1;">0</text></g><g class="xtick"><text text-anchor="middle" x="0" y="433" style="font-family: 'Open Sans', verdana, arial, sans-serif; font-size: 12px; fill: rgb(42, 63, 95); fill-opacity: 1; white-space: pre; opacity: 1;" transform="translate(152.48000000000002,0)">0.5</text></g><g class="xtick"><text text-anchor="middle" x="0" y="433" style="font-family: 'Open Sans', verdana, arial, sans-serif; font-size: 12px; fill: rgb(42, 63, 95); fill-opacity: 1; white-space: pre; opacity: 1;" transform="translate(224.97,0)">1</text></g><g class="xtick"><text text-anchor="middle" x="0" y="433" style="font-family: 'Open Sans', verdana, arial, sans-serif; font-size: 12px; fill: rgb(42, 63, 95); fill-opacity: 1; white-space: pre; opacity: 1;" transform="translate(297.45,0)">1.5</text></g><g class="xtick"><text text-anchor="middle" x="0" y="433" style="font-family: 'Open Sans', verdana, arial, sans-serif; font-size: 12px; fill: rgb(42, 63, 95); fill-opacity: 1; white-space: pre; opacity: 1;" transform="translate(369.93,0)">2</text></g><g class="xtick"><text text-anchor="middle" x="0" y="433" style="font-family: 'Open Sans', verdana, arial, sans-serif; font-size: 12px; fill: rgb(42, 63, 95); fill-opacity: 1; white-space: pre; opacity: 1;" transform="translate(442.42,0)">2.5</text></g><g class="xtick"><text text-anchor="middle" x="0" y="433" style="font-family: 'Open Sans', verdana, arial, sans-serif; font-size: 12px; fill: rgb(42, 63, 95); fill-opacity: 1; white-space: pre; opacity: 1;" transform="translate(514.9,0)">3</text></g><g class="xtick"><text text-anchor="middle" x="0" y="433" style="font-family: 'Open Sans', verdana, arial, sans-serif; font-size: 12px; fill: rgb(42, 63, 95); fill-opacity: 1; white-space: pre; opacity: 1;" transform="translate(587.38,0)">3.5</text></g></g><g class="yaxislayer-above"><g class="ytick"><text text-anchor="end" x="79" y="4.199999999999999" transform="translate(0,414.85)" style="font-family: 'Open Sans', verdana, arial, sans-serif; font-size: 12px; fill: rgb(42, 63, 95); fill-opacity: 1; white-space: pre; opacity: 1;">0</text></g><g class="ytick"><text text-anchor="end" x="79" y="4.199999999999999" style="font-family: 'Open Sans', verdana, arial, sans-serif; font-size: 12px; fill: rgb(42, 63, 95); fill-opacity: 1; white-space: pre; opacity: 1;" transform="translate(0,356.74)">1e+13</text></g><g class="ytick"><text text-anchor="end" x="79" y="4.199999999999999" style="font-family: 'Open Sans', verdana, arial, sans-serif; font-size: 12px; fill: rgb(42, 63, 95); fill-opacity: 1; white-space: pre; opacity: 1;" transform="translate(0,298.64)">2e+13</text></g><g class="ytick"><text text-anchor="end" x="79" y="4.199999999999999" style="font-family: 'Open Sans', verdana, arial, sans-serif; font-size: 12px; fill: rgb(42, 63, 95); fill-opacity: 1; white-space: pre; opacity: 1;" transform="translate(0,240.53)">3e+13</text></g><g class="ytick"><text text-anchor="end" x="79" y="4.199999999999999" style="font-family: 'Open Sans', verdana, arial, sans-serif; font-size: 12px; fill: rgb(42, 63, 95); fill-opacity: 1; white-space: pre; opacity: 1;" transform="translate(0,182.42000000000002)">4e+13</text></g><g class="ytick"><text text-anchor="end" x="79" y="4.199999999999999" style="font-family: 'Open Sans', verdana, arial, sans-serif; font-size: 12px; fill: rgb(42, 63, 95); fill-opacity: 1; white-space: pre; opacity: 1;" transform="translate(0,124.31)">5e+13</text></g></g><g class="overaxes-above"/></g></g><g class="polarlayer"/><g class="smithlayer"/><g class="ternarylayer"/><g class="geolayer"/><g class="funnelarealayer"/><g class="pielayer"/><g class="iciclelayer"/><g class="treemaplayer"/><g class="sunburstlayer"/><g class="glimages"/><defs id="topdefs-0c654a"><g class="clips"/></defs><g class="layer-above"><g class="imagelayer"/><g class="shapelayer"/></g><g class="infolayer"><g class="g-gtitle"><text class="gtitle" x="35" y="50" text-anchor="start" dy="0em" style="font-family: 'Open Sans', verdana, arial, sans-serif; font-size: 17px; fill: rgb(42, 63, 95); opacity: 1; font-weight: normal; white-space: pre;">Volumetric current density</text></g><g class="g-xtitle"><text class="xtitle" x="350" y="460.8" text-anchor="middle" style="font-family: 'Open Sans', verdana, arial, sans-serif; font-size: 14px; fill: rgb(42, 63, 95); opacity: 1; font-weight: normal; white-space: pre;">Distance from anode (µm)</text></g><g class="g-ytitle"><text class="ytitle" transform="rotate(-90,14.340625000000003,260)" x="14.340625000000003" y="260" text-anchor="middle" style="font-family: 'Open Sans', verdana, arial, sans-serif; font-size: 14px; fill: rgb(42, 63, 95); opacity: 1; font-weight: normal; white-space: pre;">Volumetric current density (A/m3)</text></g></g></svg>