<svg class="main-svg" xmlns="http://www.w3.org/2000/svg" xmlns:xlink="http://www.w3.org/1999/xlink" width="700" height="500" style="" viewBox="0 0 700 500"><rect x="0" y="0" width="700" height="500" style="fill: rgb(255, 255, 255); fill-opacity: 1;"/><defs id="defs-647123"><g class="clips"><clipPath id="clip647123xyplot" class="plotclip"><rect width="530" height="320"/></clipPath><clipPath class="axesclip" id="clip647123x"><rect x="90" y="0" width="530" height="500"/></clipPath><clipPath class="axesclip" id="clip647123y"><rect x="0" y="100" width="700" height="320"/></clipPath><clipPath class="axesclip" id="clip647123xy"><rect x="90" y="100" width="530" height="320"/></clipPath></g><g class="gradients"/><g class="patterns"/></defs><g class="bglayer"><rect class="bg" x="90" y="100" width="530" height="320" style="fill: rgb(229, 236, 246); fill-opacity: 1; stroke-width: 0;"/></g><g class="layer-below"><g class="imagelayer"/><g class="shapelayer"/></g><g class="cartesianlayer"><g class="subplot xy"><g class="layer-subplot"><g class="shapelayer"/><g class="imagelayer"/></g><g class="minor-gridlayer"><g class="x"/><g class="y"/></g><g class="gridlayer"><g class="x"><path class="xgrid crisp" transform="translate(222.83,0)" d="M0,100v320" style="stroke: rgb(255, 255, 255); stroke-opacity: 1; stroke-width: 1px;"/><path class="xgrid crisp" transform="translate(355.66,0)" d="M0,100v320" style="stroke: rgb(255, 255, 255); stroke-opacity: 1; stroke-width: 1px;"/><path class="xgrid crisp" transform="translate(488.5,0)" d="M0,100v320" style="stroke: rgb(255, 255, 255); stroke-opacity: 1; stroke-width: 1px;"/></g><g class="y"><path class="ygrid crisp" transform="translate(0,384.9)" d="M90,0h530" style="stroke: rgb(255, 255, 255); stroke-opacity: 1; stroke-width: 1px;"/><path class="ygrid crisp" transform="translate(0,327.65)" d="M90,0h530" style="stroke: rgb(255, 255, 255); stroke-opacity: 1; stroke-width: 1px;"/><path class="ygrid crisp" transform="translate(0,270.4)" d="M90,0h530" style="stroke: rgb(255, 255, 255); stroke-opacity: 1; stroke-width: 1px;"/><path class="ygrid crisp" transform="translate(0,213.15)" d="M90,0h530" style="stroke: rgb(255, 255, 255); stroke-opacity: 1; stroke-width: 1px;"/><path class="ygrid crisp" transform="translate(0,155.9)" d="M90,0h530" style="stroke: rgb(255, 255, 255); stroke-opacity: 1; stroke-width: 1px;"/></g></g><g class="zerolinelayer"><path class="xzl zl crisp" transform="translate(90,0)" d="M0,100v320" style="stroke: rgb(255, 255, 255); stroke-opacity: 1; stroke-width: 2px;"/></g><path class="xlines-below"/><path class="ylines-below"/><g class="overlines-below"/><g class="xaxislayer-below"/><g class="yaxislayer-below"/><g class="overaxes-below"/><g class="plot" transform="translate(90,100)" clip-path="url(#clip647123xyplot)"><g class="scatterlayer mlayer"><g class="trace scatter tracebd0b69" style="stroke-miterlimit: 2;"><g class="fills"><g><path class="js-fill" d="M1.33,303.66L35.86,303.44L37.19,303.1L54.46,303.22L55.79,302.46L81.03,302.4L82.36,300.23L86.34,298.96L87.67,298.95L92.98,298.42L94.31,297.84L104.94,297.18L106.27,297.72L116.89,298.02L118.22,298.01L119.55,294.3L120.88,294.24L126.19,293.98L127.52,293.01L142.13,292.33L143.46,291.56L148.77,291.41L150.1,291.88L160.73,291.88L162.06,286.3L167.37,285.71L168.7,283.82L172.68,283.19L174.01,281.26L176.67,280.51L177.99,280.35L180.65,279.54L181.98,279.11L184.64,279.1L185.96,277.04L187.29,273.63L188.62,273.5L193.93,272.69L195.26,272.37L207.22,270.95L208.55,270.83L221.83,270.13L223.16,264.81L227.14,262.85L228.47,262.62L240.43,262.17L241.75,258.64L244.41,258.68L245.74,255.94L249.72,255.93L251.05,253.98L257.69,253.45L259.02,251.5L261.68,251.53L263.01,248.07L264.34,248.07L265.66,245.24L272.31,244.77L273.63,243.75L277.62,243.65L278.95,241.41L280.28,242.23L281.6,242.13L282.93,240.66L284.26,240.32L288.25,240.27L289.57,237.04L297.54,237.4L298.87,235.43L301.53,235.33L302.86,232.89L306.84,232.48L308.17,228.4L309.5,228.36L310.83,225.42L312.16,225.36L313.48,224.16L314.81,222.91L316.14,222.73L317.47,222.67L318.8,220.78L320.13,220.06L321.45,220.77L324.11,220.41L325.44,219.28L328.1,219.15L329.42,218.34L333.41,217.81L334.74,216.08L336.07,216.04L337.39,211.14L342.71,210.31L344.04,209.53L345.36,208.38L346.69,203.33L350.68,202.72L352.01,202.64L353.33,202.12L354.66,196.03L358.65,195.14L359.97,195.06L361.3,192.52L362.63,191.66L370.6,192.06L371.93,187.49L373.26,183.88L374.59,183.47L377.24,183.44L378.57,178.27L381.23,177.83L382.56,178.38L386.54,178.5L387.87,170.96L390.53,172.03L391.85,172.03L401.15,171.75L402.48,169.79L403.81,163.11L405.14,161.83L406.47,161.83L407.79,159.93L411.78,157.89L413.11,157.89L418.42,157.38L419.75,159.01L421.08,158.97L422.41,157.69L426.39,155.98L427.72,155.88L429.05,155.69L430.38,154.32L437.02,154.7L438.35,154.14L439.67,154.14L441,148.85L442.33,147.68L443.66,132.41L444.99,130.69L446.32,130.63L450.3,129.87L451.63,130.01L455.61,129.44L456.94,122.14L458.27,120.32L459.6,112.4L463.58,108.64L464.91,104.56L467.57,104.14L468.9,104.18L470.23,104.18L471.55,99.66L475.54,99.77L476.87,98.94L478.2,97.58L479.52,97.41L480.85,80.25L482.18,79.25L488.82,79.62L490.15,74.15L492.81,73L494.14,65.99L496.79,68.16L498.12,67.98L502.11,65.37L503.43,61.91L504.76,60.3L506.09,59.93L514.06,59.82L515.39,43.51L516.72,37.34L518.05,36.61L522.03,35.42L523.36,33.81L524.69,28.3L526.02,27.99L527.34,27.9L528.67,24.15L528.67,16L515.39,17.03L514.06,19.09L508.75,19.05L507.42,21.36L506.09,21.82L504.76,21.92L503.43,25.4L502.11,27.82L500.78,28.11L499.45,33.18L494.14,34.26L492.81,34.35L490.15,36.47L488.82,39.37L483.51,39.57L482.18,41.85L480.85,41.92L479.52,43.72L474.21,43.8L472.88,51.31L471.55,51.84L470.23,52.74L466.24,53.43L464.91,61.28L463.58,61.42L462.26,61.65L458.27,65.54L456.94,73.54L455.61,73.65L454.29,74.41L452.96,76.96L451.63,79.57L450.3,80.31L448.97,81.44L438.35,81.81L437.02,82.05L434.36,88.93L433.03,91.12L431.7,91.97L430.38,98.2L427.72,100.25L426.39,101.29L425.06,101.3L423.73,102.9L422.41,103.23L421.08,104.6L419.75,104.99L418.42,106.26L415.76,105.64L414.44,105.69L413.11,106.77L411.78,108.59L399.82,109.28L398.5,134.91L390.53,136.95L389.2,137.13L385.21,137.76L383.88,142.42L381.23,141.92L379.9,139.59L375.91,139.33L374.59,139.32L373.26,154.13L371.93,154.39L370.6,155.92L369.27,167.82L367.94,170.02L366.62,166.99L362.63,170.76L361.3,169.83L357.32,170.98L355.99,172.58L348.02,173.53L346.69,178.77L344.04,178.98L342.71,181.77L337.39,181.85L336.07,185.88L334.74,187L333.41,188.71L324.11,189.66L322.78,195.94L321.45,195.97L320.13,197.04L317.47,197.42L316.14,200.08L312.16,200.33L310.83,201.25L298.87,201.91L297.54,201.94L296.22,204.33L294.89,212.02L292.23,211.98L290.9,221.98L288.25,222.25L286.92,222.32L284.26,226.15L282.93,226.25L277.62,227.19L276.29,228.8L274.96,228.89L273.63,230.51L272.31,230.58L270.98,230.85L269.65,232.87L268.32,231.01L266.99,231.1L265.66,233.67L256.37,234.32L255.04,236.51L252.38,237.83L251.05,238.19L248.4,239.45L247.07,237.74L245.74,237.73L244.41,243.95L243.08,243.96L241.75,244.91L240.43,244.93L239.1,246.36L233.78,246.02L232.46,246.72L231.13,249.88L229.8,250.36L224.49,251.47L223.16,251.5L220.5,252.84L219.17,254.11L213.86,255.12L212.53,255.31L208.55,256.48L207.22,258.15L205.89,258.66L204.56,259.53L201.9,259.84L200.58,259.91L197.92,262.21L196.59,262.61L187.29,263.35L185.96,264.62L183.31,264.78L181.98,264.99L179.32,266.18L177.99,267.97L175.34,269.83L174.01,270.78L162.06,271.66L160.73,273.63L159.4,274.49L158.07,275.2L155.41,275.63L154.09,277.76L152.76,277.97L151.43,278.22L146.12,279.03L144.79,280.93L142.13,281.72L140.8,282.88L135.49,283.58L134.16,284.4L128.85,285.3L127.52,286.76L122.21,286.62L120.88,287.8L112.91,288.74L111.58,289.5L107.59,289.95L106.27,291.91L104.94,292.01L103.61,292.76L96.97,293.06L95.64,293.86L90.33,294.32L89,294.33L75.71,295.67L74.39,296.14L63.76,297.31L62.43,296.78L55.79,297.83L54.46,299.29L43.83,300.21L42.51,300.33L27.89,301.04L26.57,301.55L1.33,302.34Z" style="fill: rgb(68, 68, 68); fill-opacity: 0.3; stroke-width: 0;"/></g></g><g class="errorbars"/><g class="lines"><path class="js-line" d="M1.33,302.34L26.57,301.55L27.89,301.04L42.51,300.33L43.83,300.21L54.46,299.29L55.79,297.83L62.43,296.78L63.76,297.31L74.39,296.14L75.71,295.67L89,294.33L90.33,294.32L95.64,293.86L96.97,293.06L103.61,292.76L104.94,292.01L106.27,291.91L107.59,289.95L111.58,289.5L112.91,288.74L120.88,287.8L122.21,286.62L127.52,286.76L128.85,285.3L134.16,284.4L135.49,283.58L140.8,282.88L142.13,281.72L144.79,280.93L146.12,279.03L151.43,278.22L152.76,277.97L154.09,277.76L155.41,275.63L158.07,275.2L159.4,274.49L160.73,273.63L162.06,271.66L174.01,270.78L175.34,269.83L177.99,267.97L179.32,266.18L181.98,264.99L183.31,264.78L185.96,264.62L187.29,263.35L196.59,262.61L197.92,262.21L200.58,259.91L201.9,259.84L204.56,259.53L205.89,258.66L207.22,258.15L208.55,256.48L212.53,255.31L213.86,255.12L219.17,254.11L220.5,252.84L223.16,251.5L224.49,251.47L229.8,250.36L231.13,249.88L232.46,246.72L233.78,246.02L239.1,246.36L240.43,244.93L241.75,244.91L243.08,243.96L244.41,243.95L245.74,237.73L247.07,237.74L248.4,239.45L251.05,238.19L252.38,237.83L255.04,236.51L256.37,234.32L265.66,233.67L266.99,231.1L268.32,231.01L269.65,232.87L270.98,230.85L272.31,230.58L273.63,230.51L274.96,228.89L276.29,228.8L277.62,227.19L282.93,226.25L284.26,226.15L286.92,222.32L288.25,222.25L290.9,221.98L292.23,211.98L294.89,212.02L296.22,204.33L297.54,201.94L298.87,201.91L310.83,201.25L312.16,200.33L316.14,200.08L317.47,197.42L320.13,197.04L321.45,195.97L322.78,195.94L324.11,189.66L333.41,188.71L334.74,187L336.07,185.88L337.39,181.85L342.71,181.77L344.04,178.98L346.69,178.77L348.02,173.53L355.99,172.58L357.32,170.98L361.3,169.83L362.63,170.76L366.62,166.99L367.94,170.02L369.27,167.82L370.6,155.92L371.93,154.39L373.26,154.13L374.59,139.32L375.91,139.33L379.9,139.59L381.23,141.92L383.88,142.42L385.21,137.76L389.2,137.13L390.53,136.95L398.5,134.91L399.82,109.28L411.78,108.59L413.11,106.77L414.44,105.69L415.76,105.64L418.42,106.26L419.75,104.99L421.08,104.6L422.41,103.23L423.73,102.9L425.06,101.3L426.39,101.29L427.72,100.25L430.38,98.2L431.7,91.97L433.03,91.12L434.36,88.93L437.02,82.05L438.35,81.81L448.97,81.44L450.3,80.31L451.63,79.57L452.96,76.96L454.29,74.41L455.61,73.65L456.94,73.54L458.27,65.54L462.26,61.65L463.58,61.42L464.91,61.28L466.24,53.43L470.23,52.74L471.55,51.84L472.88,51.31L474.21,43.8L479.52,43.72L480.85,41.92L482.18,41.85L483.51,39.57L488.82,39.37L490.15,36.47L492.81,34.35L494.14,34.26L499.45,33.18L500.78,28.11L502.11,27.82L503.43,25.4L504.76,21.92L506.09,21.82L507.42,21.36L508.75,19.05L514.06,19.09L515.39,17.03L528.67,16" style="vector-effect: non-scaling-stroke; fill: none; stroke: rgb(68, 68, 68); stroke-opacity: 1; stroke-width: 0px; opacity: 1;"/></g><g class="points"/><g class="text"/></g><g class="trace scatter tracebbc09b" style="stroke-miterlimit: 2;"><g class="fills"/><g class="errorbars"/><g class="lines"><path class="js-line" d="M1.33,303.66L35.86,303.44L37.19,303.1L54.46,303.22L55.79,302.46L81.03,302.4L82.36,300.23L86.34,298.96L87.67,298.95L92.98,298.42L94.31,297.84L104.94,297.18L106.27,297.72L116.89,298.02L118.22,298.01L119.55,294.3L120.88,294.24L126.19,293.98L127.52,293.01L142.13,292.33L143.46,291.56L148.77,291.41L150.1,291.88L160.73,291.88L162.06,286.3L167.37,285.71L168.7,283.82L172.68,283.19L174.01,281.26L176.67,280.51L177.99,280.35L180.65,279.54L181.98,279.11L184.64,279.1L185.96,277.04L187.29,273.63L188.62,273.5L193.93,272.69L195.26,272.37L207.22,270.95L208.55,270.83L221.83,270.13L223.16,264.81L227.14,262.85L228.47,262.62L240.43,262.17L241.75,258.64L244.41,258.68L245.74,255.94L249.72,255.93L251.05,253.98L257.69,253.45L259.02,251.5L261.68,251.53L263.01,248.07L264.34,248.07L265.66,245.24L272.31,244.77L273.63,243.75L277.62,243.65L278.95,241.41L280.28,242.23L281.6,242.13L282.93,240.66L284.26,240.32L288.25,240.27L289.57,237.04L297.54,237.4L298.87,235.43L301.53,235.33L302.86,232.89L306.84,232.48L308.17,228.4L309.5,228.36L310.83,225.42L312.16,225.36L313.48,224.16L314.81,222.91L316.14,222.73L317.47,222.67L318.8,220.78L320.13,220.06L321.45,220.77L324.11,220.41L325.44,219.28L328.1,219.15L329.42,218.34L333.41,217.81L334.74,216.08L336.07,216.04L337.39,211.14L342.71,210.31L344.04,209.53L345.36,208.38L346.69,203.33L350.68,202.72L352.01,202.64L353.33,202.12L354.66,196.03L358.65,195.14L359.97,195.06L361.3,192.52L362.63,191.66L370.6,192.06L371.93,187.49L373.26,183.88L374.59,183.47L377.24,183.44L378.57,178.27L381.23,177.83L382.56,178.38L386.54,178.5L387.87,170.96L390.53,172.03L391.85,172.03L401.15,171.75L402.48,169.79L403.81,163.11L405.14,161.83L406.47,161.83L407.79,159.93L411.78,157.89L413.11,157.89L418.42,157.38L419.75,159.01L421.08,158.97L422.41,157.69L426.39,155.98L427.72,155.88L429.05,155.69L430.38,154.32L437.02,154.7L438.35,154.14L439.67,154.14L441,148.85L442.33,147.68L443.66,132.41L444.99,130.69L446.32,130.63L450.3,129.87L451.63,130.01L455.61,129.44L456.94,122.14L458.27,120.32L459.6,112.4L463.58,108.64L464.91,104.56L467.57,104.14L468.9,104.18L470.23,104.18L471.55,99.66L475.54,99.77L476.87,98.94L478.2,97.58L479.52,97.41L480.85,80.25L482.18,79.25L488.82,79.62L490.15,74.15L492.81,73L494.14,65.99L496.79,68.16L498.12,67.98L502.11,65.37L503.43,61.91L504.76,60.3L506.09,59.93L514.06,59.82L515.39,43.51L516.72,37.34L518.05,36.61L522.03,35.42L523.36,33.81L524.69,28.3L526.02,27.99L527.34,27.9L528.67,24.15" style="vector-effect: non-scaling-stroke; fill: none; stroke: rgb(68, 68, 68); stroke-opacity: 1; stroke-width: 0px; opacity: 1;"/></g><g class="points"/><g class="text"/></g><g class="trace scatter traceade06e" style="stroke-miterlimit: 2; opacity: 1;"><g class="fills"/><g class="errorbars"/><g class="lines"><path class="js-line" d="M1.33,303.11L22.58,302.76L23.91,302.71L49.15,301.42L50.48,301.25L83.68,297.29L85.01,296.9L118.22,291.61L119.55,291.15L136.82,287.58L138.15,287.32L144.79,285.99L146.12,285.47L152.76,283.4L154.09,282.53L156.74,281.09L158.07,280.95L162.06,279.36L163.38,278.73L166.04,277.69L167.37,276.7L174.01,275.22L175.34,274.75L185.96,270.35L187.29,269.39L199.25,266.13L200.58,265.57L207.22,263.65L208.55,262.95L219.17,259.62L220.5,258.61L224.49,257.3L225.81,256.81L229.8,255.63L231.13,255.07L240.43,252.18L241.75,251.22L245.74,249.62L247.07,249.54L248.4,249.37L249.72,248.24L256.37,244.21L257.69,242.98L263.01,240.79L264.34,240.37L268.32,239.57L269.65,239.35L280.28,234.72L281.6,234.31L285.59,231.83L286.92,231.67L289.57,230.01L290.9,230.64L292.23,230.79L293.56,229.99L296.22,227.83L297.54,226.32L302.86,220.19L304.19,220.04L305.51,220.3L306.84,219.1L310.83,216.65L312.16,215.42L317.47,211.94L318.8,211.35L320.13,211.08L321.45,209.37L324.11,208.56L325.44,207.01L329.42,203.85L330.75,202.28L332.08,200.41L333.41,200.11L337.39,196.32L338.72,196.46L344.04,193.77L345.36,192.01L349.35,188.98L350.68,188.57L365.29,179.64L366.62,179.62L370.6,177.27L371.93,175.22L374.59,171.17L375.91,170.66L378.57,166.14L379.9,165.68L381.23,165.18L382.56,163.85L387.87,158.97L389.2,156.72L390.53,156.42L391.85,157.24L395.84,155.64L397.17,154.04L399.82,151.61L401.15,148.84L403.81,142.89L405.14,141.48L407.79,141.07L409.12,140.14L410.45,141.79L411.78,141.82L414.44,139.1L415.76,135.78L421.08,132.77L422.41,132.41L425.06,129.59L426.39,128.1L427.72,127.89L429.05,126.29L430.38,124.73L431.7,121.52L437.02,115.54L438.35,112.59L439.67,110.61L441,110.14L446.32,104.26L447.64,102.46L450.3,100.98L451.63,99.23L454.29,94.72L455.61,91.72L456.94,90.62L458.27,91.58L460.93,87.44L462.26,84.7L463.58,83.21L464.91,83.01L466.24,81.36L467.57,81.31L468.9,81.51L470.23,78.85L471.55,75.52L472.88,74.51L474.21,73.63L475.54,71.75L476.87,70.33L478.2,67.22L483.51,58.62L484.84,58.31L486.17,57.81L487.49,56.31L492.81,48.82L494.14,48.57L498.12,46.67L499.45,45.87L503.43,42.91L504.76,41.06L507.42,38.91L508.75,36.03L511.4,32.28L512.73,31.9L518.05,24.17L519.37,23.18L520.7,23.24L522.03,22.31L524.69,19.49L526.02,18.97L528.67,17.78" style="vector-effect: non-scaling-stroke; fill: none; stroke: rgb(31, 119, 180); stroke-opacity: 1; stroke-width: 2px; opacity: 1;"/></g><g class="points"/><g class="text"/></g><g class="trace scatter tracef99ccf" style="stroke-miterlimit: 2;"><g class="fills"><g><path class="js-fill" d="M1.33,303.07L22.58,302.72L23.91,302.68L47.82,301.53L49.15,301.35L108.92,293.4L110.25,292.99L119.55,291.04L120.88,290.71L131.5,288.68L132.83,288.42L150.1,284.27L151.43,283.77L158.07,280.71L159.4,280.34L170.03,276.19L171.35,275.93L183.31,271.61L184.64,270.94L188.62,268.89L189.95,268.68L212.53,261.72L213.86,261.06L216.52,260.09L217.84,260.08L223.16,257.33L224.49,257.06L249.72,247.92L251.05,247.2L256.37,243.92L257.69,242.71L264.34,240.13L265.66,239.67L270.98,238.4L272.31,237.73L282.93,233.17L284.26,232.06L289.57,229.63L290.9,230.27L292.23,230.39L293.56,229.53L296.22,227.43L297.54,225.89L302.86,219.55L304.19,219.41L305.51,219.79L306.84,218.6L310.83,216.22L312.16,214.96L317.47,211.42L318.8,210.78L320.13,210.51L321.45,208.8L324.11,208.04L325.44,206.48L329.42,203.25L330.75,201.67L332.08,199.83L333.41,199.59L337.39,195.88L338.72,195.96L344.04,193.32L345.36,191.57L349.35,188.54L350.68,188.14L365.29,179.25L366.62,179.25L370.6,176.86L371.93,174.68L374.59,170.59L375.91,170.05L378.57,165.48L379.9,165.05L381.23,164.57L382.56,163.21L387.87,158.25L389.2,155.93L390.53,155.6L391.85,156.46L395.84,154.92L397.17,153.26L399.82,150.84L401.15,148.05L405.14,140.74L406.47,140.58L409.12,139.2L410.45,140.87L411.78,140.96L413.11,139.9L414.44,138.22L415.76,134.99L425.06,128.64L426.39,127.12L427.72,126.85L429.05,125.19L430.38,123.64L431.7,120.34L437.02,114.43L438.35,111.59L439.67,109.62L441,109.03L448.97,100.88L450.3,99.97L454.29,93.69L455.61,90.77L456.94,89.78L458.27,90.62L460.93,86.57L462.26,83.8L463.58,82.27L464.91,82.15L466.24,80.48L467.57,80.34L468.9,80.59L470.23,77.95L471.55,74.67L472.88,73.67L475.54,70.69L476.87,69.21L482.18,58.73L483.51,57.84L486.17,57.03L487.49,55.55L492.81,48.04L494.14,47.87L498.12,45.9L499.45,45.06L503.43,42.14L504.76,40.32L507.42,38.25L508.75,35.39L511.4,31.74L512.73,31.32L518.05,23.77L519.37,22.74L520.7,22.75L522.03,21.85L524.69,19.23L526.02,18.71L528.67,17.55L528.67,18.02L526.02,19.23L524.69,19.76L522.03,22.77L520.7,23.74L519.37,23.61L518.05,24.57L512.73,32.48L511.4,32.81L508.75,36.67L507.42,39.58L504.76,41.81L503.43,43.68L499.45,46.67L498.12,47.44L494.14,49.26L492.81,49.6L487.49,57.06L486.17,58.6L484.84,59.08L483.51,59.4L478.2,68.28L476.87,71.46L475.54,72.81L474.21,74.6L472.88,75.34L471.55,76.37L470.23,79.76L468.9,82.44L467.57,82.27L466.24,82.25L464.91,83.87L463.58,84.15L460.93,88.31L459.6,91.02L458.27,92.54L456.94,91.46L452.96,98.51L451.63,100.27L443.66,107.56L442.33,109.95L441,111.25L439.67,111.61L438.35,113.59L437.02,116.64L431.7,122.71L430.38,125.82L427.72,128.93L426.39,129.07L422.41,133.61L421.08,133.8L415.76,136.57L414.44,139.99L411.78,142.68L410.45,142.72L409.12,141.08L407.79,142.04L405.14,142.22L403.81,143.55L401.15,149.63L399.82,152.38L397.17,154.82L395.84,156.37L393.18,157.36L391.85,158.01L390.53,157.25L389.2,157.5L386.54,161.58L385.21,162.89L383.88,163.34L382.56,164.49L379.9,166.32L378.57,166.8L377.24,168.85L375.91,171.27L373.26,172.93L371.93,175.75L369.27,178.72L367.94,179.34L365.29,180.03L363.96,180.15L361.3,182.38L359.97,182.97L357.32,185.15L355.99,185.91L350.68,189L349.35,189.43L345.36,192.45L344.04,194.23L338.72,196.97L337.39,196.77L333.41,200.63L332.08,200.98L330.75,202.89L329.42,204.46L325.44,207.54L324.11,209.08L321.45,209.93L320.13,211.64L318.8,211.92L317.47,212.46L312.16,215.89L310.83,217.07L306.84,219.61L305.51,220.82L304.19,220.66L302.86,220.84L296.22,228.23L294.89,229.77L293.56,230.46L292.23,231.18L290.9,231.01L289.57,230.4L281.6,234.64L280.28,235.04L269.65,239.6L268.32,239.83L264.34,240.6L263.01,241.05L257.69,243.25L256.37,244.5L249.72,248.56L248.4,249.68L245.74,249.92L244.41,250.3L240.43,252.48L239.1,252.9L224.49,257.53L223.16,257.86L217.84,260.62L216.52,260.64L213.86,261.55L212.53,262.22L189.95,269.07L188.62,269.29L181.98,272.97L180.65,273.26L176.67,274.41L175.34,274.95L167.37,276.91L166.04,277.94L155.41,281.76L154.09,282.82L144.79,286.19L143.46,286.72L139.47,287.29L138.15,287.48L119.55,291.26L118.22,291.72L110.25,293.22L108.92,293.59L98.3,295.29L96.97,295.52L51.8,301.18L50.48,301.33L42.51,301.93L41.18,301.93L27.89,302.6L26.57,302.68L1.33,303.15Z" style="fill: rgb(68, 68, 68); fill-opacity: 0.7; stroke-width: 0;"/></g></g><g class="errorbars"/><g class="lines"><path class="js-line" d="M1.33,303.15L26.57,302.68L27.89,302.6L41.18,301.93L42.51,301.93L50.48,301.33L51.8,301.18L96.97,295.52L98.3,295.29L108.92,293.59L110.25,293.22L118.22,291.72L119.55,291.26L138.15,287.48L139.47,287.29L143.46,286.72L144.79,286.19L154.09,282.82L155.41,281.76L166.04,277.94L167.37,276.91L175.34,274.95L176.67,274.41L180.65,273.26L181.98,272.97L188.62,269.29L189.95,269.07L212.53,262.22L213.86,261.55L216.52,260.64L217.84,260.62L223.16,257.86L224.49,257.53L239.1,252.9L240.43,252.48L244.41,250.3L245.74,249.92L248.4,249.68L249.72,248.56L256.37,244.5L257.69,243.25L263.01,241.05L264.34,240.6L268.32,239.83L269.65,239.6L280.28,235.04L281.6,234.64L289.57,230.4L290.9,231.01L292.23,231.18L293.56,230.46L294.89,229.77L296.22,228.23L302.86,220.84L304.19,220.66L305.51,220.82L306.84,219.61L310.83,217.07L312.16,215.89L317.47,212.46L318.8,211.92L320.13,211.64L321.45,209.93L324.11,209.08L325.44,207.54L329.42,204.46L330.75,202.89L332.08,200.98L333.41,200.63L337.39,196.77L338.72,196.97L344.04,194.23L345.36,192.45L349.35,189.43L350.68,189L355.99,185.91L357.32,185.15L359.97,182.97L361.3,182.38L363.96,180.15L365.29,180.03L367.94,179.34L369.27,178.72L371.93,175.75L373.26,172.93L375.91,171.27L377.24,168.85L378.57,166.8L379.9,166.32L382.56,164.49L383.88,163.34L385.21,162.89L386.54,161.58L389.2,157.5L390.53,157.25L391.85,158.01L393.18,157.36L395.84,156.37L397.17,154.82L399.82,152.38L401.15,149.63L403.81,143.55L405.14,142.22L407.79,142.04L409.12,141.08L410.45,142.72L411.78,142.68L414.44,139.99L415.76,136.57L421.08,133.8L422.41,133.61L426.39,129.07L427.72,128.93L430.38,125.82L431.7,122.71L437.02,116.64L438.35,113.59L439.67,111.61L441,111.25L442.33,109.95L443.66,107.56L451.63,100.27L452.96,98.51L456.94,91.46L458.27,92.54L459.6,91.02L460.93,88.31L463.58,84.15L464.91,83.87L466.24,82.25L467.57,82.27L468.9,82.44L470.23,79.76L471.55,76.37L472.88,75.34L474.21,74.6L475.54,72.81L476.87,71.46L478.2,68.28L483.51,59.4L484.84,59.08L486.17,58.6L487.49,57.06L492.81,49.6L494.14,49.26L498.12,47.44L499.45,46.67L503.43,43.68L504.76,41.81L507.42,39.58L508.75,36.67L511.4,32.81L512.73,32.48L518.05,24.57L519.37,23.61L520.7,23.74L522.03,22.77L524.69,19.76L526.02,19.23L528.67,18.02" style="vector-effect: non-scaling-stroke; fill: none; stroke: rgb(68, 68, 68); stroke-opacity: 1; stroke-width: 0px; opacity: 1;"/></g><g class="points"/><g class="text"/></g><g class="trace scatter tracefcd3e8" style="stroke-miterlimit: 2;"><g class="fills"/><g class="errorbars"/><g class="lines"><path class="js-line" d="M1.33,303.07L22.58,302.72L23.91,302.68L47.82,301.53L49.15,301.35L108.92,293.4L110.25,292.99L119.55,291.04L120.88,290.71L131.5,288.68L132.83,288.42L150.1,284.27L151.43,283.77L158.07,280.71L159.4,280.34L170.03,276.19L171.35,275.93L183.31,271.61L184.64,270.94L188.62,268.89L189.95,268.68L212.53,261.72L213.86,261.06L216.52,260.09L217.84,260.08L223.16,257.33L224.49,257.06L249.72,247.92L251.05,247.2L256.37,243.92L257.69,242.71L264.34,240.13L265.66,239.67L270.98,238.4L272.31,237.73L282.93,233.17L284.26,232.06L289.57,229.63L290.9,230.27L292.23,230.39L293.56,229.53L296.22,227.43L297.54,225.89L302.86,219.55L304.19,219.41L305.51,219.79L306.84,218.6L310.83,216.22L312.16,214.96L317.47,211.42L318.8,210.78L320.13,210.51L321.45,208.8L324.11,208.04L325.44,206.48L329.42,203.25L330.75,201.67L332.08,199.83L333.41,199.59L337.39,195.88L338.72,195.96L344.04,193.32L345.36,191.57L349.35,188.54L350.68,188.14L365.29,179.25L366.62,179.25L370.6,176.86L371.93,174.68L374.59,170.59L375.91,170.05L378.57,165.48L379.9,165.05L381.23,164.57L382.56,163.21L387.87,158.25L389.2,155.93L390.53,155.6L391.85,156.46L395.84,154.92L397.17,153.26L399.82,150.84L401.15,148.05L405.14,140.74L406.47,140.58L409.12,139.2L410.45,140.87L411.78,140.96L413.11,139.9L414.44,138.22L415.76,134.99L425.06,128.64L426.39,127.12L427.72,126.85L429.05,125.19L430.38,123.64L431.7,120.34L437.02,114.43L438.35,111.59L439.67,109.62L441,109.03L448.97,100.88L450.3,99.97L454.29,93.69L455.61,90.77L456.94,89.78L458.27,90.62L460.93,86.57L462.26,83.8L463.58,82.27L464.91,82.15L466.24,80.48L467.57,80.34L468.9,80.59L470.23,77.95L471.55,74.67L472.88,73.67L475.54,70.69L476.87,69.21L482.18,58.73L483.51,57.84L486.17,57.03L487.49,55.55L492.81,48.04L494.14,47.87L498.12,45.9L499.45,45.06L503.43,42.14L504.76,40.32L507.42,38.25L508.75,35.39L511.4,31.74L512.73,31.32L518.05,23.77L519.37,22.74L520.7,22.75L522.03,21.85L524.69,19.23L526.02,18.71L528.67,17.55" style="vector-effect: non-scaling-stroke; fill: none; stroke: rgb(68, 68, 68); stroke-opacity: 1; stroke-width: 0px; opacity: 1;"/></g><g class="points"/><g class="text"/></g></g></g><g class="overplot"/><path class="xlines-above crisp" d="M0,0" style="fill: none;"/><path class="ylines-above crisp" d="M0,0" style="fill: none;"/><g class="overlines-above"/><g class="xaxislayer-above"><g class="xtick"><text text-anchor="middle" x="0" y="433" transform="translate(90,0)" style="font-family: 'Open Sans', verdana, arial, sans-serif; font-size: 12px; fill: rgb(42, 63, 95); fill-opacity: 1; white-space: pre; opacity: 1;">0</text></g><g class="xtick"><text text-anchor="middle" x="0" y="433" style="font-family: 'Open Sans', verdana, arial, sans-serif; font-size: 12px; fill: rgb(42, 63, 95); fill-opacity: 1; white-space: pre; opacity: 1;" transform="translate(222.83,0)">5</text></g><g class="xtick"><text text-anchor="middle" x="0" y="433" style="font-family: 'Open Sans', verdana, arial, sans-serif; font-size: 12px; fill: rgb(42, 63, 95); fill-opacity: 1; white-space: pre; opacity: 1;" transform="translate(355.66,0)">10</text></g><g class="xtick"><text text-anchor="middle" x="0" y="433" style="font-family: 'Open Sans', verdana, arial, sans-serif; font-size: 12px; fill: rgb(42, 63, 95); fill-opacity: 1; white-space: pre; opacity: 1;" transform="translate(488.5,0)">15</text></g></g><g class="yaxislayer-above"><g class="ytick"><text text-anchor="end" x="89" y="4.199999999999999" transform="translate(0,384.9)" style="font-family: 'Open Sans', verdana, arial, sans-serif; font-size: 12px; fill: rgb(42, 63, 95); fill-opacity: 1; white-space: pre; opacity: 1;">8e+8</text></g><g class="ytick"><text text-anchor="end" x="89" y="4.199999999999999" style="font-family: 'Open Sans', verdana, arial, sans-serif; font-size: 12px; fill: rgb(42, 63, 95); fill-opacity: 1; white-space: pre; opacity: 1;" transform="translate(0,327.65)">8.05e+8</text></g><g class="ytick"><text text-anchor="end" x="89" y="4.199999999999999" style="font-family: 'Open Sans', verdana, arial, sans-serif; font-size: 12px; fill: rgb(42, 63, 95); fill-opacity: 1; white-space: pre; opacity: 1;" transform="translate(0,270.4)">8.1e+8</text></g><g class="ytick"><text text-anchor="end" x="89" y="4.199999999999999" style="font-family: 'Open Sans', verdana, arial, sans-serif; font-size: 12px; fill: rgb(42, 63, 95); fill-opacity: 1; white-space: pre; opacity: 1;" transform="translate(0,213.15)">8.15e+8</text></g><g class="ytick"><text text-anchor="end" x="89" y="4.199999999999999" style="font-family: 'Open Sans', verdana, arial, sans-serif; font-size: 12px; fill: rgb(42, 63, 95); fill-opacity: 1; white-space: pre; opacity: 1;" transform="translate(0,155.9)">8.2e+8</text></g></g><g class="overaxes-above"/></g></g><g class="polarlayer"/><g class="smithlayer"/><g class="ternarylayer"/><g class="geolayer"/><g class="funnelarealayer"/><g class="pielayer"/><g class="iciclelayer"/><g class="treemaplayer"/><g class="sunburstlayer"/><g class="glimages"/><defs id="topdefs-647123"><g class="clips"/></defs><g class="layer-above"><g class="imagelayer"/><g class="shapelayer"/></g><g class="infolayer"><g class="g-gtitle"><text class="gtitle" x="35" y="50" text-anchor="start" dy="0em" style="font-family: 'Open Sans', verdana, arial, sans-serif; font-size: 17px; fill: rgb(42, 63, 95); opacity: 1; font-weight: normal; white-space: pre;">Volumetric current density</text></g><g class="g-xtitle"><text class="xtitle" x="355" y="460.8" text-anchor="middle" style="font-family: 'Open Sans', verdana, arial, sans-serif; font-size: 14px; fill: rgb(42, 63, 95); opacity: 1; font-weight: normal; white-space: pre;">Distance from anode (µm)</text></g><g class="g-ytitle" transform="translate(1.6591796875,0)"><text class="ytitle" transform="rotate(-90,12.340625000000003,260)" x="12.340625000000003" y="260" text-anchor="middle" style="font-family: 'Open Sans', verdana, arial, sans-serif; font-size: 14px; fill: rgb(42, 63, 95); opacity: 1; font-weight: normal; white-space: pre;">Volumetric current density (A/m3)</text></g></g></svg>