<svg class="main-svg" xmlns="http://www.w3.org/2000/svg" xmlns:xlink="http://www.w3.org/1999/xlink" width="700" height="500" style="" viewBox="0 0 700 500"><rect x="0" y="0" width="700" height="500" style="fill: rgb(255, 255, 255); fill-opacity: 1;"/><defs id="defs-7ff3e6"><g class="clips"><clipPath id="clip7ff3e6xyplot" class="plotclip"><rect width="523" height="320"/></clipPath><clipPath class="axesclip" id="clip7ff3e6x"><rect x="97" y="0" width="523" height="500"/></clipPath><clipPath class="axesclip" id="clip7ff3e6y"><rect x="0" y="100" width="700" height="320"/></clipPath><clipPath class="axesclip" id="clip7ff3e6xy"><rect x="97" y="100" width="523" height="320"/></clipPath></g><g class="gradients"/><g class="patterns"/></defs><g class="bglayer"><rect class="bg" x="97" y="100" width="523" height="320" style="fill: rgb(229, 236, 246); fill-opacity: 1; stroke-width: 0;"/></g><g class="layer-below"><g class="imagelayer"/><g class="shapelayer"/></g><g class="cartesianlayer"><g class="subplot xy"><g class="layer-subplot"><g class="shapelayer"/><g class="imagelayer"/></g><g class="minor-gridlayer"><g class="x"/><g class="y"/></g><g class="gridlayer"><g class="x"><path class="xgrid crisp" transform="translate(231.1,0)" d="M0,100v320" style="stroke: rgb(255, 255, 255); stroke-opacity: 1; stroke-width: 1px;"/><path class="xgrid crisp" transform="translate(365.21,0)" d="M0,100v320" style="stroke: rgb(255, 255, 255); stroke-opacity: 1; stroke-width: 1px;"/><path class="xgrid crisp" transform="translate(499.31,0)" d="M0,100v320" style="stroke: rgb(255, 255, 255); stroke-opacity: 1; stroke-width: 1px;"/></g><g class="y"><path class="ygrid crisp" transform="translate(0,394.9)" d="M97,0h523" style="stroke: rgb(255, 255, 255); stroke-opacity: 1; stroke-width: 1px;"/><path class="ygrid crisp" transform="translate(0,350.3)" d="M97,0h523" style="stroke: rgb(255, 255, 255); stroke-opacity: 1; stroke-width: 1px;"/><path class="ygrid crisp" transform="translate(0,305.69)" d="M97,0h523" style="stroke: rgb(255, 255, 255); stroke-opacity: 1; stroke-width: 1px;"/><path class="ygrid crisp" transform="translate(0,261.08000000000004)" d="M97,0h523" style="stroke: rgb(255, 255, 255); stroke-opacity: 1; stroke-width: 1px;"/><path class="ygrid crisp" transform="translate(0,216.47)" d="M97,0h523" style="stroke: rgb(255, 255, 255); stroke-opacity: 1; stroke-width: 1px;"/><path class="ygrid crisp" transform="translate(0,171.87)" d="M97,0h523" style="stroke: rgb(255, 255, 255); stroke-opacity: 1; stroke-width: 1px;"/><path class="ygrid crisp" transform="translate(0,127.26)" d="M97,0h523" style="stroke: rgb(255, 255, 255); stroke-opacity: 1; stroke-width: 1px;"/></g></g><g class="zerolinelayer"><path class="xzl zl crisp" transform="translate(97,0)" d="M0,100v320" style="stroke: rgb(255, 255, 255); stroke-opacity: 1; stroke-width: 2px;"/></g><path class="xlines-below"/><path class="ylines-below"/><g class="overlines-below"/><g class="xaxislayer-below"/><g class="yaxislayer-below"/><g class="overaxes-below"/><g class="plot" transform="translate(97,100)" clip-path="url(#clip7ff3e6xyplot)"><g class="scatterlayer mlayer"><g class="trace scatter trace2e70b0" style="stroke-miterlimit: 2;"><g class="fills"><g><path class="js-fill" d="M13.41,214.89L26.82,218.65L40.23,221.08L53.64,222.15L67.05,222.17L80.46,222.19L93.87,221.04L107.28,223.85L120.69,228.9L147.51,241.44L160.92,300.07L174.33,300.24L187.74,299.38L201.15,295.89L214.56,167.15L227.97,168.26L241.38,298.49L268.21,300.41L281.62,301.62L295.03,299.96L308.44,302.65L321.85,304L335.26,304L348.67,170.2L362.08,170.36L375.49,166.47L388.9,155.68L402.31,138.8L415.72,173.18L429.13,173.18L442.54,170.42L455.95,168.31L469.36,168.11L496.18,170.11L509.59,169.7L509.59,16L496.18,16.58L482.77,19.53L469.36,25.2L455.95,38.42L442.54,38.94L429.13,41.46L415.72,45.14L388.9,48.81L375.49,53.76L362.08,57.17L348.67,62.85L335.26,65.75L321.85,86.52L308.44,92.49L295.03,113.14L281.62,116.98L268.21,121L254.79,123.68L241.38,124.41L227.97,127.34L214.56,128.85L201.15,123.31L187.74,124.54L160.92,132.28L147.51,127.67L120.69,135.12L107.28,138.41L67.05,145.82L53.64,153.67L40.23,155.8L26.82,154.12L13.41,153.87Z" style="fill: rgb(68, 68, 68); fill-opacity: 0.3; stroke-width: 0;"/></g></g><g class="errorbars"/><g class="lines"><path class="js-line" d="M13.41,153.87L26.82,154.12L40.23,155.8L53.64,153.67L67.05,145.82L107.28,138.41L120.69,135.12L147.51,127.67L160.92,132.28L187.74,124.54L201.15,123.31L214.56,128.85L227.97,127.34L241.38,124.41L254.79,123.68L268.21,121L281.62,116.98L295.03,113.14L308.44,92.49L321.85,86.52L335.26,65.75L348.67,62.85L362.08,57.17L375.49,53.76L388.9,48.81L415.72,45.14L429.13,41.46L442.54,38.94L455.95,38.42L469.36,25.2L482.77,19.53L496.18,16.58L509.59,16" style="vector-effect: non-scaling-stroke; fill: none; stroke: rgb(68, 68, 68); stroke-opacity: 1; stroke-width: 0px; opacity: 1;"/></g><g class="points"/><g class="text"/></g><g class="trace scatter trace5f29a4" style="stroke-miterlimit: 2;"><g class="fills"/><g class="errorbars"/><g class="lines"><path class="js-line" d="M13.41,214.89L26.82,218.65L40.23,221.08L53.64,222.15L67.05,222.17L80.46,222.19L93.87,221.04L107.28,223.85L120.69,228.9L147.51,241.44L160.92,300.07L174.33,300.24L187.74,299.38L201.15,295.89L214.56,167.15L227.97,168.26L241.38,298.49L268.21,300.41L281.62,301.62L295.03,299.96L308.44,302.65L321.85,304L335.26,304L348.67,170.2L362.08,170.36L375.49,166.47L388.9,155.68L402.31,138.8L415.72,173.18L429.13,173.18L442.54,170.42L455.95,168.31L469.36,168.11L496.18,170.11L509.59,169.7" style="vector-effect: non-scaling-stroke; fill: none; stroke: rgb(68, 68, 68); stroke-opacity: 1; stroke-width: 0px; opacity: 1;"/></g><g class="points"/><g class="text"/></g><g class="trace scatter trace682141" style="stroke-miterlimit: 2; opacity: 1;"><g class="fills"/><g class="errorbars"/><g class="lines"><path class="js-line" d="M13.41,190.8L26.82,185.28L40.23,182.83L67.05,176.06L80.46,176.98L93.87,176.33L107.28,181.49L120.69,189.49L134.1,183.34L147.51,179.43L160.92,185.42L174.33,186.46L187.74,176.4L201.15,156.33L214.56,140.66L227.97,141.29L241.38,154.13L254.79,173.2L268.21,167.27L281.62,157.1L295.03,157.18L308.44,163.6L321.85,161.73L335.26,137.81L348.67,118.78L362.08,109.55L375.49,93.98L388.9,86.85L402.31,93.17L429.13,98.38L442.54,89.86L455.95,88.65L469.36,75.9L482.77,65.9L496.18,54.23L509.59,43.83" style="vector-effect: non-scaling-stroke; fill: none; stroke: rgb(31, 119, 180); stroke-opacity: 1; stroke-width: 2px; opacity: 1;"/></g><g class="points"/><g class="text"/></g><g class="trace scatter trace643334" style="stroke-miterlimit: 2;"><g class="fills"><g><path class="js-fill" d="M13.41,184.64L26.82,179.94L40.23,177.54L67.05,169.6L80.46,169.84L93.87,169.15L107.28,174.6L120.69,181.39L134.1,175.75L147.51,173.08L160.92,177.41L174.33,176.09L187.74,164.98L201.15,146.63L214.56,137.05L227.97,136.36L241.38,139.43L254.79,155.82L268.21,152.65L281.62,141.92L295.03,142.66L308.44,150.1L321.85,148.31L335.26,126.97L348.67,110.27L362.08,102.06L375.49,86.94L388.9,80.15L402.31,85.6L415.72,84.87L429.13,89L442.54,82.09L455.95,79.07L469.36,67.52L482.77,58.84L496.18,46.73L509.59,36.01L509.59,51.65L496.18,61.74L482.77,72.95L469.36,84.28L455.95,98.24L442.54,97.63L429.13,107.75L415.72,106.93L402.31,100.74L388.9,93.55L375.49,101.03L362.08,117.05L348.67,127.3L335.26,148.64L321.85,175.16L308.44,177.09L295.03,171.7L281.62,172.29L268.21,181.89L254.79,190.58L227.97,146.22L214.56,144.27L187.74,187.82L174.33,196.83L160.92,193.43L147.51,185.77L134.1,190.94L120.69,197.6L107.28,188.38L93.87,183.5L80.46,184.12L67.05,182.51L40.23,188.13L26.82,190.63L13.41,196.95Z" style="fill: rgb(68, 68, 68); fill-opacity: 0.7; stroke-width: 0;"/></g></g><g class="errorbars"/><g class="lines"><path class="js-line" d="M13.41,196.95L26.82,190.63L40.23,188.13L67.05,182.51L80.46,184.12L93.87,183.5L107.28,188.38L120.69,197.6L134.1,190.94L147.51,185.77L160.92,193.43L174.33,196.83L187.74,187.82L214.56,144.27L227.97,146.22L254.79,190.58L268.21,181.89L281.62,172.29L295.03,171.7L308.44,177.09L321.85,175.16L335.26,148.64L348.67,127.3L362.08,117.05L375.49,101.03L388.9,93.55L402.31,100.74L415.72,106.93L429.13,107.75L442.54,97.63L455.95,98.24L469.36,84.28L482.77,72.95L496.18,61.74L509.59,51.65" style="vector-effect: non-scaling-stroke; fill: none; stroke: rgb(68, 68, 68); stroke-opacity: 1; stroke-width: 0px; opacity: 1;"/></g><g class="points"/><g class="text"/></g><g class="trace scatter trace5fb661" style="stroke-miterlimit: 2;"><g class="fills"/><g class="errorbars"/><g class="lines"><path class="js-line" d="M13.41,184.64L26.82,179.94L40.23,177.54L67.05,169.6L80.46,169.84L93.87,169.15L107.28,174.6L120.69,181.39L134.1,175.75L147.51,173.08L160.92,177.41L174.33,176.09L187.74,164.98L201.15,146.63L214.56,137.05L227.97,136.36L241.38,139.43L254.79,155.82L268.21,152.65L281.62,141.92L295.03,142.66L308.44,150.1L321.85,148.31L335.26,126.97L348.67,110.27L362.08,102.06L375.49,86.94L388.9,80.15L402.31,85.6L415.72,84.87L429.13,89L442.54,82.09L455.95,79.07L469.36,67.52L482.77,58.84L496.18,46.73L509.59,36.01" style="vector-effect: non-scaling-stroke; fill: none; stroke: rgb(68, 68, 68); stroke-opacity: 1; stroke-width: 0px; opacity: 1;"/></g><g class="points"/><g class="text"/></g></g></g><g class="overplot"/><path class="xlines-above crisp" d="M0,0" style="fill: none;"/><path class="ylines-above crisp" d="M0,0" style="fill: none;"/><g class="overlines-above"/><g class="xaxislayer-above"><g class="xtick"><text text-anchor="middle" x="0" y="433" transform="translate(97,0)" style="font-family: 'Open Sans', verdana, arial, sans-serif; font-size: 12px; fill: rgb(42, 63, 95); fill-opacity: 1; white-space: pre; opacity: 1;">0</text></g><g class="xtick"><text text-anchor="middle" x="0" y="433" style="font-family: 'Open Sans', verdana, arial, sans-serif; font-size: 12px; fill: rgb(42, 63, 95); fill-opacity: 1; white-space: pre; opacity: 1;" transform="translate(231.1,0)">0.5</text></g><g class="xtick"><text text-anchor="middle" x="0" y="433" style="font-family: 'Open Sans', verdana, arial, sans-serif; font-size: 12px; fill: rgb(42, 63, 95); fill-opacity: 1; white-space: pre; opacity: 1;" transform="translate(365.21,0)">1</text></g><g class="xtick"><text text-anchor="middle" x="0" y="433" style="font-family: 'Open Sans', verdana, arial, sans-serif; font-size: 12px; fill: rgb(42, 63, 95); fill-opacity: 1; white-space: pre; opacity: 1;" transform="translate(499.31,0)">1.5</text></g></g><g class="yaxislayer-above"><g class="ytick"><text text-anchor="end" x="96" y="4.199999999999999" transform="translate(0,394.9)" style="font-family: 'Open Sans', verdana, arial, sans-serif; font-size: 12px; fill: rgb(42, 63, 95); fill-opacity: 1; white-space: pre; opacity: 1;">6.08e+10</text></g><g class="ytick"><text text-anchor="end" x="96" y="4.199999999999999" style="font-family: 'Open Sans', verdana, arial, sans-serif; font-size: 12px; fill: rgb(42, 63, 95); fill-opacity: 1; white-space: pre; opacity: 1;" transform="translate(0,350.3)">6.1e+10</text></g><g class="ytick"><text text-anchor="end" x="96" y="4.199999999999999" style="font-family: 'Open Sans', verdana, arial, sans-serif; font-size: 12px; fill: rgb(42, 63, 95); fill-opacity: 1; white-space: pre; opacity: 1;" transform="translate(0,305.69)">6.12e+10</text></g><g class="ytick"><text text-anchor="end" x="96" y="4.199999999999999" style="font-family: 'Open Sans', verdana, arial, sans-serif; font-size: 12px; fill: rgb(42, 63, 95); fill-opacity: 1; white-space: pre; opacity: 1;" transform="translate(0,261.08000000000004)">6.14e+10</text></g><g class="ytick"><text text-anchor="end" x="96" y="4.199999999999999" style="font-family: 'Open Sans', verdana, arial, sans-serif; font-size: 12px; fill: rgb(42, 63, 95); fill-opacity: 1; white-space: pre; opacity: 1;" transform="translate(0,216.47)">6.16e+10</text></g><g class="ytick"><text text-anchor="end" x="96" y="4.199999999999999" style="font-family: 'Open Sans', verdana, arial, sans-serif; font-size: 12px; fill: rgb(42, 63, 95); fill-opacity: 1; white-space: pre; opacity: 1;" transform="translate(0,171.87)">6.18e+10</text></g><g class="ytick"><text text-anchor="end" x="96" y="4.199999999999999" style="font-family: 'Open Sans', verdana, arial, sans-serif; font-size: 12px; fill: rgb(42, 63, 95); fill-opacity: 1; white-space: pre; opacity: 1;" transform="translate(0,127.26)">6.2e+10</text></g></g><g class="overaxes-above"/></g></g><g class="polarlayer"/><g class="smithlayer"/><g class="ternarylayer"/><g class="geolayer"/><g class="funnelarealayer"/><g class="pielayer"/><g class="iciclelayer"/><g class="treemaplayer"/><g class="sunburstlayer"/><g class="glimages"/><defs id="topdefs-7ff3e6"><g class="clips"/></defs><g class="layer-above"><g class="imagelayer"/><g class="shapelayer"/></g><g class="infolayer"><g class="g-gtitle"><text class="gtitle" x="35" y="50" text-anchor="start" dy="0em" style="font-family: 'Open Sans', verdana, arial, sans-serif; font-size: 17px; fill: rgb(42, 63, 95); opacity: 1; font-weight: normal; white-space: pre;">Volumetric current density</text></g><g class="g-xtitle"><text class="xtitle" x="358.5" y="460.8" text-anchor="middle" style="font-family: 'Open Sans', verdana, arial, sans-serif; font-size: 14px; fill: rgb(42, 63, 95); opacity: 1; font-weight: normal; white-space: pre;">Distance from anode (µm)</text></g><g class="g-ytitle" transform="translate(2.2841796875,0)"><text class="ytitle" transform="rotate(-90,11.715625000000003,260)" x="11.715625000000003" y="260" text-anchor="middle" style="font-family: 'Open Sans', verdana, arial, sans-serif; font-size: 14px; fill: rgb(42, 63, 95); opacity: 1; font-weight: normal; white-space: pre;">Volumetric current density (A/m3)</text></g></g></svg>